<svg xmlns="http://www.w3.org/2000/svg" xmlns:xlink="http://www.w3.org/1999/xlink" width="140.05" height="85" viewBox="0 0 140.05 85">
  <defs>
    <clipPath id="clip-path">
      <rect id="Rectangle_33" data-name="Rectangle 33" width="140.05" height="85" fill="none"/>
    </clipPath>
  </defs>
  <g id="Group_21" data-name="Group 21" transform="translate(0 52)">
    <g id="Group_20" data-name="Group 20" transform="translate(0 -52)" clip-path="url(#clip-path)">
      <path id="Path_22" data-name="Path 22" d="M59.1,155.9h.31c.71,0,.943.488.943,1.087,0,.854-.455,1.153-1.253,1.12Zm0,7v-3.449l.366.022a2.317,2.317,0,0,0,2.54-2.463,2.392,2.392,0,0,0-2.84-2.473H57.45V162.9Z" transform="translate(-29.01 -78.031)" fill="#6e6f6e"/>
      <path id="Path_23" data-name="Path 23" d="M84.169,154.539V162.9h3.35v-1.553h-1.7v-1.886H87.3v-1.553H85.822v-1.819H87.5v-1.553Z" transform="translate(-42.502 -78.035)" fill="#6e6f6e"/>
      <path id="Path_24" data-name="Path 24" d="M108.758,154.539V162.9h1.653v-3.838l-.011-.344-.078-.843.023-.022,2.041,5.047h1.563v-8.363H112.3v3.76a5.257,5.257,0,0,0,.133,1.265l-.022.022-2.063-5.047Z" transform="translate(-54.918 -78.035)" fill="#6e6f6e"/>
      <path id="Path_25" data-name="Path 25" d="M136.975,154.539v1.553H139.4l-2.784,6.81h5.036v-1.553h-2.629l2.862-6.81Z" transform="translate(-68.987 -78.035)" fill="#6e6f6e"/>
      <rect id="Rectangle_31" data-name="Rectangle 31" width="1.653" height="8.363" transform="translate(81.48 76.504)" fill="#6e6f6e"/>
      <path id="Path_26" data-name="Path 26" d="M187.271,158.585c0-.743.078-2.784,1.176-2.784s1.176,2.041,1.176,2.784c0,.665-.078,2.784-1.176,2.784s-1.176-2.119-1.176-2.784m1.176-4.315c-1.475,0-2.94,1.176-2.94,4.315s1.464,4.315,2.94,4.315,2.939-1.176,2.939-4.315-1.464-4.315-2.939-4.315" transform="translate(-93.673 -77.9)" fill="#6e6f6e"/>
      <path id="Path_27" data-name="Path 27" d="M214.959,154.539V162.9h1.653v-3.838l-.011-.344-.078-.843.022-.022,2.041,5.047h1.564v-8.363H218.5v3.76a5.257,5.257,0,0,0,.134,1.265l-.023.022-2.063-5.047Z" transform="translate(-108.545 -78.035)" fill="#6e6f6e"/>
      <path id="Path_28" data-name="Path 28" d="M84.44,2.245c-.127.089-.008.058-.125.1-.063.02-.068-.005-.165.011.039.109.048.011.074.12l-.8.039a.335.335,0,0,1-.173-.118L83,2.48l-.013.009-.12.066.161.082-.265.084c0,.12-.03.065.043.11-.258.027-.2.165-.338.267l-.064.031c-.007,0-.016.007-.022.011-.081.049-.072.067-.126.125l-.316.229c-.207.122-.505.05-.664.26,0,0-.006-.02-.007-.016s-.007-.012-.009-.014l-.064-.036c-.074.071-.066.049-.151.074l-.1.023c-.314,0-.054-.062-.308.081-.089.05-.064.023-.133.045-.112.035-.068.034-.134.077s-.339.079-.5.156l-.063.031-.089.006c-.206-.017-.478.03-.695.035-.122,0-.223-.024-.386-.021-.6.013-.318-.008-.526-.026-.171-.015.094.012-.164.053-.129.02-.224-.024-.4,0-.333.051-.54-.06-.916.089a1.177,1.177,0,0,0-.167.1.4.4,0,0,1-.205.039c-.024,0-.1,0-.119.008-.149.031.026-.01-.091.036-.006,0-.006.011-.071.025a.822.822,0,0,1-.12.011c-.119.012-.109.027-.22.045-.035-.057-.033.021,0-.062l.033-.053a.64.64,0,0,1-.161.034c-.142.01-.225.075-.413.084-.145.006-.24-.032-.322-.026-.15.01-.071.071-.269.043a.662.662,0,0,0-.3-.007.974.974,0,0,1-.283-.009c-.159-.037-.13-.1-.262-.051-.186.072,0,.084-.22-.017l-.049.109-.792.078c-.209.033-.138-.053-.353-.051l-.146-.015c-.04,0-.138.025-.22.031-.138.011-.288,0-.443.009-.184,0-.282-.032-.446-.04l-.059,0-.026,0-.165.027a2.74,2.74,0,0,1-.4.041c-.048.1.023.1-.1.14a.592.592,0,0,0-.238.1c0,.06.23-.054-.082.188.044.2.1.162-.215.262a2.776,2.776,0,0,1-.968.128,1.511,1.511,0,0,0-.385.079,2.416,2.416,0,0,0-.824.177,1.394,1.394,0,0,1-.745.3,3.652,3.652,0,0,0-.684.082c-.2.028.063-.02-.128.072-.117.056-.305.056-.45.11a.9.9,0,0,1-.182.073c-.081.019-.182.029-.26.048-.205.05-.214.124-.367.178a1.151,1.151,0,0,0-.142.042l-.213.129-.02.01-.054.02-.017,0c-.1.031-.069.034-.162.083a.385.385,0,0,1-.186.024c-.221-.036-.044.021-.142-.115l-.158.111c-.023.006-.156.017-.218.029l-.012-.029,0-.013c-.038-.121.031.042-.01-.036-.093.1-.026.079-.15.085a3.494,3.494,0,0,0-.962.127l-.937.173c-.057.013-.182.066-.211.071-.118.021-.068-.026-.208-.005-.105.015-.029-.008-.1.039s-.29.317-.4.171c-.049.15.07-.036-.023.1-.156.026-.22-.023-.3.03-.063.042-.039.045-.015.074.049.058.01,0,.091,0-.1.055-.227.111-.328.05-.037.046-.03.09-.082.125s-.06.009-.152.05l-.564.1c-.257.026-.216-.019-.367-.051a1.51,1.51,0,0,0-.385.025,1.983,1.983,0,0,1-.3-.03h-.045c-.158-.021-.108.087-.251.085-.088,0-.1-.053-.172-.091-.339.226-.262.078-.348-.008a.647.647,0,0,0-.086.113c-.288-.1-.254-.008-.548-.035a1.677,1.677,0,0,0-.671.014c-.137.071-.046.039-.233.068-.144.023-.242.054-.349.079-.159.036-.163-.01-.334.041-.135.04-.15.034-.262.063.065-.067.072-.056.041-.1l-.269.107a.152.152,0,0,0-.03.03c-.089.071-.27.111-.358.194-.148.139-.3.131-.36.218-.118.162-.017.195-.267.3-.267.112-.073.1-.458.107a.534.534,0,0,0-.205.05,3.457,3.457,0,0,1-.533.315c-.171.026-.335-.055-.352.189l-.385-.032c-.074.006-.032,0-.052.01-.276.085-.349-.016-.806.065a1.433,1.433,0,0,1-.381.059c-.118-.009-.132.035-.223.095-.138.089-.332.077-.217.228l.289.435c.079.08.111.105.228.076l-.03.047c-.1.189.063-.136-.023.043a.54.54,0,0,0-.026.071c.089-.007.036-.009.151-.042.031.129.031.04.073.153,0,.007,0,.016.008.024s0,.017.007.026c.013.041,0,.016.023.077l.061.087.008.015c.1.189.254.222.363.6.042.144.016.03.056.14a1.3,1.3,0,0,1,.079.425l-.115.334c-.014.051,0,.087.011.168-.127.078-.239.139-.279.3l-.005.034c-.017.152-.023-.007.039.141-.074.1-.179.128-.021.337l.2.172.017.015c.268.2.142.045.285.283a1.009,1.009,0,0,0,.066.094l.044.088c0,.005,0,.015,0,.02s0,.015.005.021l.016.04c.037.084.076.036-.014.11a1.084,1.084,0,0,1,.144.072c-.138.04-.038.029-.05.078-.02.082-.031.035-.083.14,0,0,.014,0,.016,0l.081-.01c-.024.1.005.151-.019.229-.085.267-.033.143-.015.3l-.144.121.124.1.011.005c-.081.069-.09.178-.152.264.091.048.019-.032.1.055l-.059.156a.422.422,0,0,1,.12.255c.013.155.1.276.03.415s-.048.021-.052.1c-.015.244.1.065-.085.283.1.1.014.313.108.62-.005,0-.017,0-.018.009-.016.075-.012.007-.034.015-.169.066.077-.056-.042.014,0,.139.168.32.018.384-.109.046.034,0-.047,0-.056,0,.027-.045-.046,0,.048.1.081.131.055.25a.48.48,0,0,0,.188.584c-.107.129-.075.085-.037.289s.034.137.2.206c-.026.046-.078.112-.092.147a.205.205,0,0,0-.011.078c.043.143-.129-.1.051.056l.018.012-.115.05c.052.139.1.16.089.314-.009.193.058.078.1.29a.477.477,0,0,1-.036.25l-.239.383c-.171.183-.059.036-.067.168l-.032.181a1.531,1.531,0,0,0,.167,0c-.032.118.013.124-.022.2,0,0-.02,0-.051.066l.164.208a.4.4,0,0,0-.089.252l.11-.007-.11.241c0,.088-.185.113-.265.12l-.055.219V22.7c-.027.353-.111.2-.15.188-.045.395-.072.187-.142.349l.017.074.014.012c-.15.067-.072-.019-.105.092l-.037.171c.144.025-.031-.039.067,0,.015.22-.117.425-.023.611l.126.2c.065.073.041-.029.082.094.028.081-.006.1-.013.193.094-.05.1-.043.168.005a.685.685,0,0,1,.222.295c.065.135.059-.022,0,.179.1.027.168.058.124.189-.018.054-.019.031-.061.079.165.161-.05.092.126.2-.046.05.006.005-.06.044-.025.015-.05.02-.086.041l-.028.364c.008.038.115.035-.024.18l-.167.2c.053.025.084,0,.185.016.022.162-.013.1-.022.159-.006.035-.017-.006,0,.052l.028.049a.112.112,0,0,1,.013.017l-.167.055c.05-.033.068.1.066.139l.058.133c-.1.12-.041.073-.054.22s-.021.039-.087.18c.154.227-.087-.069.026.247.088.245-.064.088.094.329l-.1.1c0,.012.09-.018-.062.1.079.06.048.033.1.125l-.073.137c.039.1.04.018.069.142.046.192,0,.108.116.186l-.166.067c-.009.15.022.1-.053.2-.1.137-.045-.015-.067.168s-.2.144,0,.372c-.057.1-.124.113-.128.262l.288.073c-.049.08-.113.08-.042.183l.09.072a.625.625,0,0,1,.1.082c-.17.221-.039.22-.069.324l-.1.489c-.02.244,0,.122-.1.326-.062.13-.048.192-.134.295a.721.721,0,0,0-.061.084c.034.145.048.089.059.192.006.057.039.022.02.142l-.178.295c-.061.123,0,.114-.16.211.068.063.119.089.184.153-.106.085-.049.091-.148.175-.213.181-.24.055-.363.378l-.015.03a.469.469,0,0,0-.057.241c.01.079.068.11.121.227a3.873,3.873,0,0,0,.784.138c.194.223.161.1.5.167a1.277,1.277,0,0,0,.517-.016c.179-.031.244.009.4-.016.106-.018.333-.027.383-.035.115-.019.039-.034.161-.047.183-.019.068.033.188.022l.088-.03.036-.013.035-.013.018-.006.111-.008c.077,0,.175-.022.2-.018.126.016.012.029.09.1.038-.122.038-.083.214-.055.315.049.5-.024.616.089.074.073-.029-.018.05.085.129-.059.179-.035.307.023s.141.13.28.078c.295-.112.027-.146.383.01l.023.008c.1.039.049-.03.149.093l.057-.052c.076-.066-.035-.005.075-.061.137.1.032.013.108.114s.038.035.156.112c.005,0,.01-.022.013-.017l.107-.082c.115-.065.015.049.115-.1a.615.615,0,0,1,.1.157c.459-.036.383.09.59.1.16,0,.245-.064.436-.026a3.043,3.043,0,0,0,.71,0c.108-.041.106-.1.184-.1.162-.005.079-.083.231-.047.116.028.023.029.163.07.007-.005.013-.026.017-.02l.074-.062c.152-.039-.144.021.081,0l.031-.006c.084-.007.056.034.127,0a2.125,2.125,0,0,1,.349-.122c.028.044-.014.028-.016.146.174-.011.568-.2.754-.131-.027.1-.131-.062-.035.1.174-.045.027-.08.244-.088.118,0,.183.035.33.032.043-.121.17-.5.282-.554.158-.082.307.018.492.018-.128-.1-.33-.07-.481-.129.013-.108.043.012.036-.131-.005-.116.014.016-.055-.111.289.025-.031.108.43-.046.019.249-.086.135-.134.3l.18-.045.078-.282c.038-.144-.056-.084.075-.233.1-.115.257-.309.134-.449.076-.058.2-.059.081-.3-.1-.212-.17-.022-.192-.249-.1.1,0,.062-.119.091-.136-.117-.065-.08-.022-.2-.2-.11-.045-.238-.332-.271.018-.143.03-.028.051-.161l-.168.065.29-.467a1.64,1.64,0,0,0,.186-.4c.022-.061.068-.126.09-.187.074-.209-.052-.092-.022-.474-.217-.1-.069-.156-.186-.284-.071-.078-.023.043-.027-.067a.77.77,0,0,1,.006-.246c.058-.133.12-.022.106-.267l-.163-.025a.613.613,0,0,0,.039-.31c-.012-.1-.022-.038.04-.151-.152-.09-.111-.072-.165-.266-.04-.142-.052-.145-.186-.208.113-.025.111-.134.125-.247a.818.818,0,0,1-.1-.048c-.076-.05-.055-.161-.028-.279l-.214-.163c.074-.1.193-.132.254-.237a.328.328,0,0,0,.055-.152l.021-.087c.05-.148-.034-.161-.114-.318l-.138-.34.114-.1c-.059-.1-.068-.059-.059-.133s.033-.065.039-.074l.01-.015.023-.031c0-.006-.016-.022-.018-.017-.01.031-.109-.152-.076-.242s.119-.084.1-.177l-.056-.088a.361.361,0,0,0,.153-.078l-.156-.135a.312.312,0,0,0,.089-.169l.008-.032c.024-.067.013-.044.089-.081,0-.1-.012-.082-.047-.164a.189.189,0,0,0,.166-.09c-.013-.075-.094-.089-.051-.275.092-.39-.02-.349.171-.554l.067-.113c.018-.024-.05-.048.188-.059-.138-.228.057-.172.026-.407a.613.613,0,0,0-.087-.03c-.086-.037-.022.011-.086-.047.07-.211-.024-.215,0-.445a.306.306,0,0,1-.241.046.238.238,0,0,0,.066-.22l-.023-.087c-.005-.119-.009.011.043-.14-.14-.023-.091.061-.133-.143-.025-.123.01-.1-.025-.215a.893.893,0,0,1,.011-.457c-.125,0-.069.015-.155.049-.113-.116-.086.014-.058-.171-.067.034-.064.05-.149.013.071-.142.021-.236.067-.32l-.03,0-.016,0c-.027.007-.05.019-.077.028-.01-.143-.012-.112.072-.188-.058-.078-.074-.126-.156-.169a3.061,3.061,0,0,0,.263-.21l.064-.06c.075-.064.147-.093.18-.2.043-.146-.015-.263.057-.418a.622.622,0,0,0,.078-.164c.031-.12,0-.112.031-.217l-.08-.029c0-.4.039-.132-.054-.282.123-.041.153-.07.25-.1l-.043-.025c-.08-.051-.06-.044-.077-.12l-.01-.033c0-.006-.014-.025-.016-.031-.02-.061.07-.189.114-.379.031-.132.151-.172.13-.406-.006-.069-.015.005.032-.052l.011-.014L61.974,18c0-.005-.01-.014-.013-.021l-.076-.235a.371.371,0,0,1,.081-.19l-.039-.057-.012-.019a.114.114,0,0,1-.012-.02c.14-.069.009,0,.109-.142a1.546,1.546,0,0,1,.115-.135,3.5,3.5,0,0,0,.373-.805l-.03-.084-.012-.016c-.023-.031-.1,0,.006-.181l.083-.168c0-.005.009-.013.012-.019l.086-.133c.041-.1.085-.131.073-.262l-.049-.276.138-.061c-.046-.079-.059-.019-.032-.107a1.183,1.183,0,0,0,.409-.239l.032-.033.016-.016c.083-.073.083-.044.159-.1.036-.024.025-.018.041-.038.066-.083-.028.008.031-.057s.362-.118.532-.325c.114-.14.382-.174.532-.361.077-.1.217-.435.348-.466l.018,0,.019,0a.378.378,0,0,0-.129-.6c.009-.14.02-.064.063-.195-.213.055-.206-.05-.372-.13-.008-.235-.023-.105.069-.283,0,0-.014-.009-.015,0s-.013,0-.015,0l-.17-.054c.091-.033.1-.026.149-.1-.028-.066-.018-.044-.077-.1l.223-.063a.406.406,0,0,0,.025-.188l.056.037c.058.019.016.01.077.012.064-.135-.031-.051.2-.155.056-.025.007,0,.046-.025.071-.044-.03-.021.057-.038.1-.02.075.017.1.095.1-.139-.018-.154.117-.03.016.015.007.194.194-.059a1.516,1.516,0,0,0,.467.036c-.134-.131-.138.013-.144-.132l.147.046c.084,0,.023-.025.149-.045.167-.027.135.059.214-.143a2.974,2.974,0,0,0,.466-.061l.039-.011.017-.006.017-.007.2.006c.033-.11,0-.1.121-.14-.023.089.013-.014-.034.045s-.027,0-.055.069l.168.017c.048-.111-.083-.014.022-.128.021-.023.032-.058.138.036.044-.238.35-.081.6-.214l.285-.165a.888.888,0,0,0,.33-.158c.167.046-.1.012.1.052.1-.128-.043-.148.118-.174l.162.028a.248.248,0,0,0,.051,0c.194.014.347-.123.6-.138l.063.108.065-.035c.287-.159.093-.03.52-.155-.03.18,0,0,.029.177a.65.65,0,0,1,.713-.108,2.089,2.089,0,0,0,.373-.031c.166.052.007.009.052.04a.649.649,0,0,0,.3.064c.164-.021-.044-.024.176-.074a2.74,2.74,0,0,1,.434-.123c.141-.006.075.028.186.058.168.047.405-.153.462.074,0-.006.012-.025.016-.019s.022-.025.037-.032c.069-.036.158.006.234.059l.021-.109a.071.071,0,0,1,0-.016c.115.005.1.024.219.058.172.05.1,0,.19,0a2.255,2.255,0,0,0,.221.059c.2.025.1-.027.218-.033a1.232,1.232,0,0,1,.437.023c.2.052.108.013.244.007s.078.047.2.051c-.024-.087-.006-.046-.071-.1.155-.048.038.006.206,0,.36-.008.284-.157.829.133a2.22,2.22,0,0,0,.536.229,7.158,7.158,0,0,0,.8.258,1.405,1.405,0,0,1,.7.3l.021-.065c.022-.052-.022-.015.032-.057a5.832,5.832,0,0,0,.36.848c.128.33.33.406.345.711a.457.457,0,0,0,.025.134l.141,0c-.017.207-.064.081.061.268s.037.1.2.134a.828.828,0,0,0,.012.246c0,.155-.042.052.077.224-.009,0-.048.019-.054.023-.057.034-.033,0-.073.055l.086.071-.1.078c.086.08.054.013.048.159.006,0,.016-.022.019-.016s.025-.02.037-.029c.035-.027,0-.013.057-.041.01.179-.119.033-.033.268a1.689,1.689,0,0,0,.163.263c.085.155.026.605.345.451a.242.242,0,0,0-.045.157l.132-.017c-.077.1-.092.008-.016.179a.342.342,0,0,0,.171.185,1.651,1.651,0,0,1,.3.188c-.142.387-.034.36-.033.361.017.024.031-.009.046.08s-.025.119-.045.172c-.036.1-.017.2-.049.3a1,1,0,0,0,0,.305.85.85,0,0,1,.432.38l.051.079a.33.33,0,0,0,.112.051c.015.155-.017.119.037.262.028.074.022-.005.029.083.01.131-.018-.014-.049.174a.236.236,0,0,0,.034.2c.067.016-.021.016.094-.035a1.877,1.877,0,0,0,.145.679l.009.125c.005.171.025.079-.05.257-.063.15.09.313.107.473.01.094-.02.032.027.126a.522.522,0,0,0,.183.163l.37.458a.8.8,0,0,1,.108.208c.034.141,0,.054.1.156.048.049.016-.008.067.1s.019.045.034.106c0,.008.005.033.008.041.037.123.037.029.088.154l-.074.184a.415.415,0,0,1,.1.418c0,.005-.005.015-.006.02-.01.049-.009,0-.008.054l.034.126.008.019c.062.166-.085.384-.164.543-.007.014-.032.053-.033.057a.484.484,0,0,0-.017.283c-.142.147-.06.045-.151.222-.066.129-.1.1-.219.19a.324.324,0,0,0,.069.24l-.121.039c.071.154.013.061-.05.218l-.059.507s.078.112.081.114l.13.055c.129.087.029.1.028.127l.056.152s0,.014.006.019l.063.115a1.062,1.062,0,0,1,.166.254.21.21,0,0,0,.041.054c.042.043.05.015.1.089a.682.682,0,0,1,.048.22c.021.243-.161.223-.076.492.047.147.014.165.057.319.045.1.182.056.19.309.006.183.068.115-.023.277l.288.2c.02.145-.039.187-.052.294-.01.079-.009.155-.114.2-.05.019-.124-.019-.2.073-.09.108.008.089-.163.236a.356.356,0,0,1,.106.213c0,.171,0,.031-.032.1-.041.08-.157.051.086.269l-.224.045a.251.251,0,0,0,.067.309c0,.008-.012.01-.014.022s-.023.036-.028.043a1.251,1.251,0,0,0-.124.475c-.012.137-.072.155-.077.26-.008.155.051.153.119.167-.006.005-.017,0-.019.014-.011.061.007-.017-.035.028l-.131.279c-.015.183.1.052.093.213s-.036.033-.034.118l0,.01a.1.1,0,0,0,0,.01c.016.045.078.021-.055.149l-.019.017c.056.164.076.094.015.241a.22.22,0,0,0,.02.26c-.152.076-.087.214-.527.368.091.034.087.05.129.137-.305.415-.1.263-.2.439s-.243.225-.266.447c.114.044.046-.119.128.038a.485.485,0,0,0,.164.34c.064.053.073-.07.1.181l.111-.007c-.03.132-.111.1-.062.25.073.225-.028.206-.1.4.159.078.152-.018.145.24a.475.475,0,0,0,.064-.025c.079-.024-.009-.032.058-.01.006.209,0,.039-.094.2,0,.007.013.009.015.021l.026.041c.046.1-.069.136.126.222.1.046.062-.049.106.075,0,0-.039-.1-.071.037.1.055.3.037.345.071.075.115-.009.028.04.111a1.045,1.045,0,0,0,.7-.124c.213-.078.3-.044.47-.1l.2-.083c.191-.034-.014.02.178,0,.125-.013.041-.027.189-.045l.354-.067.014-.014.593-.132a.3.3,0,0,1,.127-.2l-.144-.077c-.008-.191.054-.213.071-.351.022-.179-.085-.142-.143-.281.1-.143.2-.2.277-.3A.377.377,0,0,0,85,32.715l-.136-.052c0-.008.008-.027.011-.022l.129-.137c-.083-.115-.141-.074-.167-.188-.019-.077-.008-.05.009-.1a.563.563,0,0,1,.085-.142c.03-.083-.012-.092-.016-.2a.45.45,0,0,0,.117-.422c.2-.1.164-.053.205-.3.038-.221.113-.285.076-.51l-.026-.349s0-.054,0-.059c0-.043-.062.028.013-.04l.071-.033c-.149-.1-.119-.218-.247-.315l-.058-.041c.18-.252.055-.224.35-.458-.006-.006-.016-.024-.019-.018l-.08-.051c-.006,0-.015.005-.017.015l-.119.155a.233.233,0,0,1-.156-.169c-.07-.2.1-.015-.016-.236a.181.181,0,0,0,.171.056.626.626,0,0,1-.107-.306c-.011-.128.052-.121-.026-.29-.031-.067-.007-.046-.043-.115.044-.046-.027-.03.111-.05-.046-.118-.023-.18-.073-.289a.238.238,0,0,1,.087-.29c-.2-.209-.029-.112-.169-.383.01,0,.046.012.052.013.138.014.094,0,.1-.044l.041-.2-.142-.038c.076-.151-.012-.153.023-.3.029-.12.063-.149.024-.26,0-.01-.016-.039-.02-.049a.352.352,0,0,0-.067-.123.993.993,0,0,0-.169-.214l-.134-.081a1.65,1.65,0,0,1,.03-.21c.032-.123.065,0,.009-.174-.06-.193-.016-.125,0-.338a2.191,2.191,0,0,0-.021-.409l0-.085c0-.068.014-.02,0-.108-.027-.128-.046-.071-.1-.182.068-.048.085-.072.161-.123l-.123-.041c.015-.153-.028-.232.054-.347.109-.152.11-.182.066-.294a.189.189,0,0,1-.026-.079.487.487,0,0,1,.005-.077l.117-.449c0-.045,0-.027-.028-.089l.148-.041-.15-.05c.071-.129.161-.064,0-.151l.269-.382c-.158-.034.089.037-.138.026.05-.1.067-.1-.007-.161L85,22.254c-.051-.058-.025,0-.053-.078.129-.022.084.028.136-.161-.138-.076.018.011-.115.008l.16-.224.008-.016c.057-.116.049-.092,0-.227.307,0,0,.057.207.043a.2.2,0,0,0,.063-.137c0-.125-.159-.141-.186-.25a1.153,1.153,0,0,0-.005-.232l.04.04c.085.062.05-.131.081-.223-.1-.075.117.055-.064-.022-.08-.034.043.03-.043-.018s0-.066-.16-.123c.093-.074.07-.135-.037-.219l-.06-.041a.262.262,0,0,0,.056-.048l0-.028c.008-.173,0-.025.045-.177-.156,0-.076,0-.119-.037s0,0-.042-.053L84.888,20a.117.117,0,0,0-.014-.017c.166-.148.03-.12.112-.206l.048-.023a.071.071,0,0,0,.019,0c0-.006-.016-.023-.018-.018s-.014-.014-.017-.017-.024-.026-.028-.032c-.04-.067.034-.119-.05-.162l-.016,0-.015,0-.029,0a.654.654,0,0,1,.141-.1c-.032-.048,0-.007-.043-.051l-.157-.214c.077-.032.033.006.05-.081.172.01.151.088.24-.039a.681.681,0,0,0-.26-.137l.017-.28c.028-.259.206-.284.25-.378.07-.15-.021.016.022-.069l.059-.069s.017-.009.021-.012l.023-.011-.044-.15a.805.805,0,0,0,.121-.052c.139-.073.039-.017.049-.057,0-.013-.049.048.027-.07,0,0,.032-.042.04-.054l.135-.211c.07-.138-.043-.189.168-.26-.121-.1-.008-.169.063-.209l.179-.2c.055-.074-.03,0,.077-.084.022-.017.083-.044.1-.057-.045-.183.082-.139-.123-.2.077-.062.056-.015.137-.07a.19.19,0,0,1-.066-.02.136.136,0,0,1-.052-.039c.041-.1.033-.224.082-.353l-.106.02c.037-.112.12-.2.166-.306.087-.211.022-.167.209-.291.2-.134.183-.088.174-.248-.011-.2.123-.051.078-.368a.549.549,0,0,0,.45-.3c-.082-.138-.079-.019-.13-.15l.239-.172c-.053-.162.1.13-.032-.04-.053-.069-.044-.05.021-.119.116-.123.032.018.085-.189.021-.083.022-.141.1-.151l.174-.049a.776.776,0,0,0,.435-.424l.015-.1s0-.012,0-.015,0-.012,0-.015-.008-.005,0-.046.058.038.032-.08c-.076-.19-.3-.046-.416-.2l.119-.02c.012-.113-.014-.137.04-.22.065.036-.038,0,.051.023.068.021.007.039.07.007.032-.218-.092-.279-.085-.5,0,0,.012-.008.013,0l.042-.011c.124-.053-.014-.127-.076-.2a.873.873,0,0,0,.281-.253.407.407,0,0,0,.036-.046.56.56,0,0,1,.158-.2l.085-.043c.132-.067.147-.1.308-.058l.048-.164c.032.068,0,.086.11.043l.012-.006L89.006,11c.072-.086.015-.068.132-.125-.021-.088,0,.008,0,.009l.052.073.074-.163.179.047c.084-.139.462-.593.71-.358.15-.236.089-.056.252-.147.112-.077-.015-.14.214-.242.481-.214.183-.1.528-.124.086-.007.159.062.213-.029.074-.126.039-.027-.045-.12.05.016,0,.023.053,0l.016-.007.031-.026s.01-.013.015-.017a.31.31,0,0,1,.116-.09l.245-.118.151.092.067-.239.159.087c.009-.012.015-.033.018-.027l.062-.064c.089-.044,0-.052.094.026,0-.119-.026-.1.055-.135.068.089.013.073.053.177.074-.036.069-.084.115-.159.115.054.077.015.169.1l.063-.036c.025-.012.04-.018.063-.03a.708.708,0,0,0,.063-.035L93,9.28a.172.172,0,0,1,.025-.016c.054.1.031.092.157.129.015-.1-.042,0,0-.08s0,.113.068-.1c.051.068.067.122.17.1.152-.028.056-.064.188-.057.093,0,.08-.024.2,0,.2.034.286.175.45.208.18.037.217.144.4.109l.052.142c.088-.1.035-.023.167.046l.2.213a.13.13,0,0,1,.132-.011l.049.021c.051-.007,0-.014.124,0a.393.393,0,0,0,.088,0l.086.01.013,0,.036.005.014,0c.266.051.421-.139.848-.08.026,0,.146.033.2.038.18.016.2-.063.374-.042l.016,0,.385-.033.01-.007.011-.007c.162-.064.058-.025.2.031.031-.082,0-.066.086-.083l.185-.006c1.162.022.724.2,1.144.267-.077-.1-.082-.018-.138-.145.148.034.058.059.219.059-.134.04-.066.038-.1.086.314-.066.648.186.791.142.04.128-.071.027.208.156.175.08.11.06.325.065,0,.169.083.1.267.133l.16.039c.079.038-.039.048.178.069l-.087.123a.961.961,0,0,1,.212-.019c.048.015.007,0,.05.044l.013.017.049.051c.181-.047.1-.076.244-.123a.375.375,0,0,1,.056.047c.1.1.026.136.169.148.11.009.081.038.143.03a.573.573,0,0,1,.12-.026c-.042.054-.034.065.013.112l.017.015.2.212c.177.062.122,0,.3.114l.223.181c.167.188.128.1.221.258.077.129-.036-.046.083.083.1.111.054.015-.008.142.25-.1.251.257.367.358.156.135.534.308.467.555l.2.1c.205.109.114.3.367.565a.589.589,0,0,0,.139.11c.187.131.03.132.275.259a.514.514,0,0,1,.25.258c.055.127.122.15.17.268s.108.1.169.323a.556.556,0,0,0,.209.334c0,.008-.012.011-.013.025s-.01.018-.012.025-.009.017-.011.025l-.023.249c-.017.137-.078.182-.106.3.008,0,.021,0,.026.008.018.039.073.019.115.045.008.125-.006.076.034.172.045.017.02-.013-.016.019l-.036.031a.911.911,0,0,1-.033.353l-.048.187c-.054.155.073.2.022.245s-.011,0-.083-.014-.005-.024-.056,0c.045.085.04.07.135.124-.066.061-.03.023-.062.075l-.011.019-.054.1a.549.549,0,0,0,0,.263c0,.047.023.23.02.26-.005.071-.009.052-.015.073s-.006.015-.008.023l-.008.023-.041.163c-.01.135.044.1-.019.252a1.672,1.672,0,0,0-.092.861s-.069.038-.081.047l-.086.075.222.144c.179.093.144.071.283.273l.136.384c-.106.2-.077.109-.016.339.026.1-.057.209-.138.273l.083.165-.078.1a.313.313,0,0,1,.01.2c-.134.73.155.26.109.995a.65.65,0,0,0,.064.328c-.162.118-.113.138-.038.287l-.069.1-.012.019-.018.066c0,.06.023,0,.016.031-.138.057-.063.055-.178.122l.176.029c-.035.12-.015.094.287.25l-.022.047c-.067.154.039.159-.073.339.077.057.075.042.1.15-.069.049-.027-.01-.087.069a1.442,1.442,0,0,0,.072.278c-.092.042-.2.094-.169.192.045.124-.056.161-.091.28a.98.98,0,0,1-.054.249l-.125.19c-.026.074.011.012-.046.1l-.191.371a.393.393,0,0,1-.078.067c.07.032.062.017.1.079a1.148,1.148,0,0,1-.171.243c-.089.077-.139.005-.1.25.057.033.08-.011.095-.007,0,.031.011.1.018.124.042.171.177.249.209.433.022.126-.053.182.093.271-.047.053-.091.118-.136.168a.877.877,0,0,0,.186.112l-.02.38-.1.033c-.011,0-.107,0-.126,0,.067.185-.046.157-.138.363a.275.275,0,0,1-.064.1.687.687,0,0,0,.154.087c-.02.069-.021.044-.028.055s-.015,0-.027.04a.53.53,0,0,0,.27.068c.029.158,0-.015-.037.107a.629.629,0,0,1,.118,0c.107.02.16.117.252.141.134.034.082-.094.333.134-.02.064-.092.048-.053.143.05.123-.1-.121.051.049.072.08-.067.045.086.191.091.087.067.015.026.14l.153.056-.062.178c-.014.07-.062.126-.085.206.137.168.066.113.1.233l.064.117c-.058.036-.254.2-.235.283.025.1-.036-.027.034.05l.018.016.039.032c-.113-.05,0-.058-.147-.012a1.647,1.647,0,0,1-.269.678c-.06.06.008.03-.111.045.071.129.074.07.036.181,0,.009-.015.038-.018.047-.038.1-.113.005-.334.328-.044.064-.059.067-.1.122.06.029.1-.023.142-.01-.3.249-.119.025-.268.281-.086.147.015-.075-.031.049a.166.166,0,0,0,.077.008h.021l.069.014a.12.12,0,0,1,.024.007c-.068.041-.009.008-.062.04l-.211.16c.018.091.049.14.061.2,0,.013.012.152.012.154,0,.059-.014.084.037.12a.455.455,0,0,0,.2.051l-.113.082-.008.012-.008.011-.038.05c.132.04.144,0,.272-.059,0,0,.018.077.018.086,0,.09-.1.074-.013.131s.191.017.263.032c.023.065-.094.106.1.116.1.005.064-.035.219.036-.236.176-.25-.114-.353.157l.383-.013c-.057.014-.179.013-.192.108s.136,0,.181-.057c.065.065.01,0,.036.082.067.223-.062-.048.015.071.059,0,.036,0,.077-.016.2-.073.294-.175.526.063.124-.067.015-.073.182-.09.006.276.013.09-.089.25.064.023-.011.031.053,0l.063-.047.018.183c.109-.056.012-.183.089-.311.121-.083.083.013.2.029.195.026,0-.075.27-.042.115.014.2.046.318.051.138.006.277-.03.418-.034.139.173.127.024.41.134a.241.241,0,0,0,.035-.169c-.019-.107,0-.006-.025-.064a.733.733,0,0,1,.014-.291c0-.079.048-.01-.02-.038.21-.012.189-.094.28-.252s.076.033.146-.289c.012-.055.02-.073.036-.145.054-.25-.008-.052-.01-.329,0-.149-.039-.129-.05-.289l-.068-.452c-.044-.14-.119-.133.054-.226l.022-.177.105-.039c-.062-.415.051-.353-.1-.5l.118-.21c-.02-.019-.114-.153-.117-.16-.024-.05.005-.043-.038-.1l-.014-.016.086-.061c-.033-.086-.037-.1.024-.2a.386.386,0,0,0,.008-.36c.007-.005.017-.023.022-.017l.089-.31c.021-.11-.007-.089.062-.151.036-.032.023-.015.059-.036l.085-.046c-.015-.153-.029-.1-.054-.177a2.478,2.478,0,0,0-.1-.53c-.056-.17-.07-.224-.018-.348.012-.029.03-.051.006-.091-.059-.1-.033.035-.1-.085a1.26,1.26,0,0,1,.293-.344.154.154,0,0,0,.023-.017l-.194-.04.071-.105c-.111-.059-.027.028-.1-.08.049-.17-.091.145.027-.041.074-.117-.047-.114.08-.4a.408.408,0,0,1-.254-.13l-.074-.1c.08-.07.067-.038.114-.135a.482.482,0,0,1-.094-.267s-.006-.033-.007-.046c0-.035,0-.072,0-.153l-.119-.008c.022-.044.048-.076.059-.1l.124-.343c-.056-.094-.023-.069-.116-.111.1-.259.061-.013.045-.179.191-.025.074-.027.208-.117-.117-.071-.229-.032-.249-.192-.017-.139.011,0,.024-.094s-.045-.15-.047-.2c-.007-.207.057-.045.108-.208l-.194-.253a.352.352,0,0,1-.051-.053c.14-.076.144-.062.131-.253-.083-.023-.013.065-.146-.046a.463.463,0,0,1,.384-.247.667.667,0,0,0-.08-.384c.149-.062.115-.127.208-.221.054-.055.058-.035.086-.133.083-.29-.006-.632.141-.781l-.078-.075c.136-.027.066.011.113-.086-.1-.186-.109-.158.023-.349-.032-.016-.025,0-.1.034-.028-.248-.1-.134-.013-.378.078-.215.19-.233.2-.465,0-.121-.041-.147-.134-.161a.118.118,0,0,1-.021,0l.107-.082c-.141-.062-.091.04-.129-.062.12-.037.048.012.083-.091l-.1-.076c.034-.15.068-.1.039-.191l-.032-.072c-.085-.094.108.048-.018-.011l-.026-.006a.048.048,0,0,1-.015,0c.121-.074.051-.066.122-.154l.218-.186c-.035-.19-.069-.119-.1-.171a1.011,1.011,0,0,1-.061-.3c-.021-.111.005-.152-.1-.2.057-.029.078-.029.131-.055a.617.617,0,0,1,.09-.512c.066-.13.035-.158.053-.308.013-.108.006-.142.066-.208,0,0,.011-.009.016-.015-.094-.062-.036,0-.106-.087.086-.075.162.008.211-.142l-.1-.108c-.049-.084,0-.07-.033-.176.1.032.015.053.144.049.033-.211-.1.013.006-.171a.317.317,0,0,1,.145-.1c-.038-.151-.11-.18-.048-.341.031-.08.111-.186.164-.307l-.121-.037c.133-.029.092-.072.1-.207.026-.374.1-.146-.02-.373L110.1,15.8a.111.111,0,0,1-.019,0c.1-.157.044-.146.1-.3-.1-.017-.05.03-.138-.044.039-.121.154-.135.25-.206-.145-.109-.3-.031.054-.275.015-.175.029-.047.11-.2l.089-.308.359-.394c.059-.056-.014-.017.051-.039l.084-.006c0-.083.008-.046.014-.067a.412.412,0,0,0,.006-.25l.256-.113.018-.012.018-.013c.071-.044.012-.035.142-.056.055.123-.034.114.041.1.091-.169-.044-.113.076-.259l.023.02c.073.048-.02.02.076.042.085-.081.074-.094.1-.241.007,0,.015.006.018.017.016.051.071.081.127.114l-.007-.071c-.017-.08-.012.057-.023-.084a.243.243,0,0,0,.283-.128l.207-.158c.041-.027.035-.016.07-.071l.049.023.015.006.034.013a.888.888,0,0,0,.062-.09l0-.015s0-.011,0-.012v-.01s-.007-.008-.014-.015a.891.891,0,0,1,.368.087,1.158,1.158,0,0,0-.12-.122c0-.007.009-.025.011-.021l.024-.156c.173-.037.105-.018.206-.116l.156-.244c.023-.07,0,.01.011-.056l.173-.493a.493.493,0,0,1,.321-.165c.2-.012.233-.1.5-.125l-.064-.16-.021-.03c-.035-.063-.036.013-.022-.056.137-.063.073.1.212-.117h.2c.084-.011.039-.053.006-.15.148.02.24-.118.354-.2l.2-.12a.366.366,0,0,1,.3-.064c0-.005,0-.023.005-.019l.027-.065c.062-.076.231-.032.342-.063a.7.7,0,0,1,.325-.06h.145l.246-.038c.144-.05.388-.056.528-.095l.067-.021c.058,0,.036-.007.1.054l.03-.1.165.044c.006-.131-.049-.138.284-.143a1.945,1.945,0,0,1,.305.034c.2.018.409-.147.562.034.022.026.013.031.051.077.054-.259.369-.2.546-.12.194.083.074-.062.271-.009l.122.062.021.01.022.009.26.118.024-.1.074.115c.032-.092-.018-.026.057-.048.189-.055.3.093.487.051l.018,0c.242-.056.026-.03.189-.107.182.111.1.042.318,0,.171-.029.092,0,.186.017.158.033.026-.005.112-.034.112-.036.116.054.234.043l.34-.006c.2-.018.517.055.717.039.638-.051.6.124.712,0,.071.1-.03.038.086.083l.307.035.012,0c.132-.038-.039-.047.04-.036.143.045.178-.045.312.048.188.131-.031.144.251.166,0,.145,0,.149.1.21.157.091.11.045.19.05l-.007.059a.823.823,0,0,1,.011.13l.14-.056c.076.1-.061.02.062.073l.357.13.04.022.036.018a.972.972,0,0,0,.361.131c.082.008.47-.027.171.146a1.18,1.18,0,0,1,.254-.019c.155.047.049.139.034.271.153-.028.076,0,.162.006h.024c.151,0,.129-.021.229.113s.067.03.18.134a1.581,1.581,0,0,1,.139.208c.076-.014.079-.049.126-.1.022.17.217.166.139.375-.032.085-.039.071-.094.137l.074.173c.028.142-.057.106-.015.27.027.1.063.1.074.18s-.023.043,0,.184l.13.3c.08.1.031-.034.038.156.135,0,.113-.02.206.039.065.041.019.1.123.057-.009.049-.037.063-.009.1a.9.9,0,0,0,.159-.08c-.045.13-.074.109-.043.193l.057.279c.02.124-.032.008.078.128-.086.059-.037,0-.1.083.042.068,0,.035.13.05l-.08.075c.068.065.008,0,.065.091l.067.13c.066.1.16.089.26.112a.558.558,0,0,1-.063.208c.115.036.055.009.187-.017-.067.132-.047.023-.066.111l.135.05.02.01c.1.057.094.113.218.148-.064.155.049.073-.058.148.075.051.1.05.145.141l.022.065c.05.177-.035.048.085.14a.839.839,0,0,1,.065.054l.042.056.011.012.05.036.021.012c-.117.065-.062.087-.027.205s.028-.012.046.1c.012.076-.018.049-.016.164.131.077.126-.055.1.1s-.014.032-.127.133l.036.134c0,.007,0,.017,0,.024l-.008.047a.4.4,0,0,0,.184.041l-.022.075c.133,0,.069-.02.144.034-.084.107-.218.15-.3.261.083.03.087.023.145-.057a.784.784,0,0,0,.321.395.49.49,0,0,1-.171.343l.12.042c-.088.093-.041.023-.1.126s.027,0-.045.08c-.048.055.009.01-.074.056.017.028.062.031.089.107-.036.05-.085.141-.12.2.006.006.015,0,.019.015.023.072.059.033.1.112-.105.037-.05.011-.119.072l-.1.126c-.046.1.038.074-.065.225l.164.106-.1.226c-.033.169.09.14-.019.395-.042.1-.075-.056-.021.115.022.069.032.046.107.1-.14.071-.123.317-.048.443l.046.056.019.014.039.022c.058.04.047.019.024.079l-.027.054c.194.046.006-.006.094.064l.089.064c-.1.209-.008.066-.136.168.1.208-.174.335.142.366l-.08.048-.02.013-.12.083c.084.041-.1-.035.056.015l.1.037c-.085.082-.123.071-.2.127.162.024.155-.1.267.026.015.026-.1.125.006.249l-.174.167c-.031.074.048.192,0,.335-.041.116-.021-.057-.036.092a.635.635,0,0,0,.015.132c0,.094.011.063-.05.117l.059.04c.047.037.007-.006.041.038-.091.036-.08.032-.124.113.005.006.014.007.017.018s.028.03.033.037c.021.025.034.045.058.074l.114.107c-.005.167-.147.1.043.215l.093.059c-.043.106-.054.076-.123.167.08.095.188.108.281.168-.153.128-.051.264-.213.364-.067.041.013,0-.07.022l-.04.012c-.186.079-.117.134-.137.185-.156.035-.208.036-.264.146s-.006.164-.047.229c-.027.044-.017-.021-.054.073l-.061.14c.089.072.085.04.091.133,0,.066,0,.027.019.078.065.142.1.168.049.324.131.024.083-.012.143.074-.048.1,0,.011-.07.1l-.029.037-.013.018c-.069.1-.022.133,0,.253-.1-.048-.042-.048-.082-.046a.048.048,0,0,0-.008.024,1.349,1.349,0,0,0-.036.233l-.028.348c.019.061-.019.1,0,.194.035.171-.039.026.083.156-.077.03-.191.078-.187.162s-.01-.04.041.085l-.128.058s-.007.01-.009.012l-.02.022-.013.01a.647.647,0,0,1-.259.065c.035.217-.054.12.1.247-.084.088-.056-.018-.062.1-.007.143.032,0,.037.121l-.171.077c.005.005.015,0,.018.015l.068.069c.2.265.1.432.126.6a.986.986,0,0,1,.013.349c-.013.05-.019.005-.021.084l.14.049-.151.282c-.06.166,0,.1,0,.13,0,.091,0-.026-.068.127.169.069.082.172.143.316l.031.04a.459.459,0,0,0,.051.024c-.066.061-.062.039-.148.062a.229.229,0,0,0,.234.154,1.023,1.023,0,0,0,.017.2c.006.08-.045.066-.071.183.044.046.036.022.069.051a.594.594,0,0,1,.142.331c.025.164.019.046.105.162-.084.111-.076.037-.12.181l.165.024c-.034.126-.066.042-.079.166.067-.061.088-.089.186-.067.041.1-.042.066.02.141.033.039,0-.007.047.038-.318.181-.211.055-.479.145-.028.13.073-.068,0,.076-.032.066-.119.1-.173.14l-.013.008a.982.982,0,0,0-.294.216c-.044.059-.029.091-.1.146-.123.1-.066,0-.1.123l.262.162c.035.03.044.031.089.069l.074.107c.033.05-.022-.009.034.04l.093.059a.227.227,0,0,0,.115.037c-.067.185-.014.11.077.279l.111.115.017.013.017.014.067.051c.092.043-.013-.021.08.012-.018.115.032-.127,0,.053a.3.3,0,0,1-.1.141c.241-.053.062-.091.353-.044,0,.1-.072.145-.007.289l.009.019.034.056c-.035.041-.053.056-.088.1l.194.007c-.061.095-.107.136-.1.241.244.072.192.071.4.317-.057.165-.059.052-.1.166.17.05.03-.06.186.013.212.1.239,0,.4-.036a.461.461,0,0,0,.246-.1c.158-.179.142-.1.4-.079.1.009.149.007.208-.065,0,0,.007-.012.012-.018.131.1.227,0,.387-.033a1.461,1.461,0,0,1,1.006-.061l.053.008a1.03,1.03,0,0,0,.371.058c.174-.021.247-.1.411-.1a1.966,1.966,0,0,0,.405,0c.2-.049.274.032.5,0a1.943,1.943,0,0,1,.221-.018c.143,0,.064.016.177.09.052-.082.055-.143.187-.008a.479.479,0,0,0,.072.085c.075-.013.056-.045.156-.049s-.033.029.156.031c.143,0,.255-.112.435-.071l.248.026c.079.023.087.041.153.057.051.012.161.023.211.031.089.015.278.081.323.081s.057-.024.112-.025l.561.022c.161.049.033.067.265.07.211,0,.168-.023.357-.074l.331-.038c.054,0,.232.069.328.088.141.028.258,0,.419.024.261.044.349-.164.676-.182.265-.014.3.068.524-.026l.018-.007c.1-.043.094-.074.093-.172,0-.552.166-.023-.161-.741-.05-.11.059-.077,0-.271-.047-.163-.167-.266-.115-.425.066-.2.194-.2.126-.451s.05-.28.045-.335a.486.486,0,0,1-.146-.337l-.149-.081c.048-.081.043-.126,0-.244a.292.292,0,0,0-.149-.19c.038-.089.08-.135.017-.205l-.219-.125c.015-.025.225-.212.056-.417-.069-.084-.026.039-.02-.016.014-.1.082-.192.032-.33-.056-.155-.048,0-.224.054-.029-.054-.031-.081-.053-.119l-.044-.066a.635.635,0,0,1-.126-.194c-.051-.142.014-.024-.07-.08-.006-.151,0-.14.076-.226l-.123-.086.022-.254c-.085-.034,0,.018-.087-.009a.134.134,0,0,1-.106-.071s-.007-.014-.009-.019l-.023-.074c-.079-.213-.055.1-.033-.06-.026-.219,0,0,.012-.158,0-.07.071-.135.091-.217l0-.044c0-.006,0-.016,0-.023a1.154,1.154,0,0,1-.055-.256c.073-.119.113-.047.06-.219-.029-.093-.032.02-.028-.119,0-.181.112-.233.2-.33s.06-.1-.045-.122a.406.406,0,0,0,.133-.187c.051-.155,0-.111-.071-.141l.09-.184c.031-.108.033-.062-.018-.174.1-.054.028.049.1-.049a.231.231,0,0,0,.048-.073c.127-.238.15-.157.3-.359.1-.125.132-.294.219-.421l-.086-.231c-.245-.026-.092-.086-.239-.173.06-.086.064-.044.092-.153.018-.07,0-.018.05-.055l.041-.055a.589.589,0,0,0,.013-.521c.039-.032,0,.014.066-.037-.095-.06-.133-.1-.087-.227l.02-.116v-.014l0-.014c-.027-.139.017-.289-.05-.428-.08-.167-.2-.136-.166-.365.012-.088.035-.086.13-.116-.023-.153,0-.037-.07-.153.2-.042.158-.069.159-.1l-.007-.031c-.017-.111.006-.046.009-.167,0,0,.012,0,.014,0h.025c.037-.011-.017.063.04-.032.1-.158.11-.13.128-.141.052-.035-.008.015.026-.039.02-.031-.022,0,.029-.042a.427.427,0,0,1,.082-.043c-.067-.141-.094-.042-.037-.152.04-.076.053-.039.088-.15-.056-.077-.051-.037-.112-.123.1-.068.118-.146.2-.255.253-.349.309-.144.222-.618l0-.018a.35.35,0,0,1,.017-.24c-.045-.033-.046,0-.083-.041.133-.04.065.044.075-.089.014-.2-.049.006-.109-.244.121.053.063.055.142-.07-.05-.107-.059-.074-.112-.158-.069-.108.01-.047-.042-.2-.037-.105-.175-.131-.28-.282.013-.06,0-.027.071-.071l.047-.025c-.139-.039-.131-.052-.176-.189.125.068.171.037.229-.008l-.31-.075c0-.249-.129-.255-.168-.426a.133.133,0,0,1,0-.019l.017-.178c-.1-.024-.1-.047-.182-.1l.121-.072-.14-.084c.121-.2.1-.074.236-.2-.114-.072-.254-.1-.155-.185.053-.046.008.052.062-.061l0-.054c0-.077-.045.023.029-.116s.013-.2.2-.342c.072-.055.073-.027.148-.092-.079-.092-.118-.05-.262-.094l.094-.082c.137-.071.029-.059.155-.116.071-.032.071,0,.153-.056l-.19-.1c.172-.163.077-.126.109-.222.282-.135.188-.154.317-.371.06-.1-.016,0,.11-.068-.013-.131-.066-.2-.025-.3l.083-.087c-.257-.238-.15-.34-.133-.649a1.192,1.192,0,0,1,.042-.242c-.083-.014-.041.006-.086-.033a.17.17,0,0,1-.061-.16l-.052-.334c-.02-.08-.154-.16-.125-.255l.02-.048a.157.157,0,0,0,.012-.026L140,14.558c.039-.109-.056-.215.033-.274l-.156-.023s-.007.05.038-.029c.064-.112.014.092.014-.049,0-.161-.043.042-.021-.108.018-.126.068.039,0-.2-.028-.105,0-.077,0-.167,0,0,0-.012,0-.016l-.029-.182c0-.085-.008-.033.04-.055-.036-.241.024-.182.058-.306s-.059-.132-.067-.293c.049-.05.1-.09.141-.137a.255.255,0,0,1-.12-.054c0-.225,0-.231.135-.314-.023-.108-.017-.194-.119-.217a.626.626,0,0,1,.131-.222c.114-.142.041-.118.063-.183.177-.08.154-.056.259-.2l-.232-.083c.055-.177-.058-.088.011-.34-.115-.038-.113-.146-.331-.231l-.649-.472c-.034-.038-.137-.28-.276-.076-.1-.143.059-.1-.157-.108a1.418,1.418,0,0,1-.158-.012c-.185-.046,0,.006-.123-.064l-.323-.236c-.123-.078-.276-.049-.408-.11-.228-.106-.4-.006-.648-.2l-.271-.164c-.149-.072-.209-.061-.538-.227a1.99,1.99,0,0,0-.614-.105c-.132-.016-.108-.027-.253-.047l-.278-.088c-.3-.108-.571-.124-.793-.2-.2-.073,0-.068-.238-.133a3.617,3.617,0,0,1-1.075-.39c-.366-.244-.583-.17-.782-.287-.546-.319-.594.009-1.109-.139a1.685,1.685,0,0,0-.447-.039c-.1-.022.009-.011-.112-.069-.117.189-.263.028-.451.025-.09,0-.335-.076-.448-.068-.254.016-.317-.095-.482-.084-.219.013-.371.055-.5-.072-.1.041-.024-.036-.08.083-.066-.188-.032-.087-.119-.09-.06,0,.036.041-.089,0s-.072-.077-.16-.125a.456.456,0,0,1-.083-.038c-.084-.053-.063-.084-.153-.131-.184.026-.233.112-.442.037-.087-.032-.1-.045-.2-.076-.048-.016-.072-.021-.117-.036-.06-.022-.064-.029-.114-.043a.733.733,0,0,1-.322-.1l-.015-.013c-.059-.058-.058-.1-.152-.146s-.1-.06-.1.015c-.029-.069-.064-.075-.112-.127l-.147-.172c-.122-.082-.318-.021-.473-.063-.126-.035-.2-.15-.34-.185-.158-.042-.368-.009-.506-.091l-.036-.029c-.193-.143-.139-.041-.358-.267-.154-.159-.366-.164-.564-.241l-.093-.025c-.041,0,.019.011-.043,0s-.119-.048-.191-.067c-.115-.032-.049,0-.165-.017l-.574-.137c-.079-.014.024,0-.055,0-.175-.016-.11-.031-.164-.052-.1-.039-.032.019-.168.013s-.061-.03-.227-.021l-.182,0c-.5.031-.747-.082-.895-.041-.034.009-.034.02-.077.024l-.086-.013a3.277,3.277,0,0,1-.466-.02c-.185-.05.031,0-.117-.1-.3.063-.121.233-.674.173-.214-.023-.363.057-.545-.017-.068-.028-.091-.054-.163-.084l-.025.08a.046.046,0,0,1,0,.012c-.356-.108-.413-.25-.866-.212-.126.01-.1.043-.239.027l-.147-.005c-.1.019-.119-.045-.252-.063s-.121,0-.225-.093l-.15.1a.415.415,0,0,0-.076-.245c-.067-.072-.128-.016-.12-.166-.345.058-.264-.1-.48-.182l.006.08-.558-.029a.571.571,0,0,1-.5-.127c-.181-.15-.05-.093-.3-.159-.149-.038-.1-.069-.208-.089l-.534-.067-.019,0-.019,0c-.2-.048-.056-.089-.315-.078h-.02a2.06,2.06,0,0,1-.415-.1c-.1-.028-.158.015-.291-.1l-.339-.324a.182.182,0,0,0-.079-.048l-.238-.012-.022,0-.092.016c-.083.011,0-.059-.156.024-.131.07-.371.29-.641.116a1.14,1.14,0,0,0-.163-.1c.066.1.089.105.161.22-.38-.115-.238.005-.578-.14-.062-.027-.013.007-.073-.049-.349-.323-.418-.112-.588-.221l-.008.12-.389-.082c-.071-.013-.24-.112-.335-.087l-.188.02a2.08,2.08,0,0,0-.356-.14c-.159-.029-.256-.1-.4-.139s-.186.012-.245-.126c-.12.052-.264.138-.37.116a1.427,1.427,0,0,1-.425-.176l-.061.116c-.226-.068-.054.133-.345-.032-.127-.072-.169-.023-.334-.02a.47.47,0,0,1-.291-.072c-.12-.063-.077-.013-.151-.047-.109-.05-.023-.061-.137-.1-.085-.031-.072,0-.164.019l-.02.005-.637.048c-.241.036-.252.14-.521.024l-.662-.057a.738.738,0,0,1-.567-.118.9.9,0,0,0-.466-.217c-.218-.025-.1-.086-.294-.165s-.332-.026-.559-.189l-.1-.041-.023-.229-.137.056c-.005,0-.013-.024-.015-.018-.024.07-.025-.032-.031-.038a.309.309,0,0,0-.044-.05c-.068-.057-.007-.023-.125-.058a.572.572,0,0,1-.385-.237l-.013-.019c-.1-.118-.153-.039-.24-.2-.083.007-.054,0-.094.056-.075-.073-.038-.076-.165-.109-.093-.023-.092-.048-.2-.045l-.592-.016a.684.684,0,0,1-.361.011c-.136-.023-.073.016-.186.025-.057,0-.148-.015-.2-.013-.109,0-.1.029-.236.035-.08,0-.149-.012-.225-.006-.224.016-.02.051-.185.035-.143-.014-.43.022-.454.016C98.512,1.17,98.5,1,98.322.973c-.249,0,.079.064-.2.056A.808.808,0,0,1,98,1.009a.935.935,0,0,1-.375-.095c-.22-.1-.1-.022-.077-.1.031-.1-.024-.035-.1-.019a1.11,1.11,0,0,1-.5-.082C96.786.677,96.837.7,96.749.6l-.218.033c-.025-.048,0-.082-.007-.1-.444.04-.161-.056-.5-.042,0-.17,0,.009.074-.151-.171.015-.224.167-.629-.159L95.386.147C95.159.135,95,0,94.732.007c-.176,0-.105-.048-.328.077a2.6,2.6,0,0,1-.49.282c-.191.082-.25.247-.469.313l-.281.188a.837.837,0,0,1-.381.058A2.942,2.942,0,0,1,92,.916c-.424-.058-.542.149-.777.241a1.905,1.905,0,0,1-.423.076c-.082.016-.123.1-.225.1-.185.005,0,.11-.6.206A.8.8,0,0,0,89.8,1.6c-.093.033-.073,0-.157.046a.986.986,0,0,1-.823.022c-.091-.027-.075,0-.169-.012-.521-.04-.8.188-1.181.113l-.288-.029c-.085-.03-.046.05-.2.038-.132-.01.017-.044-.192-.008a2.625,2.625,0,0,1-.387,0c-.022,0,.055.012-.06.007-.02,0-.082-.013-.1-.014-.054-.005-.033-.014-.09,0l-.02.009L86.1,1.8l-.021.012c-.442.229-.039.142-.788.316a4.1,4.1,0,0,1-.437.105,1.281,1.281,0,0,0-.229.034c-.125.032-.073.012-.18-.019" transform="translate(-25.143 0)" fill="#0073af" fill-rule="evenodd"/>
      <rect id="Rectangle_32" data-name="Rectangle 32" width="138.654" height="1.858" transform="translate(0.7 70.181)" fill="#0073af"/>
      <path id="Path_29" data-name="Path 29" d="M2.78,100.7c0,2.869-.059,4.969-.178,6.211-.118,1.124-.384,1.538-.976,1.656-.3.059-.592.089-.887.118-.326,0-.562.089-.562.3s.178.3.592.3c1.006,0,4.23-.089,4.378-.089.266,0,3.4.089,5.442.089.444,0,.592-.118.592-.266,0-.237-.118-.325-.562-.325a11.018,11.018,0,0,1-1.3-.148c-.887-.177-1.094-.739-1.153-1.6-.148-1.243-.148-3.934-.148-6.241V89.4c0-.5.118-.68.355-.739a4.594,4.594,0,0,1,.8-.059,3.765,3.765,0,0,1,2.809,1.213,6.823,6.823,0,0,1,1.449,4.821c0,2.662-1.183,4.584-3.638,4.584-.532,0-.65.119-.65.3s.148.237.325.3a4.834,4.834,0,0,0,.917.089c4.082,0,8.252-2.455,8.252-7.01a5.381,5.381,0,0,0-1.6-3.934c-1.183-1.094-3.135-2.041-7.158-2.041-1.36,0-3.017.089-4.437.089-.5,0-3.52-.089-4.792-.089-.562,0-.65.118-.65.3s.148.3.532.3a7.552,7.552,0,0,1,1.124.118c.709.148.976.68,1.035,1.508.089.947.089,3.105.089,6.359Z" transform="translate(0 -43.887)" fill="#6e6f6e"/>
      <path id="Path_30" data-name="Path 30" d="M57.553,107.371c-5.088,0-7.424-5.353-7.424-10.943,0-7.01,3.047-8.519,5.768-8.519,5.235,0,7.276,5.591,7.276,10.5,0,8.163-3.786,8.962-5.62,8.962m-.888,1.893c7.749,0,12.423-5.265,12.423-12.156,0-6-4.7-11.032-12.216-11.032-8.7,0-12.659,5.767-12.659,11.683,0,5.236,3.726,11.506,12.452,11.506" transform="translate(-22.326 -43.465)" fill="#6e6f6e"/>
      <path id="Path_31" data-name="Path 31" d="M106.922,109.264a9.881,9.881,0,0,0,5.146-1.272,6.02,6.02,0,0,0,3.135-5.353c0-2.988-1.3-4.821-5.442-7.572l-1.509-1.005c-2.011-1.36-2.366-2.514-2.366-3.52,0-1.361.887-2.721,3.312-2.721a4.58,4.58,0,0,1,4.052,1.952,4.125,4.125,0,0,1,.532,1.716c.059.473.178.562.325.562.237,0,.326-.207.326-.74,0-2.632.059-3.224.118-4.17,0-.237-.089-.325-.385-.414a12.978,12.978,0,0,0-1.449-.354,16.312,16.312,0,0,0-3.4-.3c-4.732,0-7.542,2.75-7.542,6.151,0,2.6,1.005,4.674,4.614,7.217l1.834,1.272c2.514,1.715,2.75,2.751,2.75,3.993,0,1.272-.858,2.721-3.667,2.721a4.96,4.96,0,0,1-5.028-3.816,5.829,5.829,0,0,1-.148-.917c-.03-.237-.059-.5-.266-.5-.178,0-.3.178-.355.71a38.456,38.456,0,0,0-.177,4.348c0,.592.148.976.65,1.183a11.819,11.819,0,0,0,4.94.828" transform="translate(-51.168 -43.465)" fill="#6e6f6e"/>
      <path id="Path_32" data-name="Path 32" d="M139.063,100.3c-.089,0-.148-.059-.118-.148l2.514-6.33c.059-.148.118-.207.207,0l2.6,6.33c.03.059.03.148-.148.148Zm5.916,2.366a.248.248,0,0,1,.237.177l1.982,4.7c.089.266-.03.473-.355.533-.266.059-.414.177-.414.355s.177.266.65.266c1.893.03,5.265.089,8.163.089.562,0,.769-.089.769-.3,0-.177-.178-.3-.562-.3a5.924,5.924,0,0,1-.946-.118c-1.036-.148-1.686-.858-2.692-3.165-2.011-4.5-6.981-15.824-7.749-17.48-.5-1.065-.769-1.479-1.065-1.479-.325,0-.651.444-1.213,1.715l-7.9,17.865c-.621,1.42-1.213,2.337-2.248,2.544a8.349,8.349,0,0,1-.947.118c-.355,0-.562.059-.562.3,0,.178.177.3.592.3,1.479,0,3.431-.089,3.756-.089,1.568,0,2.574.089,3.9.089.385,0,.621-.059.621-.3,0-.148-.089-.3-.533-.3-.236-.03-.71-.059-1.035-.118-.621-.059-.887-.326-.887-.888a6.6,6.6,0,0,1,.473-1.893l.917-2.426c.059-.148.118-.207.266-.207Z" transform="translate(-65.71 -43.404)" fill="#6e6f6e"/>
      <path id="Path_33" data-name="Path 33" d="M189.795,95.016c0-2.4.059-4.525.03-5.531,0-.266.03-.414.266-.533a4.217,4.217,0,0,1,1.6-.237,8.318,8.318,0,0,1,6.8,3.224,11.576,11.576,0,0,1,2.218,6.773c0,2.78-.384,5.413-1.923,6.951a6.843,6.843,0,0,1-5.383,2.07,4.111,4.111,0,0,1-3.047-1.065c-.326-.325-.444-.917-.5-2.13-.03-.562-.059-2.6-.059-5.738ZM184.56,100.7c0,2.544-.059,4.644-.148,6.063-.089,1.154-.384,1.716-.976,1.8a7.809,7.809,0,0,1-.917.118c-.326,0-.562.089-.562.3,0,.148.089.3.592.3.828,0,1.213-.03,2.041-.059s1.538-.029,2.248-.029c.562,0,1.774.089,2.928.207.976.089,1.982.118,3.165.118,5.945,0,8.666-2.041,10.115-3.52a11.361,11.361,0,0,0,3.253-8.1,10.382,10.382,0,0,0-2.839-7.513c-2.692-2.75-6.655-3.4-11.713-3.431-2.485.03-3.816.059-4.792.059-1.3,0-4.023-.089-4.762-.089-.5,0-.68.089-.68.266,0,.148.118.3.562.326.562.059.858.059,1.095.089,1.124.118,1.272.917,1.331,1.775.059.947.059,1.775.059,6.123Z" transform="translate(-91.656 -43.887)" fill="#6e6f6e"/>
      <path id="Path_34" data-name="Path 34" d="M239.558,100.3c-.089,0-.148-.059-.118-.148l2.514-6.33c.059-.148.118-.207.207,0l2.6,6.33c.03.059.03.148-.148.148Zm5.916,2.366a.248.248,0,0,1,.237.177l1.982,4.7c.089.266-.03.473-.355.533-.266.059-.414.177-.414.355s.177.266.65.266c1.893.03,5.265.089,8.163.089.562,0,.769-.089.769-.3,0-.177-.178-.3-.562-.3a5.924,5.924,0,0,1-.946-.118c-1.036-.148-1.686-.858-2.692-3.165-2.011-4.5-6.981-15.824-7.749-17.48-.5-1.065-.769-1.479-1.065-1.479-.325,0-.651.444-1.213,1.715l-7.9,17.865c-.621,1.42-1.213,2.337-2.248,2.544a8.35,8.35,0,0,1-.947.118c-.355,0-.562.059-.562.3,0,.178.177.3.592.3,1.479,0,3.431-.089,3.756-.089,1.568,0,2.574.089,3.9.089.385,0,.621-.059.621-.3,0-.148-.089-.3-.533-.3-.237-.03-.71-.059-1.035-.118-.621-.059-.887-.326-.887-.888a6.6,6.6,0,0,1,.473-1.893l.917-2.426c.059-.148.118-.207.266-.207Z" transform="translate(-116.456 -43.404)" fill="#6e6f6e"/>
    </g>
  </g>
</svg>
