<svg xmlns="http://www.w3.org/2000/svg" xmlns:xlink="http://www.w3.org/1999/xlink" width="403.146" height="155.356" viewBox="0 0 403.146 155.356">
  <defs>
    <clipPath id="clip-path">
      <rect id="Rectangle_6" data-name="Rectangle 6" width="403.146" height="155.356" fill="#006bb1"/>
    </clipPath>
  </defs>
  <g id="Group_7" data-name="Group 7" transform="translate(0 0)">
    <g id="Group_6" data-name="Group 6" transform="translate(0 0)" clip-path="url(#clip-path)">
      <path id="Path_16" data-name="Path 16" d="M153.9,9.974c-.565.394-.035.259-.556.422-.279.088-.3-.022-.732.051.174.486.213.051.33.534l-3.549.172a1.489,1.489,0,0,1-.77-.523l-1.135.387c-.013.007-.044.031-.059.04l-.534.295.717.363-1.179.372c-.009.532-.132.288.189.49-1.146.121-.873.734-1.5,1.185l-.286.139c-.031.018-.07.031-.1.051-.361.218-.319.3-.561.556l-1.4,1.016c-.919.543-2.245.224-2.951,1.154-.013-.02-.029-.09-.033-.07s-.033-.055-.042-.062l-.286-.161c-.33.317-.292.215-.671.33l-.468.1c-1.394-.022-.237-.275-1.368.358-.4.222-.286.106-.589.2-.5.156-.3.15-.594.341s-1.506.35-2.239.693c-.04.018-.246.123-.281.136l-.4.026c-.915-.077-2.122.134-3.085.156-.541.011-.99-.11-1.715-.095-2.654.057-1.412-.035-2.335-.117-.761-.068.416.055-.73.235-.572.09-.994-.108-1.781.013-1.478.226-2.4-.268-4.07.394a5,5,0,0,0-.741.44,1.777,1.777,0,0,1-.913.169c-.108.007-.444.02-.53.037-.66.136.117-.046-.4.158-.029.011-.026.051-.317.112a3.651,3.651,0,0,1-.532.048c-.528.057-.486.121-.976.2-.156-.253-.147.092.022-.275l.145-.235a2.918,2.918,0,0,1-.717.15c-.631.046-1,.334-1.834.372-.642.029-1.066-.141-1.432-.117-.666.044-.314.314-1.194.191a2.939,2.939,0,0,0-1.313-.031,4.328,4.328,0,0,1-1.258-.04c-.708-.163-.576-.453-1.165-.226-.825.319,0,.374-.974-.077l-.215.484-3.516.347c-.93.145-.614-.237-1.57-.226l-.647-.068c-.176,0-.614.11-.979.139-.614.048-1.28.024-1.966.042-.818.022-1.251-.143-1.981-.176-.051,0-.213-.009-.262-.013s-.079-.009-.117-.011l-.732.119a12.17,12.17,0,0,1-1.77.18c-.211.466.1.442-.435.622a2.616,2.616,0,0,0-1.058.453c-.022.268,1.02-.237-.363.833.194.9.449.719-.954,1.163a12.385,12.385,0,0,1-4.3.57,6.622,6.622,0,0,0-1.709.347c-1.187.242-2.542.11-3.659.785-.871.528-2.054,1.394-3.309,1.324a16.046,16.046,0,0,0-3.037.365c-.9.121.279-.088-.567.319-.521.251-1.357.251-2,.488a4,4,0,0,1-.807.325c-.358.086-.807.13-1.157.213-.913.222-.952.55-1.632.792a4.758,4.758,0,0,0-.631.187l-.946.57c-.026.013-.066.031-.09.044l-.242.09c-.018,0-.057.013-.075.02-.433.139-.306.152-.719.367a1.71,1.71,0,0,1-.825.108c-.981-.161-.194.092-.631-.51l-.7.493c-.1.026-.695.077-.968.128l-.053-.125-.02-.062c-.169-.539.136.187-.044-.161-.411.442-.114.35-.666.378a15.518,15.518,0,0,0-4.273.565l-4.163.767c-.253.062-.809.292-.939.314-.528.095-.3-.117-.926-.024-.468.068-.128-.037-.424.172-.259.183-1.286,1.412-1.781.761-.215.666.312-.158-.1.464-.695.117-.979-.1-1.33.132-.277.185-.172.2-.064.33.216.259.046.018.4.015-.449.246-1.007.5-1.456.22-.163.2-.134.4-.365.556s-.268.04-.677.222l-2.507.444c-1.141.117-.959-.084-1.629-.229a6.706,6.706,0,0,0-1.711.11,8.872,8.872,0,0,1-1.335-.134l-.2,0c-.7-.09-.482.385-1.115.376-.391-.007-.424-.233-.765-.4-1.5,1-1.163.347-1.544-.035a3.013,3.013,0,0,0-.385.5c-1.275-.424-1.128-.037-2.432-.154a7.449,7.449,0,0,0-2.982.064c-.607.317-.2.174-1.034.3-.638.1-1.075.242-1.55.347-.708.158-.723-.044-1.484.18-.6.176-.666.152-1.168.281.292-.3.321-.251.183-.449l-1.2.477a.8.8,0,0,0-.136.13c-.391.314-1.2.495-1.592.862-.655.616-1.315.581-1.6.97-.523.719-.075.864-1.185,1.333-1.185.5-.323.449-2.036.477a2.41,2.41,0,0,0-.91.222,15.182,15.182,0,0,1-2.366,1.4c-.761.117-1.486-.246-1.563.838l-1.709-.141c-.33.029-.143.018-.233.046-1.225.376-1.55-.07-3.582.288a6.365,6.365,0,0,1-1.693.264c-.526-.04-.585.156-.992.42-.614.4-1.475.341-.963,1.014l1.282,1.931c.35.354.493.468,1.009.336l-.13.207c-.462.838.279-.6-.1.189a2.4,2.4,0,0,0-.114.314c.394-.031.161-.04.671-.185.139.572.136.18.323.679.013.033.022.07.035.108s.018.075.031.114c.057.18-.02.07.1.343l.27.385.037.066c.46.842,1.128.985,1.612,2.645.187.64.07.134.251.62a5.766,5.766,0,0,1,.352,1.889l-.512,1.48c-.064.226.02.387.048.745-.565.35-1.062.618-1.238,1.313l-.024.15c-.075.675-.1-.035.174.624-.33.451-.794.57-.095,1.5l.9.767c.024.018.053.048.077.066,1.192.895.631.2,1.267,1.256a3.868,3.868,0,0,0,.295.416l.194.391c.009.022.013.066.02.088s.015.068.024.092l.07.178c.163.369.336.158-.064.486a4.814,4.814,0,0,1,.64.319c-.611.178-.169.128-.224.35-.088.361-.136.154-.367.62.022.011.062-.013.073.011l.361-.044c-.106.455.024.673-.086,1.016-.378,1.185-.145.635-.066,1.35l-.64.537.552.451.051.024c-.358.306-.4.789-.677,1.172.4.211.086-.141.453.246l-.264.695a1.888,1.888,0,0,1,.532,1.135c.059.69.44,1.225.134,1.843-.286.578-.211.095-.233.424-.068,1.082.431.288-.378,1.256.46.422.062,1.392.482,2.755-.024.018-.075.007-.081.042-.073.332-.055.031-.152.068-.75.292.343-.251-.185.062.015.618.748,1.423.081,1.7-.486.2.15,0-.209,0-.251,0,.121-.2-.2,0,.209.433.361.581.246,1.11A2.137,2.137,0,0,0,7.6,84.215c-.477.572-.334.376-.165,1.282.178.95.15.609.891.917-.114.2-.347.5-.409.651a.911.911,0,0,0-.051.347c.189.633-.572-.427.226.251.013.011.055.033.081.053l-.512.222c.233.618.427.712.4,1.4-.042.855.259.347.455,1.286a2.12,2.12,0,0,1-.158,1.108l-1.062,1.7c-.759.814-.264.161-.3.745l-.141.8a6.8,6.8,0,0,0,.741,0c-.145.526.059.554-.1.877,0,.007-.088,0-.226.292l.728.926A1.768,1.768,0,0,0,7.6,98.2l.49-.031L7.6,99.234c-.007.391-.822.5-1.179.532l-.246.974c0,.029,0,.07,0,.1-.119,1.568-.49.893-.666.833-.2,1.753-.321.831-.631,1.55l.077.328a.679.679,0,0,0,.064.055c-.664.3-.319-.084-.468.409l-.165.759c.638.112-.139-.174.3-.022.068.979-.521,1.887-.1,2.716l.561.895c.288.323.183-.128.365.418.121.361-.026.455-.059.855.416-.222.455-.191.745.024a3.045,3.045,0,0,1,.985,1.308c.288.6.262-.1-.009.8.431.121.745.257.55.838-.081.242-.084.139-.27.354.734.715-.22.4.559.891-.2.222.026.024-.266.194-.112.066-.222.09-.383.183l-.125,1.618c.035.169.512.156-.108.8l-.741.88c.235.112.372-.018.82.073.1.719-.057.466-.1.706-.026.158-.075-.029-.011.231l.123.218a.5.5,0,0,1,.057.075l-.743.246c.22-.145.3.435.295.618l.259.592c-.435.532-.18.323-.24.979-.057.609-.1.172-.387.8.686,1.009-.385-.306.117,1.1.389,1.086-.284.389.418,1.462l-.438.424c-.02.055.4-.079-.277.453.35.268.213.147.422.556l-.325.609c.172.462.174.079.306.631.2.851-.022.484.517.825l-.737.3c-.04.664.1.438-.235.9-.438.609-.2-.066-.3.748-.095.792-.893.638,0,1.651-.253.462-.552.5-.567,1.163l1.28.323c-.215.354-.5.354-.187.814l.4.319a2.9,2.9,0,0,1,.438.363c-.754.981-.172.979-.306,1.44l-.453,2.17c-.09,1.084-.007.543-.444,1.449-.277.576-.211.853-.6,1.311a3.013,3.013,0,0,0-.273.372c.152.644.213.394.264.853.029.253.174.1.09.631l-.792,1.308c-.273.548-.018.508-.71.939.3.281.528.394.816.682-.471.376-.218.4-.657.776-.946.8-1.066.246-1.614,1.68l-.066.134A2.082,2.082,0,0,0,2.3,149.5c.046.352.3.488.537,1.007,1.352.189,2.041.653,3.481.611.862.99.717.442,2.234.741a5.632,5.632,0,0,0,2.3-.073c.8-.136,1.082.042,1.764-.07.473-.079,1.478-.119,1.7-.156.51-.084.169-.152.715-.209.816-.084.3.145.836.1l.389-.132c.033-.013.128-.044.161-.057l.156-.057c.02-.007.059-.024.079-.029l.5-.035c.343,0,.776-.095.908-.079.561.07.053.13.4.46.167-.545.169-.367.95-.246,1.4.216,2.223-.11,2.738.394.33.323-.13-.079.22.376.574-.262.794-.154,1.363.1.515.235.625.578,1.24.345,1.308-.5.123-.646,1.7.044.031.013.07.024.1.035.431.172.218-.132.66.413l.255-.231c.336-.292-.156-.024.334-.27.607.442.141.062.479.506.363.479.169.156.695.5.024-.022.046-.1.057-.077l.475-.363c.512-.29.066.215.512-.433a2.774,2.774,0,0,1,.433.7c2.041-.158,1.7.4,2.621.422.708.015,1.086-.284,1.937-.112a13.515,13.515,0,0,0,3.155-.007c.482-.183.473-.431.816-.442.721-.024.35-.367,1.025-.207.517.123.1.125.723.31.033-.022.059-.117.075-.09l.33-.275c.675-.174-.638.092.358.011.029,0,.11-.026.136-.029.372-.033.251.152.563-.011a9.442,9.442,0,0,1,1.552-.541c.123.194-.064.123-.073.649.772-.051,2.524-.884,3.349-.581-.119.453-.583-.275-.154.455.772-.2.119-.354,1.084-.389.523-.018.814.154,1.467.141.189-.537.756-2.2,1.253-2.463.7-.365,1.366.084,2.186.081-.57-.46-1.465-.31-2.135-.574.057-.477.189.053.161-.583-.024-.517.064.07-.244-.495,1.282.11-.139.479,1.911-.2.084,1.1-.383.6-.594,1.311l.8-.2.347-1.256c.169-.635-.248-.369.334-1.036.449-.51,1.143-1.372.6-1.994.336-.26.888-.264.361-1.348-.457-.941-.756-.1-.851-1.106-.424.464.018.275-.53.4-.6-.519-.288-.354-.1-.882-.891-.49-.2-1.055-1.475-1.205.081-.635.132-.123.226-.712l-.75.286,1.289-2.074a7.282,7.282,0,0,0,.825-1.777c.1-.27.3-.561.4-.831.328-.928-.231-.407-.1-2.107-.963-.446-.308-.695-.827-1.262-.317-.347-.1.189-.121-.3a3.421,3.421,0,0,1,.026-1.091c.257-.592.532-.1.471-1.185l-.723-.11a2.72,2.72,0,0,0,.174-1.377c-.055-.453-.1-.167.176-.671-.675-.4-.493-.319-.734-1.183-.176-.629-.233-.642-.825-.926.5-.11.495-.594.556-1.1a3.355,3.355,0,0,1-.462-.211c-.336-.222-.244-.715-.123-1.238l-.952-.726c.328-.427.858-.585,1.13-1.053a1.456,1.456,0,0,0,.246-.675l.092-.387c.224-.655-.15-.715-.506-1.414l-.614-1.508.508-.444c-.262-.427-.3-.262-.262-.592.037-.3.145-.29.172-.33l.046-.066.1-.139c-.02-.029-.07-.1-.079-.075-.044.139-.486-.675-.339-1.073.154-.413.528-.372.464-.787l-.248-.391a1.606,1.606,0,0,0,.682-.347l-.693-.6a1.378,1.378,0,0,0,.4-.752l.037-.143c.108-.3.059-.194.394-.361-.013-.431-.055-.363-.209-.728a.833.833,0,0,0,.737-.4c-.055-.332-.416-.394-.224-1.218.407-1.733-.09-1.55.761-2.463l.3-.5c.079-.106-.224-.213.833-.264-.613-1.014.255-.761.114-1.81a2.724,2.724,0,0,0-.387-.134c-.383-.165-.1.051-.38-.2.312-.941-.108-.957.011-1.979a1.351,1.351,0,0,1-1.071.2,1.063,1.063,0,0,0,.292-.979l-.1-.385c-.024-.532-.042.046.191-.62-.622-.1-.4.27-.592-.638-.112-.545.046-.451-.112-.957a3.968,3.968,0,0,1,.048-2.032c-.556.013-.306.066-.688.218-.5-.515-.38.064-.259-.759-.3.152-.284.224-.662.059.317-.633.095-1.049.3-1.425l-.134.013-.073.015c-.119.033-.224.084-.343.125-.044-.635-.053-.5.321-.838-.257-.345-.33-.561-.693-.752a13.6,13.6,0,0,0,1.17-.932l.284-.268c.336-.286.655-.411.8-.9.191-.649-.066-1.17.255-1.856a2.764,2.764,0,0,0,.347-.73c.139-.534,0-.5.139-.963l-.356-.128c.02-1.779.172-.585-.24-1.251.545-.18.679-.31,1.108-.433l-.191-.112c-.354-.229-.264-.193-.339-.532l-.044-.147c-.011-.029-.064-.11-.073-.139-.09-.273.31-.84.506-1.682.136-.585.673-.761.578-1.8-.029-.3-.066.024.141-.229l.051-.066.284-.787a.741.741,0,0,1-.059-.092L53.714,78.8a1.646,1.646,0,0,1,.361-.842L53.9,77.7c-.011-.018-.042-.068-.053-.084a.637.637,0,0,1-.055-.092c.622-.308.042.022.486-.629a7.209,7.209,0,0,1,.51-.6,15.537,15.537,0,0,0,1.656-3.578l-.132-.374c-.013-.02-.042-.053-.055-.07-.1-.139-.435-.015.026-.8l.369-.745.053-.081.383-.592c.18-.429.378-.581.325-1.165L57.2,67.664l.614-.27c-.2-.35-.264-.086-.143-.477a5.256,5.256,0,0,0,1.819-1.062l.141-.147c.022-.02.048-.051.073-.07.367-.323.369-.194.708-.42.161-.11.112-.081.183-.169.295-.369-.125.037.139-.253.323-.354,1.607-.526,2.362-1.445.508-.62,1.7-.774,2.362-1.605.341-.429.963-1.931,1.546-2.071.015,0,.064-.011.079-.015l.084-.013a1.681,1.681,0,0,0-.574-2.661c.044-.622.09-.284.284-.864-.948.244-.915-.22-1.651-.576-.037-1.042-.1-.468.306-1.256-.02-.011-.062-.042-.066-.02s-.057-.018-.068-.02l-.754-.242c.4-.147.422-.114.664-.457-.125-.295-.079-.194-.341-.449l.992-.284a1.8,1.8,0,0,0,.11-.836l.248.163c.259.084.073.044.343.053.286-.6-.136-.229.893-.688.248-.112.031,0,.2-.11.317-.2-.132-.095.255-.169.466-.088.334.075.422.42.446-.616-.079-.682.519-.132.073.066.031.858.86-.266a6.732,6.732,0,0,0,2.076.161c-.6-.583-.614.059-.638-.585l.653.2c.369-.022.1-.11.662-.2.741-.119.6.262.952-.633a13.208,13.208,0,0,0,2.071-.27c.037-.011.139-.037.172-.051s.057-.022.077-.029.055-.026.075-.033l.891.029c.145-.488,0-.457.539-.62-.1.4.059-.064-.15.2-.167.209-.121-.011-.246.308l.745.077c.213-.495-.367-.062.1-.57.092-.1.141-.257.611.158.2-1.056,1.555-.358,2.663-.952l1.264-.732a3.941,3.941,0,0,0,1.465-.7c.743.2-.429.051.438.229.466-.567-.189-.657.523-.774l.719.123a1.1,1.1,0,0,0,.227.022c.86.062,1.541-.545,2.643-.613l.279.479.29-.156c1.273-.708.413-.134,2.309-.69-.132.8-.007-.011.13.785a2.881,2.881,0,0,1,3.166-.479,9.286,9.286,0,0,0,1.658-.139c.737.231.031.042.231.178a2.854,2.854,0,0,0,1.333.286c.73-.092-.2-.108.783-.325a11.723,11.723,0,0,1,1.928-.545c.624-.031.332.123.825.257.748.207,1.8-.679,2.052.33.022-.029.053-.11.07-.084s.1-.11.163-.143c.31-.158.7.029,1.04.264l.092-.484a.3.3,0,0,1,.007-.07c.51.022.457.106.974.257.765.224.435,0,.844.022a10.009,10.009,0,0,0,.981.262c.9.11.422-.119.968-.147a5.472,5.472,0,0,1,1.942.1c.891.233.479.059,1.082.033s.347.207.9.226c-.106-.385-.026-.2-.314-.422.69-.211.167.029.917.011,1.6-.035,1.262-.7,3.683.589a9.863,9.863,0,0,0,2.379,1.018,31.8,31.8,0,0,0,3.562,1.146,6.242,6.242,0,0,1,3.129,1.328l.095-.29c.1-.231-.1-.066.143-.253a26.022,26.022,0,0,0,1.6,3.765c.572,1.465,1.467,1.805,1.533,3.158a2.032,2.032,0,0,0,.112.594l.627-.02c-.077.917-.286.358.273,1.187s.163.433.895.594a3.6,3.6,0,0,0,.055,1.093c.02.688-.187.233.341.994-.042.022-.211.086-.24.1-.253.152-.145.02-.323.244l.38.317-.449.345c.383.354.242.057.213.706.029-.022.07-.1.086-.073s.112-.09.165-.13c.156-.119,0-.057.253-.183.044.8-.528.147-.145,1.192a7.5,7.5,0,0,0,.723,1.168c.378.69.117,2.692,1.533,2a1.062,1.062,0,0,0-.2.7l.585-.077c-.341.422-.407.037-.073.8a1.523,1.523,0,0,0,.761.818,7.6,7.6,0,0,1,1.33.836c-.629,1.722-.15,1.6-.145,1.605.077.106.136-.04.2.356s-.112.53-.2.765c-.158.44-.077.9-.218,1.348a4.428,4.428,0,0,0,.018,1.359,3.758,3.758,0,0,1,1.922,1.684l.226.35a1.466,1.466,0,0,0,.5.227c.066.688-.077.53.163,1.163.123.328.1-.024.128.367.046.583-.081-.062-.218.776a1.05,1.05,0,0,0,.15.882c.3.073-.092.073.418-.156a8.336,8.336,0,0,0,.644,3.015l.042.554c.024.761.112.352-.22,1.141-.279.666.4,1.39.477,2.1.046.416-.09.143.119.559a2.35,2.35,0,0,0,.811.726l1.645,2.032a3.54,3.54,0,0,1,.482.926c.15.624.009.242.457.695.213.216.07-.035.3.427.211.438.084.2.15.473.011.037.024.145.035.18.165.545.165.128.389.684l-.328.818a1.842,1.842,0,0,1,.46,1.858c-.007.024-.024.066-.029.09-.046.218-.042-.022-.035.24l.152.559.035.084c.275.739-.376,1.706-.73,2.412-.033.064-.141.24-.147.255a2.152,2.152,0,0,0-.075,1.258c-.629.651-.268.2-.673.987-.295.572-.466.424-.972.844a1.441,1.441,0,0,0,.308,1.066l-.537.174c.314.684.059.275-.224.968l-.262,2.252s.345.5.358.506l.576.244c.572.387.13.462.125.565l.249.675c.009.022.018.062.026.084l.279.51a4.806,4.806,0,0,1,.739,1.13.932.932,0,0,0,.183.24c.185.189.22.066.453.4a3.028,3.028,0,0,1,.213.976c.092,1.08-.717.992-.336,2.184.207.651.062.732.255,1.418.2.466.809.253.842,1.374.026.814.3.512-.1,1.229l1.28.882c.09.644-.174.831-.233,1.3-.044.35-.042.688-.508.871-.22.086-.55-.084-.888.323-.4.479.035.394-.726,1.049a1.583,1.583,0,0,1,.471.946c-.013.759.007.136-.141.422-.18.356-.7.229.38,1.194l-.994.2a1.119,1.119,0,0,0,.3,1.374c-.018.033-.055.042-.064.1s-.1.158-.123.191a5.557,5.557,0,0,0-.55,2.109c-.053.609-.319.688-.343,1.157-.035.69.229.679.53.743-.026.024-.077.018-.086.062-.051.27.033-.075-.154.123l-.583,1.24c-.068.814.44.231.411.946s-.158.145-.152.523l.011.046a.434.434,0,0,0,.022.046c.073.2.345.092-.246.662-.018.018-.059.048-.086.075.248.73.336.416.066,1.069a.975.975,0,0,0,.088,1.154c-.675.339-.387.952-2.342,1.634.4.152.387.222.574.609-1.357,1.847-.422,1.17-.871,1.95-.416.723-1.077,1-1.183,1.986.508.194.2-.528.57.169a2.156,2.156,0,0,0,.728,1.511c.286.238.325-.312.464.8l.493-.033c-.132.587-.495.438-.277,1.11.325,1-.123.915-.44,1.772.706.345.677-.079.642,1.066a2.119,2.119,0,0,0,.286-.112c.352-.106-.04-.143.257-.044.029.93,0,.176-.418.873.02.033.057.04.068.092l.117.182c.2.455-.306.6.559.985.462.2.275-.215.473.332,0,0-.174-.451-.317.163.446.246,1.315.165,1.53.314.334.512-.04.125.176.495,1.68.086,1.22.143,3.107-.552.948-.347,1.324-.193,2.087-.438l.91-.369c.847-.147-.064.088.789,0,.554-.059.18-.121.838-.2l1.572-.3c.015-.015.044-.046.062-.062l2.632-.587a1.329,1.329,0,0,1,.565-.9l-.64-.345c-.035-.849.24-.948.317-1.559.1-.792-.376-.631-.633-1.249.442-.633.908-.908,1.231-1.355a1.675,1.675,0,0,0-.3-.539l-.6-.233c.013-.033.037-.117.051-.1l.574-.607c-.369-.515-.625-.33-.743-.838-.084-.341-.037-.222.042-.462a2.412,2.412,0,0,1,.378-.629c.132-.372-.053-.411-.073-.875a2,2,0,0,0,.519-1.873c.869-.466.728-.238.913-1.317.169-.981.5-1.264.336-2.265l-.114-1.548s-.02-.24-.02-.264c0-.189-.275.125.059-.176l.317-.147c-.66-.435-.528-.968-1.1-1.4l-.257-.18c.8-1.119.246-1,1.552-2.034-.029-.026-.07-.106-.084-.079l-.356-.226c-.029.02-.068.024-.075.07l-.53.688a1.034,1.034,0,0,1-.693-.752c-.312-.882.46-.068-.07-1.049a.8.8,0,0,0,.759.249,2.78,2.78,0,0,1-.477-1.361c-.051-.567.231-.537-.114-1.286-.139-.3-.033-.2-.191-.51.2-.2-.121-.134.495-.22-.2-.528-.1-.8-.325-1.286a1.055,1.055,0,0,1,.387-1.284c-.871-.932-.128-.5-.752-1.7.046.007.2.055.231.057.613.062.418.022.462-.2l.183-.895-.631-.172c.339-.671-.055-.679.1-1.326.13-.534.281-.662.106-1.152-.015-.046-.07-.176-.088-.22a1.566,1.566,0,0,0-.3-.548,4.412,4.412,0,0,0-.752-.95l-.6-.358a7.325,7.325,0,0,1,.134-.932c.141-.545.288.015.042-.774-.268-.858-.073-.556.02-1.5a9.743,9.743,0,0,0-.095-1.819l.015-.376c.009-.3.064-.086-.015-.479-.119-.57-.2-.314-.444-.809.3-.211.378-.319.715-.545l-.548-.183c.066-.679-.123-1.029.24-1.539.484-.677.488-.809.295-1.306a.841.841,0,0,1-.114-.35,2.165,2.165,0,0,1,.024-.341l.519-1.994c-.009-.2-.015-.119-.125-.4l.657-.18-.666-.224c.314-.574.717-.286.018-.671l1.194-1.7c-.7-.15.394.165-.611.117.22-.433.3-.431-.033-.717l.246-.295c-.229-.259-.112.015-.237-.347.574-.1.372.123.6-.717-.614-.336.079.048-.51.037l.712-.994.035-.073c.253-.515.215-.409,0-1.007,1.363-.015.009.255.921.189a.878.878,0,0,0,.279-.609c-.015-.554-.708-.627-.827-1.108a5.131,5.131,0,0,0-.024-1.029l.176.176c.378.277.22-.581.358-.992-.451-.332.519.244-.284-.1-.354-.152.189.136-.189-.081-.444-.253-.013-.292-.71-.545.411-.33.31-.6-.165-.972l-.266-.18a1.1,1.1,0,0,0,.251-.213l.015-.123c.035-.77-.015-.112.2-.787-.695.007-.339-.007-.53-.161s0-.007-.187-.237l-.117-.158a.519.519,0,0,0-.062-.075c.737-.655.134-.532.5-.915l.211-.1a.314.314,0,0,0,.084-.022c-.022-.029-.073-.1-.079-.079s-.064-.062-.077-.077-.108-.114-.125-.141c-.178-.3.15-.528-.224-.721-.013-.007-.057-.018-.07-.022s-.055-.011-.066-.013l-.128-.011a2.9,2.9,0,0,1,.627-.466c-.143-.211,0-.033-.191-.227l-.7-.952c.343-.141.145.026.224-.361.763.046.673.391,1.066-.172a3.024,3.024,0,0,0-1.154-.607l.077-1.242c.125-1.15.915-1.26,1.11-1.68.312-.666-.095.073.1-.306l.264-.308c.022-.018.075-.042.095-.055s.068-.031.1-.051l-.194-.666a3.81,3.81,0,0,0,.539-.229c.618-.325.174-.079.215-.257.013-.059-.215.211.121-.31,0,0,.141-.187.176-.242l.6-.939c.312-.611-.191-.84.748-1.157-.539-.422-.035-.752.281-.93l.8-.888c.244-.33-.132-.02.341-.372.1-.075.367-.2.453-.251-.2-.814.363-.618-.548-.882.341-.275.248-.068.609-.312a.846.846,0,0,1-.292-.088.605.605,0,0,1-.233-.174c.183-.424.147-.994.365-1.57l-.473.088c.165-.5.534-.866.737-1.359.387-.937.1-.743.928-1.293.9-.594.814-.389.774-1.1-.048-.882.548-.227.345-1.636a2.44,2.44,0,0,0,2-1.315c-.363-.611-.35-.086-.576-.668l1.062-.763c-.237-.721.442.578-.141-.178-.235-.306-.194-.222.095-.528.517-.548.141.081.378-.84.095-.367.1-.625.464-.673l.774-.218a3.449,3.449,0,0,0,1.931-1.882l.068-.438c0-.013-.011-.053-.011-.068s-.013-.053-.013-.066-.035-.024,0-.2c.046-.224.259.167.141-.356-.339-.844-1.335-.2-1.847-.869l.53-.09c.053-.5-.062-.609.178-.979.29.161-.169-.02.229.1.3.092.033.172.31.033.141-.968-.409-1.238-.376-2.214.015-.013.053-.035.059-.018l.187-.051c.55-.235-.064-.563-.339-.906a3.851,3.851,0,0,0,1.249-1.124,1.81,1.81,0,0,0,.158-.2,2.488,2.488,0,0,1,.7-.882l.376-.187c.587-.3.653-.466,1.368-.262l.211-.728c.141.3.013.383.488.189a.4.4,0,0,1,.053-.029l.715-.363c.319-.378.068-.3.585-.554-.092-.387,0,.037,0,.042l.231.323.33-.723.8.207c.372-.616,2.052-2.632,3.153-1.59.666-1.047.4-.248,1.121-.653.5-.339-.068-.62.952-1.075,2.137-.952.814-.422,2.344-.55.38-.033.708.275.948-.13.33-.563.172-.123-.2-.534.222.07-.009.1.235,0,.015-.007.057-.024.073-.033l.139-.117c.022-.018.046-.057.066-.077a1.4,1.4,0,0,1,.515-.4l1.088-.523.671.409.3-1.058.708.387c.042-.057.066-.145.079-.121l.275-.288c.4-.2,0-.231.418.114-.009-.528-.117-.435.244-.6.3.394.059.325.237.785.33-.158.306-.372.51-.706.512.24.341.068.752.46,0,0,.273-.154.281-.161.11-.055.176-.079.281-.134a3.143,3.143,0,0,0,.281-.154l.314-.2a.76.76,0,0,1,.112-.073c.24.451.136.407.7.572.066-.466-.187,0-.009-.356.2-.407,0,.5.3-.453.229.3.3.543.754.46.675-.125.251-.284.836-.253.413.022.354-.108.9-.013.891.152,1.271.776,2,.926.8.165.965.642,1.794.484l.231.631c.391-.462.156-.1.741.2l.908.948a.579.579,0,0,1,.587-.051l.218.092c.226-.033,0-.064.552,0a1.622,1.622,0,0,0,.391.02l.383.044.057.009.161.024.064.013c1.181.229,1.871-.618,3.765-.354.117.015.649.143.893.165.8.07.877-.279,1.662-.185l.073.013,1.711-.145.044-.031c.009,0,.04-.029.051-.033.719-.284.259-.11.886.139.136-.363,0-.295.38-.367l.82-.029c5.163.1,3.217.88,5.08,1.187-.343-.457-.365-.079-.611-.642.657.152.259.264.972.264-.594.178-.295.167-.422.383,1.4-.292,2.876.825,3.512.629.176.57-.317.119.926.693.776.358.488.268,1.445.288,0,.75.369.429,1.185.589l.71.174c.35.167-.172.213.789.308l-.387.543a4.269,4.269,0,0,1,.943-.084c.211.066.033-.009.222.2.018.018.044.055.059.073l.215.229c.8-.207.446-.336,1.082-.548a1.815,1.815,0,0,1,.251.207c.435.435.117.6.752.655.488.04.358.167.633.132a2.7,2.7,0,0,1,.534-.117c-.187.242-.15.29.059.5l.077.066.906.941c.785.279.543-.013,1.355.506l.99.8c.741.833.567.446.983,1.146.341.572-.158-.2.369.367.453.495.242.07-.037.629,1.108-.44,1.115,1.143,1.632,1.592.693.6,2.37,1.37,2.074,2.465l.877.462c.913.484.506,1.348,1.632,2.509a2.691,2.691,0,0,0,.618.493c.829.581.132.583,1.22,1.15a2.289,2.289,0,0,1,1.11,1.15c.244.561.543.666.756,1.19s.482.435.752,1.434a2.468,2.468,0,0,0,.93,1.484c-.015.037-.053.048-.059.11s-.044.081-.055.11-.04.075-.051.11l-.1,1.1c-.075.607-.345.807-.471,1.346.035.015.092-.011.114.035.081.174.325.086.512.2.037.554-.029.339.152.763.2.077.088-.057-.07.086l-.161.139a4.041,4.041,0,0,1-.147,1.566l-.213.829c-.242.688.325.88.1,1.088s-.051-.02-.367-.064-.024-.108-.251.009c.2.378.178.31.6.552-.292.27-.134.1-.277.334-.015.024-.035.062-.048.086l-.24.462a2.439,2.439,0,0,0,.015,1.168c.02.209.1,1.02.09,1.154-.024.317-.04.231-.066.323-.009.033-.026.068-.037.1s-.026.068-.037.1l-.18.726c-.044.6.193.462-.084,1.121a7.431,7.431,0,0,0-.407,3.824s-.306.169-.358.209l-.383.332.987.638c.8.411.64.317,1.256,1.212l.6,1.7c-.471.9-.343.484-.073,1.506.114.424-.253.93-.613,1.214l.367.732-.345.422a1.4,1.4,0,0,1,.046.891c-.594,3.243.688,1.157.486,4.418a2.889,2.889,0,0,0,.286,1.458c-.721.526-.5.611-.167,1.273l-.306.438c-.015.026-.04.062-.053.086l-.081.295c0,.268.1-.02.073.136-.614.253-.281.246-.792.543l.781.125c-.156.532-.068.42,1.273,1.113l-.1.209c-.3.686.174.706-.323,1.5.343.255.334.185.455.669-.308.215-.121-.044-.387.308a6.4,6.4,0,0,0,.321,1.234c-.407.187-.906.418-.752.853.2.552-.251.717-.4,1.245a4.352,4.352,0,0,1-.24,1.106l-.556.842c-.117.328.048.055-.2.464l-.847,1.649a1.825,1.825,0,0,1-.347.3c.31.139.277.073.427.35a5.1,5.1,0,0,1-.759,1.08c-.4.341-.616.024-.435,1.113.255.145.354-.053.42-.033.02.141.048.431.079.554.187.759.785,1.1.93,1.924.1.559-.237.8.413,1.2-.209.235-.4.526-.6.745a3.806,3.806,0,0,0,.827.5l-.09,1.689-.444.145c-.048.007-.477,0-.561,0,.3.82-.2.7-.614,1.612a1.22,1.22,0,0,1-.286.435,2.97,2.97,0,0,0,.686.387c-.088.306-.095.2-.125.246-.064.108-.066-.02-.119.176a2.356,2.356,0,0,0,1.2.3c.128.7,0-.068-.163.475a2.8,2.8,0,0,1,.526.015c.475.09.71.521,1.121.625.6.154.363-.416,1.478.594-.09.284-.409.211-.235.635.224.543-.455-.539.226.215.319.354-.3.2.38.847.4.385.3.066.117.62l.682.251-.275.792c-.062.312-.275.561-.378.917.609.745.292.5.438,1.033l.286.519c-.259.158-1.13.906-1.044,1.258.112.462-.158-.121.152.222.02.022.059.051.079.07l.174.143c-.5-.22,0-.259-.651-.053a7.317,7.317,0,0,1-1.194,3.01c-.268.266.035.134-.493.2.317.572.33.31.158.8-.013.037-.068.167-.081.2-.169.424-.5.024-1.484,1.458-.2.284-.262.295-.422.541.266.128.449-.1.631-.046-1.326,1.106-.53.11-1.19,1.247-.38.653.066-.334-.139.218a.738.738,0,0,0,.343.035c.024,0,.066,0,.092.007l.308.062a.533.533,0,0,1,.108.033c-.3.18-.04.037-.277.176l-.937.712c.079.4.215.622.273.888.011.059.053.677.053.686-.009.262-.064.374.165.534a2.02,2.02,0,0,0,.908.229l-.5.365-.035.053-.035.048-.167.22c.587.178.64.009,1.209-.262,0,0,.079.341.079.378,0,.4-.464.33-.057.583.422.264.847.075,1.168.141.1.288-.418.471.424.517.449.024.286-.154.972.158-1.049.781-1.108-.506-1.568.7l1.7-.059c-.253.062-.8.059-.851.479-.053.4.6,0,.8-.253.29.29.046-.015.161.367.3.992-.277-.213.066.314.264.007.158,0,.341-.07.877-.323,1.306-.778,2.338.279.55-.3.068-.323.807-.4.029,1.225.059.4-.4,1.11.284.1-.048.139.238.011l.281-.207.079.814c.484-.251.053-.811.4-1.381.537-.369.369.057.9.128.864.114,0-.332,1.2-.185.512.064.9.2,1.412.226.611.029,1.229-.132,1.856-.152.616.77.565.108,1.821.594a1.071,1.071,0,0,0,.156-.75c-.086-.477-.022-.029-.11-.284a3.258,3.258,0,0,1,.062-1.293c.011-.352.213-.044-.088-.169.935-.053.84-.416,1.245-1.121.416-.726.336.145.649-1.282.053-.246.09-.328.158-.646.24-1.11-.037-.233-.046-1.46-.007-.66-.172-.574-.222-1.284l-.3-2.008c-.2-.622-.53-.592.242-1l.1-.787.468-.171c-.277-1.845.226-1.568-.453-2.208l.523-.932a8.761,8.761,0,0,1-.519-.71c-.108-.22.024-.191-.169-.464-.015-.02-.044-.053-.062-.073l.383-.27c-.147-.383-.163-.466.106-.877a1.714,1.714,0,0,0,.035-1.6c.031-.024.075-.1.1-.075l.394-1.379c.095-.488-.031-.4.277-.671.158-.141.1-.066.264-.161l.378-.2c-.066-.682-.128-.457-.24-.787a11.018,11.018,0,0,0-.464-2.355c-.248-.754-.31-.992-.081-1.544.053-.13.134-.229.029-.4-.262-.433-.145.154-.429-.38a5.6,5.6,0,0,1,1.3-1.526.689.689,0,0,0,.1-.077l-.86-.176.314-.468c-.493-.259-.119.123-.453-.354.22-.756-.4.644.121-.18.33-.523-.209-.508.354-1.794a1.812,1.812,0,0,1-1.13-.578l-.328-.457c.354-.31.3-.169.508-.6a2.14,2.14,0,0,1-.416-1.185s-.026-.145-.031-.2c-.015-.154.011-.319,0-.682l-.53-.037c.1-.2.213-.336.262-.424l.552-1.519c-.251-.42-.1-.308-.517-.493.44-1.154.273-.059.2-.8.849-.11.33-.119.926-.521-.521-.314-1.016-.141-1.106-.853-.077-.616.051.02.108-.416.051-.38-.2-.664-.207-.891-.033-.919.253-.2.479-.926l-.862-1.124a1.562,1.562,0,0,1-.229-.235c.62-.339.64-.275.581-1.126-.369-.1-.057.29-.647-.2a2.057,2.057,0,0,1,1.706-1.1,2.962,2.962,0,0,0-.356-1.7c.664-.273.512-.563.926-.983.242-.246.257-.154.38-.589.367-1.286-.029-2.808.624-3.468l-.345-.332c.6-.119.295.051.5-.38-.455-.825-.484-.7.1-1.55-.143-.07-.11.009-.462.15-.123-1.1-.451-.594-.057-1.68.347-.957.842-1.036.875-2.067.02-.534-.18-.651-.594-.715a.524.524,0,0,1-.095-.007l.475-.365c-.627-.277-.4.178-.574-.273.532-.165.213.053.367-.4l-.462-.336c.152-.666.3-.46.172-.847l-.141-.321c-.378-.418.479.213-.079-.051l-.117-.026a.213.213,0,0,1-.068-.009c.539-.328.226-.295.543-.686l.97-.827c-.156-.844-.308-.528-.429-.759a4.494,4.494,0,0,1-.27-1.344c-.092-.493.024-.675-.435-.9.253-.13.345-.128.581-.246a2.743,2.743,0,0,1,.4-2.276c.292-.578.156-.7.235-1.368.057-.479.029-.631.292-.926.011-.013.051-.042.07-.066-.416-.275-.158,0-.471-.385.383-.332.719.035.937-.631l-.46-.479c-.218-.372-.013-.312-.147-.778.449.141.066.235.638.213.145-.939-.422.059.029-.759a1.424,1.424,0,0,1,.644-.453c-.169-.673-.488-.8-.211-1.515.136-.356.495-.825.73-1.366l-.537-.163c.589-.132.407-.321.449-.921.114-1.658.457-.644-.088-1.658l-.482-.552a.492.492,0,0,1-.084-.013c.429-.7.194-.649.449-1.335-.464-.075-.222.132-.613-.2.171-.539.686-.6,1.113-.917-.644-.484-1.326-.136.242-1.22.066-.781.127-.209.49-.9l.4-1.368,1.594-1.75c.262-.251-.062-.075.226-.174l.372-.026c-.009-.369.035-.2.062-.3a1.83,1.83,0,0,0,.026-1.11l1.137-.5c.024-.015.057-.042.081-.055s.053-.044.079-.057c.317-.2.053-.158.631-.251.244.545-.15.508.18.431.4-.752-.2-.5.339-1.152l.1.09c.323.211-.088.09.336.185.376-.361.33-.416.429-1.069.031.022.066.026.081.077.073.226.317.361.565.506l-.033-.314c-.077-.354-.055.255-.1-.374a1.078,1.078,0,0,0,1.258-.57l.921-.7c.183-.121.154-.073.31-.314l.218.1.068.031.15.057a3.942,3.942,0,0,0,.275-.4c0-.013.018-.053.02-.066s.007-.048.009-.055l-.007-.044c0-.015-.033-.035-.064-.068a3.96,3.96,0,0,1,1.634.387,5.151,5.151,0,0,0-.534-.541c.013-.033.042-.112.051-.092l.108-.695c.767-.165.468-.081.915-.517l.695-1.082c.1-.31.02.044.051-.251l.77-2.188a2.181,2.181,0,0,1,1.427-.734c.873-.055,1.036-.422,2.243-.556l-.286-.712c-.018-.026-.077-.106-.092-.132-.156-.279-.158.059-.1-.251.609-.279.323.451.941-.519h.91c.372-.051.172-.237.029-.666.657.092,1.064-.523,1.574-.875l.893-.532a1.619,1.619,0,0,1,1.324-.288c.015-.024.02-.1.024-.084l.119-.288c.277-.336,1.027-.143,1.517-.281a3.122,3.122,0,0,1,1.442-.266c.312-.007.446-.007.642-.007l1.093-.167c.64-.222,1.722-.248,2.344-.42l.3-.095c.259,0,.158-.031.462.24l.132-.451.734.2c.029-.583-.215-.611,1.26-.633a8.636,8.636,0,0,1,1.357.15c.888.081,1.819-.651,2.5.152.1.114.057.139.227.343.242-1.15,1.64-.866,2.423-.532.862.369.328-.277,1.205-.04l.543.279c.026.013.064.033.092.046l.1.042,1.155.521.108-.464.325.51c.143-.409-.079-.114.257-.213.838-.246,1.33.411,2.159.229l.084-.018c1.073-.251.117-.132.838-.477.807.493.435.185,1.412.02.759-.128.407-.011.827.077.7.147.114-.024.5-.147.5-.161.519.237,1.04.187l1.511-.024c.875-.084,2.3.244,3.186.172,2.832-.226,2.67.55,3.162.009.317.451-.134.169.383.367l1.363.156a.241.241,0,0,0,.057-.013c.585-.167-.172-.207.178-.158.635.2.792-.2,1.385.213.833.578-.141.638,1.115.737-.022.644-.011.662.457.932.695.4.49.2.842.222l-.033.262a3.654,3.654,0,0,1,.048.576l.62-.248c.336.435-.273.09.277.328l1.585.576c.037.018.143.081.178.1l.161.081a4.316,4.316,0,0,0,1.605.583c.363.035,2.089-.121.756.646a5.27,5.27,0,0,1,1.132-.084c.688.209.22.616.15,1.205.682-.125.336.018.721.026l.108,0c.673,0,.572-.095,1.018.5.484.649.3.136.8.594a7.166,7.166,0,0,1,.616.924c.339-.062.352-.215.561-.446.1.756.965.737.616,1.667-.143.378-.174.317-.416.609l.328.77c.125.631-.253.473-.066,1.2.119.453.279.449.33.8.055.383-.1.189.007.818l.576,1.317c.356.429.136-.152.169.695.6.018.5-.09.917.172.288.18.084.451.545.253-.042.218-.165.281-.04.468a4.145,4.145,0,0,0,.706-.358c-.2.578-.332.484-.191.858l.253,1.242c.09.55-.143.033.345.565-.383.264-.163.02-.44.367.185.3,0,.158.576.224l-.354.334c.3.288.035-.022.29.4l.3.576c.3.449.715.394,1.159.5a2.478,2.478,0,0,1-.279.924c.512.161.244.04.831-.077-.3.587-.209.1-.292.493l.6.224c.026.015.064.033.09.048.446.253.416.5.967.653-.286.69.218.325-.259.657.332.226.453.226.642.627l.1.29c.224.785-.154.213.376.622.055.042.237.189.288.242l.185.248.051.055.224.161c.018.011.064.033.092.053-.519.29-.275.387-.121.913.172.583.123-.053.2.462.055.336-.079.218-.068.728.583.343.559-.244.451.427-.1.627-.062.141-.565.587l.158.6c0,.031-.009.077-.011.106l-.037.207a1.758,1.758,0,0,0,.816.18l-.1.334c.592-.011.308-.088.638.15-.372.475-.968.664-1.35,1.161.369.134.385.1.644-.253a3.482,3.482,0,0,0,1.425,1.753,2.174,2.174,0,0,1-.761,1.524l.532.185c-.391.411-.183.1-.422.559-.222.424.121-.018-.2.354-.211.246.042.046-.328.251.077.125.277.139.394.475-.16.22-.378.624-.532.88.026.026.068.02.084.068.1.319.262.145.46.5-.468.163-.222.048-.53.319l-.44.561c-.2.44.167.328-.29,1l.73.473-.427,1c-.145.752.4.622-.084,1.753-.185.429-.332-.251-.095.51.1.31.143.207.475.438-.622.317-.548,1.41-.216,1.968l.2.248c.024.022.062.046.086.064l.174.1c.259.176.209.086.108.352l-.121.244c.862.2.026-.031.416.281l.394.286c-.444.928-.037.295-.6.745.429.926-.772,1.489.629,1.627l-.354.213c-.026.018-.064.042-.088.059l-.532.369c.374.183-.422-.156.249.066l.424.163c-.378.363-.545.317-.893.563.719.108.688-.444,1.187.117.068.117-.449.554.029,1.1l-.772.741c-.139.328.213.851-.011,1.489-.18.515-.095-.255-.158.409a2.818,2.818,0,0,0,.068.583c0,.416.051.279-.222.519l.264.178c.209.165.031-.029.18.167-.4.161-.354.143-.552.5.024.026.064.031.077.081s.123.134.147.163c.092.112.15.2.257.328l.506.477c-.024.739-.653.433.191.952l.413.264c-.191.473-.242.339-.548.741.354.42.836.479,1.249.748-.682.57-.229,1.172-.948,1.618-.3.183.057-.02-.31.1l-.176.055c-.827.35-.521.594-.609.82-.695.154-.926.158-1.174.647-.24.473-.026.73-.209,1.016-.121.2-.075-.095-.24.323l-.273.62c.394.321.378.178.4.589.018.295-.02.119.086.347.29.629.457.748.215,1.438.581.11.367-.053.636.328-.213.466-.015.048-.312.429l-.13.163-.059.079c-.306.44-.1.591-.022,1.126-.424-.213-.185-.213-.363-.2a.213.213,0,0,0-.035.106,5.984,5.984,0,0,0-.16,1.034l-.123,1.546c.086.27-.084.466,0,.862.158.763-.169.114.372.693-.341.134-.849.347-.829.719.02.389-.046-.176.182.38l-.569.255c-.011.011-.031.044-.042.053l-.088.1a.594.594,0,0,1-.059.044,2.873,2.873,0,0,1-1.15.29c.154.965-.242.532.451,1.1-.374.391-.248-.079-.275.46-.033.638.141,0,.163.539l-.761.343c.024.026.066.022.079.066l.3.306c.891,1.176.442,1.92.559,2.67a4.38,4.38,0,0,1,.057,1.55c-.057.222-.086.024-.095.372l.622.218-.671,1.249c-.266.737-.018.466-.022.581-.011.4,0-.119-.3.563.75.306.365.765.633,1.4l.136.178a2.042,2.042,0,0,0,.229.108c-.295.273-.275.174-.657.277a1.015,1.015,0,0,0,1.038.682,4.417,4.417,0,0,0,.075.884c.026.354-.2.29-.317.809.2.2.158.1.3.229a2.628,2.628,0,0,1,.631,1.471c.11.728.084.2.468.719-.372.495-.339.165-.534.8l.734.108c-.152.559-.292.185-.354.737.3-.268.394-.394.827-.3.183.462-.187.292.09.627.145.174.011-.031.207.169-1.412.8-.937.246-2.129.642-.125.576.325-.3.018.336-.143.292-.53.455-.77.62l-.057.04a4.394,4.394,0,0,0-1.3.957c-.2.262-.13.4-.442.649-.548.433-.293,0-.433.548l1.163.721c.154.132.2.136.394.306l.33.477c.145.224-.1-.042.152.178l.411.264a1,1,0,0,0,.51.163c-.3.82-.064.49.343,1.242l.493.508.077.057c.022.018.053.048.075.064l.3.226c.407.189-.059-.092.354.053-.081.512.141-.563.007.238a1.339,1.339,0,0,1-.431.624c1.071-.235.277-.4,1.568-.2,0,.446-.319.644-.031,1.284.009.022.031.062.042.084l.152.251c-.154.18-.235.253-.389.44l.858.031c-.27.42-.475.6-.451,1.071,1.084.319.851.314,1.755,1.412-.253.732-.264.229-.46.734.754.222.134-.266.827.059.941.446,1.06,0,1.777-.158a2.049,2.049,0,0,0,1.093-.466c.7-.794.629-.446,1.779-.352.451.04.66.033.926-.29.011-.013.031-.055.053-.079.583.435,1.007.009,1.717-.145,1.821-.391,1.223-.8,4.47-.27l.24.037a4.624,4.624,0,0,0,1.647.259c.774-.095,1.1-.433,1.829-.444a8.736,8.736,0,0,0,1.8-.015c.886-.218,1.216.143,2.2.018a8.151,8.151,0,0,1,.981-.079c.635,0,.286.068.787.4.233-.363.246-.633.829-.033a2.226,2.226,0,0,0,.319.374c.334-.057.251-.2.695-.215.5-.022-.145.128.693.136.633.007,1.132-.495,1.933-.312l1.1.112c.35.1.385.183.682.255.224.053.715.1.937.141.394.064,1.236.356,1.434.356.222,0,.255-.106.5-.112l2.491.1c.717.218.145.3,1.179.31.939.009.745-.1,1.588-.33l1.471-.167c.24,0,1.031.306,1.456.389.627.123,1.148-.015,1.86.106,1.159.193,1.55-.726,3-.8,1.176-.064,1.339.3,2.327-.117.022-.011.061-.024.081-.033.457-.194.416-.332.413-.767-.007-2.454.737-.1-.715-3.29-.222-.488.262-.343.013-1.205-.209-.723-.741-1.179-.51-1.889.292-.9.862-.895.561-2-.317-1.168.224-1.242.2-1.489a2.159,2.159,0,0,1-.647-1.5l-.662-.358c.216-.361.189-.559-.015-1.082a1.3,1.3,0,0,0-.662-.842c.167-.394.356-.6.077-.913l-.974-.556c.068-.112,1-.941.248-1.852-.308-.372-.117.174-.088-.073.064-.44.363-.851.141-1.464-.249-.69-.211.02-1,.242-.13-.237-.139-.361-.235-.528,0-.011-.187-.279-.2-.295a2.821,2.821,0,0,1-.559-.86c-.229-.627.064-.108-.312-.354-.029-.671-.02-.62.336-1l-.548-.38.1-1.128c-.376-.152.018.077-.387-.042a.594.594,0,0,1-.473-.314c-.013-.02-.031-.062-.042-.081l-.1-.332c-.352-.948-.248.442-.145-.266-.114-.974.009,0,.055-.7.022-.312.314-.6.4-.963l.022-.2c0-.029,0-.068-.007-.1a5.1,5.1,0,0,1-.244-1.137c.325-.528.5-.209.266-.972-.128-.413-.143.088-.123-.532.022-.8.5-1.036.9-1.467.431-.466.266-.435-.2-.541a1.8,1.8,0,0,0,.591-.829c.227-.688.015-.495-.314-.624l.4-.816c.136-.482.145-.277-.081-.772.455-.24.123.218.46-.218a.994.994,0,0,0,.213-.325c.565-1.058.668-.7,1.352-1.592.422-.556.585-1.3.972-1.871l-.383-1.027c-1.088-.114-.409-.38-1.062-.77.268-.38.281-.2.409-.682.079-.31,0-.079.222-.246l.183-.244a2.618,2.618,0,0,0,.057-2.315c.174-.141,0,.064.295-.161-.42-.27-.592-.44-.385-1.012l.088-.517,0-.059-.009-.064c-.121-.618.075-1.282-.222-1.9-.356-.741-.882-.6-.737-1.621.055-.389.154-.383.578-.515-.1-.679.022-.163-.31-.682.9-.187.7-.308.708-.44l-.033-.136c-.073-.495.031-.2.044-.743.02-.007.055-.015.059,0h.114c.163-.053-.077.277.176-.143.424-.7.49-.576.567-.627.233-.154-.037.068.114-.172.09-.139-.1.009.13-.185a1.786,1.786,0,0,1,.365-.194c-.3-.625-.418-.185-.163-.675.176-.336.237-.172.389-.664-.251-.341-.224-.165-.5-.545.466-.3.526-.646.875-1.132,1.124-1.55,1.374-.638.985-2.746l-.013-.081a1.545,1.545,0,0,1,.077-1.064c-.2-.147-.2.022-.367-.183.589-.176.288.2.332-.4.062-.871-.218.029-.486-1.082.537.235.281.246.629-.312-.224-.475-.262-.33-.5-.7-.308-.482.044-.207-.187-.866-.165-.468-.778-.583-1.242-1.251.057-.266.015-.119.315-.314l.207-.11c-.618-.172-.583-.231-.783-.838.556.3.761.165,1.016-.035L400,87.668c0-1.1-.574-1.132-.745-1.893a.59.59,0,0,1-.015-.086l.075-.792c-.453-.108-.424-.209-.809-.464l.539-.321-.622-.374c.539-.866.435-.328,1.049-.886-.508-.319-1.128-.44-.69-.822.235-.2.037.233.277-.27l.02-.24c-.018-.341-.2.1.128-.515.3-.565.057-.888.873-1.517.319-.246.323-.119.655-.407-.352-.407-.528-.224-1.165-.418l.418-.365c.607-.317.13-.262.688-.515.317-.143.317,0,.682-.246l-.842-.446c.765-.726.341-.559.484-.985,1.253-.6.836-.686,1.41-1.647.268-.449-.07-.007.49-.3-.057-.581-.295-.906-.112-1.315l.367-.385c-1.143-1.056-.664-1.511-.591-2.885a5.294,5.294,0,0,1,.187-1.073c-.369-.064-.182.026-.383-.145a.754.754,0,0,1-.271-.712l-.231-1.482c-.088-.356-.684-.708-.554-1.135l.09-.213a.622.622,0,0,0,.053-.114l-.77-.031c.174-.486-.251-.952.145-1.216l-.693-.1c.018-.013-.031.224.169-.128.286-.5.064.409.064-.216,0-.717-.191.183-.095-.484.081-.559.3.172.022-.884-.123-.468.018-.341,0-.741,0-.018-.007-.055-.009-.073l-.128-.807c.02-.378-.037-.147.176-.244-.158-1.071.106-.809.26-1.361s-.264-.585-.3-1.3c.22-.22.422-.4.625-.607a1.132,1.132,0,0,1-.534-.24c.011-1,.018-1.023.6-1.394-.1-.479-.075-.862-.528-.963a2.8,2.8,0,0,1,.581-.987c.508-.629.183-.523.281-.814.787-.356.686-.248,1.15-.88l-1.029-.367c.244-.787-.259-.389.051-1.508-.512-.167-.5-.646-1.469-1.025l-2.883-2.1c-.152-.169-.607-1.24-1.227-.336-.424-.633.264-.438-.7-.482a5.893,5.893,0,0,1-.706-.053c-.82-.2.015.029-.543-.286l-1.434-1.049c-.545-.345-1.227-.215-1.812-.488-1.014-.471-1.788-.026-2.876-.888l-1.2-.73c-.664-.319-.928-.27-2.388-1.007a8.842,8.842,0,0,0-2.727-.468c-.587-.07-.479-.121-1.124-.207l-1.234-.391c-1.337-.479-2.538-.552-3.52-.9-.91-.323-.009-.3-1.058-.589a16.067,16.067,0,0,1-4.776-1.731c-1.625-1.082-2.59-.756-3.472-1.273-2.428-1.418-2.637.04-4.926-.618a7.584,7.584,0,0,0-1.986-.172c-.466-.1.042-.051-.5-.308-.519.842-1.168.125-2,.112-.4-.007-1.486-.336-1.988-.3-1.13.073-1.407-.42-2.142-.374-.974.062-1.649.246-2.208-.321-.433.18-.108-.158-.354.367-.295-.833-.143-.385-.528-.4-.268-.011.161.18-.4-.02-.493-.178-.321-.341-.71-.554a2.028,2.028,0,0,1-.369-.169c-.374-.237-.279-.374-.679-.581-.816.117-1.036.5-1.961.163-.389-.141-.446-.2-.871-.339-.211-.07-.323-.092-.519-.161-.27-.1-.284-.128-.506-.189a3.254,3.254,0,0,1-1.432-.44l-.068-.059c-.262-.259-.259-.464-.675-.649-.435-.194-.427-.266-.464.068-.13-.308-.286-.332-.5-.563l-.651-.763c-.543-.361-1.412-.092-2.1-.281-.561-.154-.908-.662-1.509-.82-.7-.185-1.638-.037-2.25-.4l-.158-.128c-.858-.635-.616-.183-1.592-1.185-.686-.7-1.627-.728-2.507-1.069l-.413-.112c-.182,0,.086.051-.189.018-.218-.026-.528-.211-.847-.3-.51-.141-.218.022-.734-.073l-2.549-.609c-.352-.062.108.015-.244-.018-.776-.07-.49-.136-.728-.231-.44-.172-.143.086-.745.057s-.273-.134-1.007-.095l-.807.009c-2.236.136-3.32-.365-3.974-.183-.152.042-.15.09-.343.106l-.38-.057a14.556,14.556,0,0,1-2.071-.09c-.82-.218.139.009-.521-.466-1.335.279-.537,1.036-3,.767-.95-.1-1.61.255-2.419-.077-.3-.125-.4-.242-.728-.374l-.108.354a.207.207,0,0,1,0,.053c-1.583-.479-1.836-1.108-3.848-.941-.558.048-.435.189-1.062.121l-.651-.024c-.427.084-.528-.2-1.121-.281-.649-.092-.537-.007-1-.413l-.664.444a1.832,1.832,0,0,0-.339-1.084c-.3-.323-.57-.075-.534-.739-1.531.259-1.172-.46-2.129-.809l.026.354-2.478-.13a2.536,2.536,0,0,1-2.241-.565c-.8-.664-.224-.413-1.348-.7-.662-.172-.444-.308-.924-.4l-2.373-.3-.086-.022-.084-.015c-.871-.211-.248-.4-1.4-.345l-.088,0a9.15,9.15,0,0,1-1.845-.431c-.433-.123-.7.068-1.293-.46l-1.5-1.438a.812.812,0,0,0-.35-.213l-1.058-.053c-.029,0-.07.009-.1.011l-.409.073c-.367.051,0-.264-.693.106-.581.31-1.649,1.289-2.848.515a5.063,5.063,0,0,0-.723-.429c.295.427.4.468.717.979-1.689-.508-1.058.024-2.568-.622-.275-.119-.059.031-.325-.218-1.55-1.434-1.858-.5-2.61-.983l-.037.534-1.726-.363c-.317-.059-1.064-.5-1.487-.387l-.836.088a9.243,9.243,0,0,0-1.581-.62c-.706-.13-1.139-.453-1.79-.618-.686-.176-.827.053-1.089-.559-.532.233-1.172.614-1.643.515a6.338,6.338,0,0,1-1.887-.783l-.273.515c-1-.3-.242.592-1.533-.141-.563-.319-.752-.1-1.484-.088a2.087,2.087,0,0,1-1.293-.319c-.534-.279-.343-.057-.671-.209-.484-.224-.1-.273-.607-.453-.378-.136-.321-.011-.73.086-.024.007-.064.02-.09.024l-2.83.213c-1.071.158-1.119.62-2.316.108l-2.94-.255a3.278,3.278,0,0,1-2.518-.526,4.014,4.014,0,0,0-2.071-.963c-.968-.112-.427-.38-1.3-.732-.919-.369-1.473-.117-2.485-.84l-.451-.18-.1-1.018-.607.248c-.024-.022-.059-.106-.068-.081-.108.312-.112-.141-.136-.167a1.37,1.37,0,0,0-.194-.222c-.3-.253-.033-.1-.554-.257a2.542,2.542,0,0,1-1.711-1.051l-.057-.084c-.438-.526-.679-.174-1.066-.877-.367.033-.24.011-.418.248-.332-.323-.167-.339-.734-.484-.411-.1-.407-.211-.877-.2L225.2,4.9a3.036,3.036,0,0,1-1.605.048c-.6-.1-.325.07-.827.11-.255.022-.657-.066-.9-.057-.484.02-.457.13-1.049.154-.354.015-.662-.053-1-.029-.994.073-.09.229-.822.154-.633-.064-1.911.1-2.019.07-.57-.152-.633-.924-1.412-1.025-1.106,0,.35.284-.91.251a3.592,3.592,0,0,1-.534-.092,4.153,4.153,0,0,1-1.665-.42c-.976-.431-.453-.1-.343-.455.139-.457-.108-.156-.431-.086a4.931,4.931,0,0,1-2.214-.363c-.728-.15-.5-.04-.891-.471l-.97.145c-.112-.211,0-.363-.033-.444-1.97.176-.717-.251-2.243-.187,0-.754.007.04.328-.671-.759.066-.994.741-2.795-.708l-.341-.172c-1.007-.053-1.7-.642-2.907-.618-.781.015-.468-.211-1.458.343a11.545,11.545,0,0,1-2.175,1.251c-.849.365-1.11,1.1-2.082,1.39l-1.249.836a3.719,3.719,0,0,1-1.693.257,13.069,13.069,0,0,1-3.5-.042c-1.884-.257-2.408.66-3.452,1.069a8.462,8.462,0,0,1-1.878.339c-.365.073-.545.422-1,.435-.82.024,0,.488-2.654.915a3.552,3.552,0,0,0-.783.295c-.413.145-.323.022-.7.2a4.374,4.374,0,0,1-3.655.1c-.4-.119-.332-.022-.752-.053-2.313-.176-3.536.833-5.244.5l-1.278-.128c-.378-.132-.2.222-.882.167-.585-.046.077-.194-.851-.035a11.657,11.657,0,0,1-1.717-.02c-.1.009.246.053-.268.033-.088,0-.365-.059-.424-.064-.24-.024-.145-.064-.4.015-.026.009-.062.031-.088.04l-.182.1-.095.055c-1.961,1.018-.172.629-3.5,1.405a18.232,18.232,0,0,1-1.939.468,5.692,5.692,0,0,0-1.016.15c-.554.141-.323.055-.8-.084" transform="translate(0 -0.001)" fill="#006bb1" fill-rule="evenodd"/>
    </g>
  </g>
</svg>
