<svg xmlns="http://www.w3.org/2000/svg" xmlns:xlink="http://www.w3.org/1999/xlink" width="1920" height="650" viewBox="0 0 1920 650">
  <defs>
    <clipPath id="clip-path">
      <rect id="Rectangle_11" data-name="Rectangle 11" width="1920" height="650" transform="translate(0 1491)" fill="#006bb1"/>
    </clipPath>
    <clipPath id="clip-path-2">
      <rect id="Rectangle_6" data-name="Rectangle 6" width="2047.925" height="789.184" fill="#04609d"/>
    </clipPath>
  </defs>
  <g id="Mask_Group_1" data-name="Mask Group 1" transform="translate(0 -1491)" clip-path="url(#clip-path)">
    <g id="Group_11" data-name="Group 11" transform="translate(-46.389 1399.246)">
      <g id="Group_6" data-name="Group 6" transform="translate(0 0)" clip-path="url(#clip-path-2)">
        <path id="Path_16" data-name="Path 16" d="M781.811,50.669c-2.871,2-.179,1.318-2.826,2.145-1.419.447-1.542-.112-3.72.257.883,2.469,1.084.257,1.676,2.714l-18.029.871c-1.754-.324-2.737-1.508-3.91-2.659l-5.764,1.966c-.067.034-.224.156-.3.2l-2.714,1.5,3.641,1.843-5.987,1.888c-.045,2.7-.67,1.463.961,2.491-5.82.614-4.435,3.731-7.618,6.021l-1.452.7c-.156.089-.357.156-.5.257-1.832,1.106-1.62,1.508-2.848,2.826l-7.127,5.161c-4.669,2.759-11.4,1.139-14.991,5.864-.067-.1-.145-.458-.167-.357s-.168-.279-.212-.313l-1.452-.815c-1.675,1.609-1.486,1.095-3.407,1.676l-2.379.525c-7.082-.112-1.206-1.4-6.948,1.821-2.011,1.128-1.452.536-2.994,1.017-2.536.793-1.542.76-3.016,1.731-1.43.927-7.652,1.776-11.371,3.519-.2.089-1.251.626-1.43.693l-2.011.134c-4.647-.391-10.779.681-15.672.793-2.748.056-5.027-.559-8.713-.48-13.483.29-7.171-.179-11.863-.592-3.865-.346,2.111.279-3.709,1.2-2.9.458-5.049-.547-9.048.067-7.506,1.151-12.187-1.363-20.676,2-2.178.86-2.39,1.564-3.764,2.234-1.943.927-2.39.726-4.636.86-.547.034-2.256.1-2.692.19-3.351.693.592-.235-2.044.8-.145.056-.134.257-1.609.57a18.549,18.549,0,0,1-2.7.246c-2.681.29-2.469.614-4.96,1.017-.793-1.285-.748.469.112-1.4l.737-1.2a14.825,14.825,0,0,1-3.642.76c-3.206.235-5.083,1.7-9.316,1.888-3.262.145-5.418-.715-7.272-.592-3.385.223-1.6,1.6-6.066.972-4.557-.648-2.915-.525-6.669-.156a21.983,21.983,0,0,1-6.389-.2c-3.6-.827-2.927-2.3-5.92-1.151-4.189,1.62,0,1.9-4.948-.391l-1.095,2.457-17.861,1.765c-4.725.737-3.117-1.206-7.976-1.151l-3.284-.346c-.894,0-3.116.559-4.971.7-3.116.246-6.5.123-9.986.212-4.155.112-6.356-.726-10.065-.894-.257-.022-1.083-.045-1.329-.067-.2-.011-.4-.045-.592-.056l-3.72.6c-2.659.9-5.719.391-8.992.916-1.072,2.368.514,2.245-2.212,3.161-3.284,1.095-2.647.5-5.373,2.3-.112,1.363,5.183-1.206-1.843,4.234.983,4.558,2.279,3.653-4.848,5.909a62.912,62.912,0,0,1-21.838,2.893c-2.882-.2-6.836,1.385-8.679,1.765-6.032,1.229-12.913.559-18.587,3.988-4.423,2.681-10.433,7.082-16.811,6.725-5.1-.29-10.154,1.128-15.426,1.854-4.557.614,1.419-.447-2.882,1.62-2.647,1.273-6.892,1.273-10.154,2.48-1.8.659-1.564,1.039-4.1,1.653-1.821.436-4.1.659-5.876,1.084-4.636,1.128-4.837,2.793-8.288,4.021-1.966.693-1.218.089-3.206.949l-4.8,2.893c-.134.067-.335.156-.458.223l-1.229.458c-.089.022-.29.067-.38.1-2.2.7-1.553.771-3.653,1.865a8.686,8.686,0,0,1-4.189.547c-4.982-.815-.983.469-3.206-2.592l-3.563,2.5c-.514.134-3.53.391-4.915.648l-.268-.637-.1-.313c-.86-2.737.693.949-.223-.815-2.089,2.245-.581,1.776-3.385,1.921-16.387.894-6.066.022-21.7,2.871l-21.145,3.9c-1.285.313-4.111,1.486-4.77,1.6-2.681.48-1.53-.592-4.7-.123-2.379.346-.648-.19-2.156.871-1.318.927-6.535,7.171-9.048,3.865-1.095,3.385,1.586-.8-.525,2.357-3.53.592-4.971-.525-6.758.67-1.407.938-.871,1.016-.324,1.676,1.095,1.318.235.089,2.044.078-2.279,1.251-5.116,2.525-7.395,1.117-.827,1.028-.681,2.022-1.854,2.826-1.151.8-1.363.2-3.44,1.128l-12.734,2.256c-5.8.592-4.87-.424-8.277-1.162-2.592-.57-6.244.391-8.691.559-2.938.2-4.9-.648-6.78-.681l-.994.011c-3.575-.458-2.446,1.955-5.663,1.91-1.988-.033-2.156-1.184-3.887-2.044-7.641,5.094-5.909,1.765-7.842-.179a15.306,15.306,0,0,0-1.955,2.558c-6.479-2.156-5.73-.19-12.354-.782-3.709-.324-11.885-1.385-15.147.324-3.083,1.609-1.039.882-5.25,1.542-3.239.5-5.462,1.229-7.875,1.765-3.6.8-3.675-.223-7.54.916-3.049.894-3.385.771-5.931,1.43,1.486-1.519,1.631-1.273.927-2.279l-6.077,2.424a4.038,4.038,0,0,0-.693.659c-1.988,1.6-6.088,2.513-8.087,4.379-3.329,3.128-6.68,2.949-8.121,4.926-2.659,3.653-.38,4.39-6.021,6.769-6.021,2.536-1.642,2.279-10.344,2.424a12.245,12.245,0,0,0-4.625,1.128c-2.614,1.2-8.992,6.657-12.019,7.115-3.865.592-7.551-1.251-7.942,4.256L38.7,219.71c-1.676.145-.726.089-1.184.235-6.222,1.91-7.875-.357-18.2,1.463-3.306.592-5.507,1.575-8.6,1.34-2.67-.2-2.971.793-5.038,2.134-3.117,2.011-7.5,1.731-4.893,5.15L7.3,239.839c1.776,1.8,2.5,2.379,5.127,1.709l-.659,1.05c-2.346,4.256,1.419-3.072-.525.961a12.181,12.181,0,0,0-.581,1.6c2-.156.815-.2,3.407-.938.7,2.9.693.916,1.642,3.452.067.168.112.357.179.547s.089.38.156.581c.29.916-.1.357.514,1.743l1.374,1.955.19.335c2.335,4.278,5.73,5,8.188,13.438.949,3.251.357.681,1.273,3.15.882,2.39,1.988,7.06,1.787,9.6l-2.6,7.518c-.324,1.151.1,1.966.246,3.787-2.871,1.776-5.4,3.139-6.289,6.669l-.123.76c-.38,3.429-.514-.179.882,3.172-1.676,2.29-4.032,2.893-.48,7.6l4.591,3.9c.123.089.268.246.391.335,6.054,4.546,3.206,1.005,6.434,6.378a19.649,19.649,0,0,0,1.5,2.111l.983,1.988c.045.112.067.335.1.447s.078.346.123.469l.357.9c.827,1.877,1.709.8-.324,2.469a24.452,24.452,0,0,1,3.251,1.62c-3.105.9-.86.648-1.139,1.776-.447,1.832-.693.782-1.865,3.15.112.056.313-.067.369.056l1.832-.223c-.536,2.312.123,3.418-.436,5.161-1.921,6.021-.737,3.228-.335,6.859l-3.251,2.726,2.8,2.29.257.123c-1.821,1.553-2.033,4.01-3.44,5.954,2.044,1.072.436-.715,2.3,1.251l-1.34,3.53c1.542,1.977,2.48,3.184,2.7,5.764.3,3.507,2.234,6.222.681,9.361-1.452,2.938-1.072.48-1.184,2.156-.346,5.5,2.189,1.463-1.921,6.378,2.335,2.145.313,7.071,2.446,14-.123.089-.38.034-.413.212-.369,1.687-.279.156-.771.346-3.809,1.486,1.743-1.273-.938.313.078,3.139,3.8,7.227.413,8.657-2.469,1.039.76,0-1.061.022-1.273.022.614-1.016-1.039-.011,1.061,2.2,1.832,2.949,1.251,5.641-1.262,5.753-1.016,8.847,4.245,13.181-2.424,2.9-1.7,1.91-.838,6.512.9,4.826.76,3.094,4.524,4.658-.581,1.039-1.765,2.536-2.078,3.306a4.626,4.626,0,0,0-.257,1.765c.961,3.217-2.9-2.167,1.151,1.273.067.056.279.168.413.268l-2.6,1.128c1.184,3.139,2.167,3.619,2.011,7.093-.212,4.345,1.318,1.765,2.312,6.535a10.772,10.772,0,0,1-.8,5.63l-5.4,8.646c-3.854,4.133-1.34.815-1.519,3.787l-.715,4.077a34.543,34.543,0,0,0,3.764.011c-.737,2.67.3,2.815-.491,4.457-.011.034-.447.022-1.151,1.486l3.7,4.7a8.982,8.982,0,0,0-2,5.686l2.491-.156-2.48,5.429c-.034,1.988-4.178,2.558-5.987,2.7l-1.251,4.949c0,.145.011.357,0,.5-.6,7.964-2.491,4.535-3.385,4.234-1.016,8.9-1.631,4.222-3.206,7.875l.391,1.664a3.44,3.44,0,0,0,.324.279c-3.373,1.519-1.62-.424-2.379,2.078l-.838,3.854c3.239.57-.7-.882,1.519-.112.346,4.971-2.647,9.584-.514,13.8l2.848,4.546c1.463,1.642.927-.648,1.854,2.122.614,1.832-.134,2.312-.3,4.345,2.111-1.128,2.312-.972,3.787.123,2.536,1.877,3.6,3.742,5,6.646,1.463,3.05,1.329-.5-.045,4.044,2.189.614,3.787,1.307,2.793,4.256-.413,1.229-.424.7-1.374,1.8,3.731,3.63-1.117,2.055,2.837,4.524-1.028,1.128.134.123-1.352.983-.57.335-1.128.458-1.944.927l-.637,8.221c.179.86,2.6.793-.547,4.055l-3.764,4.468c1.2.57,1.888-.089,4.167.369.5,3.653-.29,2.368-.491,3.586-.134.8-.38-.145-.056,1.173l.626,1.106a2.532,2.532,0,0,1,.29.38l-3.776,1.251c1.117-.737,1.53,2.212,1.5,3.139l1.318,3c-2.212,2.7-.916,1.642-1.218,4.971-.29,3.094-.491.871-1.966,4.055,3.485,5.127-1.955-1.553.592,5.563,1.977,5.518-1.441,1.977,2.122,7.428l-2.223,2.156c-.1.279,2.033-.4-1.407,2.3,1.776,1.363,1.084.748,2.145,2.826l-1.653,3.094c.871,2.346.882.4,1.553,3.206,1.039,4.323-.112,2.458,2.625,4.189l-3.742,1.508c-.2,3.373.491,2.223-1.2,4.58-2.223,3.094-1.017-.335-1.508,3.8-.48,4.021-4.535,3.239-.022,8.389-1.285,2.346-2.8,2.547-2.882,5.909l6.5,1.642c-1.095,1.8-2.558,1.8-.949,4.133l2.033,1.62a14.74,14.74,0,0,1,2.223,1.843c-3.831,4.982-.871,4.971-1.553,7.317l-2.3,11.025c-.458,5.507-.034,2.759-2.256,7.361-1.407,2.927-1.072,4.334-3.027,6.658a15.3,15.3,0,0,0-1.385,1.888c.771,3.273,1.084,2,1.34,4.334.145,1.285.882.5.458,3.206l-4.021,6.646c-1.385,2.781-.089,2.58-3.608,4.77,1.542,1.43,2.681,2,4.144,3.463-2.39,1.91-1.106,2.055-3.34,3.943-4.8,4.077-5.418,1.251-8.2,8.534l-.335.681a10.574,10.574,0,0,0-1.285,5.429c.235,1.787,1.542,2.48,2.726,5.116,6.87.961,10.366,3.318,17.683,3.105,4.379,5.027,3.642,2.245,11.349,3.764,4.334.871,7.283.369,11.673-.369,4.044-.693,5.5.212,8.959-.357,2.4-.4,7.506-.6,8.646-.793,2.592-.425.86-.771,3.63-1.061,4.144-.424,1.542.737,4.245.491l1.977-.67c.168-.067.648-.223.815-.29l.793-.29c.1-.034.3-.123.4-.145l2.524-.179c1.743-.011,3.943-.48,4.613-.4,2.848.357.268.659,2.033,2.335.849-2.77.86-1.865,4.826-1.251,7.115,1.095,11.293-.558,13.907,2,1.676,1.642-.659-.4,1.117,1.91,2.915-1.329,4.032-.782,6.926.525,2.614,1.2,3.172,2.938,6.3,1.754,6.646-2.524.626-3.284,8.657.223.156.067.357.123.525.179,2.189.871,1.106-.67,3.351,2.1l1.3-1.173c1.709-1.486-.793-.123,1.7-1.374,3.083,2.245.715.313,2.435,2.569,1.843,2.435.86.793,3.53,2.524.123-.112.235-.5.29-.391l2.413-1.843c2.6-1.474.335,1.095,2.6-2.2a14.089,14.089,0,0,1,2.2,3.541c10.366-.8,8.646,2.033,13.315,2.145,3.6.078,5.518-1.441,9.841-.57,2.323.458,13.929.76,16.029-.033,2.446-.927,2.4-2.189,4.144-2.245,3.664-.123,1.776-1.865,5.205-1.05,2.625.626.525.637,3.675,1.575.168-.112.3-.592.38-.458l1.676-1.4c3.429-.883-3.239.469,1.821.056.145-.011.559-.134.693-.145,1.888-.168,1.273.771,2.86-.056,3.876-2.033,4.692-1.463,7.886-2.748.626.983-.324.625-.369,3.3,3.921-.257,12.824-4.491,17.012-2.949-.6,2.3-2.96-1.4-.782,2.312,3.921-1.005.6-1.8,5.507-1.977,2.659-.089,4.133.782,7.451.715.961-2.726,3.843-11.193,6.367-12.511,3.563-1.854,6.937.424,11.1.413-2.893-2.335-7.439-1.575-10.846-2.916.29-2.424.961.268.815-2.96-.123-2.625.324.357-1.24-2.513,6.512.559-.7,2.435,9.707-1.028.424,5.608-1.944,3.039-3.016,6.658l4.066-.994,1.765-6.378c.86-3.228-1.262-1.877,1.7-5.261,2.279-2.592,5.809-6.97,3.027-10.131,1.709-1.318,4.513-1.341,1.832-6.848-2.323-4.781-3.843-.5-4.323-5.619-2.156,2.357.089,1.4-2.692,2.044-3.072-2.636-1.463-1.8-.491-4.479-4.524-2.491-1.016-5.362-7.5-6.121.413-3.228.67-.625,1.151-3.619l-3.809,1.452,6.546-10.534a36.992,36.992,0,0,0,4.189-9.026c.491-1.374,1.542-2.849,2.033-4.222,1.664-4.714-1.173-2.066-.5-10.7-4.893-2.268-1.564-3.53-4.2-6.412-1.609-1.765-.525.961-.614-1.519-.045-1.318-.413-4.267.134-5.541,1.307-3,2.7-.492,2.39-6.021l-3.675-.558a13.816,13.816,0,0,0,.882-6.993c-.279-2.3-.491-.849.894-3.407-3.429-2.033-2.5-1.62-3.731-6.01-.894-3.195-1.184-3.262-4.189-4.7,2.558-.559,2.513-3.016,2.826-5.574a17.045,17.045,0,0,1-2.346-1.072c-1.709-1.128-1.24-3.63-.626-6.289l-4.837-3.686c1.664-2.167,4.356-2.971,5.742-5.351a7.4,7.4,0,0,0,1.251-3.429l.469-1.966c1.139-3.329-.76-3.63-2.569-7.183l-3.117-7.663,2.58-2.256c-1.329-2.167-1.53-1.329-1.329-3,.19-1.53.737-1.474.871-1.676l.235-.335.5-.7c-.1-.145-.357-.5-.4-.38-.223.7-2.469-3.429-1.72-5.451.782-2.1,2.681-1.888,2.357-4L258.57,576.8a8.155,8.155,0,0,0,3.463-1.765l-3.519-3.049c1.2-.8,1.609-2.569,2.011-3.82l.19-.726c.547-1.519.3-.983,2-1.832-.067-2.189-.279-1.843-1.061-3.7,2.3-.335,2.424-.491,3.742-2.033-.279-1.687-2.111-2-1.139-6.188,2.066-8.8-.458-7.875,3.865-12.511l1.508-2.558c.4-.536-1.139-1.083,4.234-1.341-3.116-5.15,1.3-3.865.581-9.193a13.831,13.831,0,0,0-1.966-.681c-1.944-.838-.5.257-1.932-1.039,1.586-4.781-.547-4.859.056-10.053-2.2,1.005-2.368,1.441-5.44,1.039,1.7-1.229,1.631-3.764,1.486-4.971l-.525-1.955c-.123-2.7-.212.235.972-3.15-3.161-.525-2.044,1.374-3-3.239-.57-2.77.235-2.29-.57-4.859-.994-3.172-.547-4.446.246-10.321-2.826.067-1.553.335-3.5,1.106-2.547-2.614-1.932.324-1.318-3.854-1.519.771-1.441,1.139-3.362.3,1.608-3.217.48-5.328,1.519-7.238l-.681.067-.369.078c-.6.168-1.139.424-1.743.637-.223-3.228-.268-2.536,1.631-4.256-1.307-1.754-1.676-2.848-3.519-3.82a69.073,69.073,0,0,0,5.943-4.736l1.441-1.363c1.709-1.452,3.329-2.089,4.066-4.569.972-3.3-.335-5.943,1.3-9.428.558-1.2,1.206-1.6,1.765-3.709.7-2.714,0-2.536.7-4.893l-1.81-.648c.1-9.037.871-2.971-1.218-6.356,2.77-.916,3.452-1.575,5.63-2.2l-.972-.57c-1.8-1.162-1.34-.983-1.72-2.7l-.223-.748c-.056-.145-.324-.559-.369-.7-.458-1.385,1.575-4.267,2.569-8.545.693-2.971,3.418-3.865,2.938-9.16-.145-1.542-.335.123.715-1.162l.257-.335,1.441-4a3.768,3.768,0,0,1-.3-.469l-1.72-5.306c-.045-1.452.949-2.893,1.832-4.278l-.882-1.273c-.056-.089-.212-.346-.268-.424a3.238,3.238,0,0,1-.279-.469c3.161-1.564.212.112,2.469-3.195a36.622,36.622,0,0,1,2.592-3.05c2.346-2.759,8.456-16.554,8.411-18.174l-.67-1.9c-.067-.1-.212-.268-.279-.357-.514-.7-2.212-.078.134-4.088l1.877-3.787.268-.413,1.944-3c.916-2.178,1.921-2.949,1.653-5.92l-1.106-6.222,3.117-1.374c-1.028-1.776-1.34-.436-.726-2.424,3.675-1.586,6.244-2.536,9.238-5.4l.715-.748c.112-.1.246-.257.369-.357,1.865-1.642,1.877-.983,3.6-2.134.815-.559.57-.413.927-.86,1.5-1.877-.637.19.7-1.285,1.642-1.8,8.165-2.67,12-7.339,2.58-3.15,8.623-3.932,12-8.154,1.731-2.178,4.893-9.808,7.853-10.522.078-.022.324-.056.4-.078l.425-.067c1.564-.29,5.205-9.327-2.916-13.516.223-3.161.458-1.441,1.441-4.39-4.814,1.24-4.647-1.117-8.389-2.927-.19-5.295-.514-2.379,1.553-6.378-.1-.056-.313-.212-.335-.1s-.29-.089-.346-.1l-3.831-1.229c2.055-.748,2.145-.581,3.373-2.323-.637-1.5-.4-.983-1.731-2.279l5.038-1.441a9.156,9.156,0,0,0,.559-4.245l1.262.827c1.318.424.369.223,1.743.268,1.452-3.049-.693-1.162,4.535-3.5,1.262-.57.156-.011,1.028-.559,1.608-.994-.67-.48,1.3-.86,2.368-.447,1.7.38,2.145,2.134,2.268-3.128-.4-3.463,2.636-.67.369.335.156,4.357,4.368-1.352,1.832.525,9.573,1.452,10.545.815-3.027-2.96-3.117.3-3.239-2.971l3.318,1.039c1.877-.112.514-.559,3.362-1.005,3.764-.6,3.05,1.329,4.837-3.217,4.647-.637,6.434-.246,10.522-1.374.19-.056.7-.19.871-.257.112-.034.29-.112.391-.145s.279-.134.38-.168l4.524.145c.737-2.48.011-2.323,2.737-3.15-.525,2.011.3-.324-.76,1.016-.849,1.061-.614-.056-1.251,1.564l3.787.391c1.084-2.513-1.865-.313.5-2.893.469-.5.715-1.307,3.105.8.994-5.362,7.9-1.821,13.527-4.837l6.423-3.72c3.675-1.519,4.5-1.128,7.439-3.563,3.776,1.017-2.178.257,2.223,1.162,2.368-2.882-.961-3.34,2.659-3.932l3.653.626a5.593,5.593,0,0,0,1.151.112c4.368.313,7.83-2.77,13.427-3.116l1.419,2.435,1.474-.793c6.468-3.6,2.1-.681,11.729-3.507-.67,4.077-.034-.056.659,3.988,8.813-6.658,14.231-2.67,16.085-2.435,2.614.324,5.6-.5,8.422-.7,3.742,1.173.156.212,1.173.9,1.475,1.005,5.44,1.62,6.769,1.452,3.709-.469-.994-.547,3.977-1.653,3.016-.681,6.5-2.614,9.8-2.77,3.172-.156,1.687.626,4.189,1.307,3.8,1.05,9.148-3.452,10.422,1.676.112-.145.268-.559.357-.424.045.067.5-.559.827-.726,1.575-.8,3.575.145,5.284,1.34l.469-2.457a1.506,1.506,0,0,1,.034-.357c2.591.112,2.323.536,4.948,1.307,3.887,1.139,2.212.011,4.289.112.983.045,2.357,1.016,4.982,1.329,4.58.559,2.145-.6,4.915-.748,2.815-.145,5.686-.57,9.863.525,4.524,1.184,2.435.3,5.5.168,3.083-.134,1.765,1.05,4.591,1.151-.536-1.955-.134-1.039-1.6-2.145,3.508-1.072.849.145,4.658.056,8.121-.179,6.412-3.541,18.71,2.994,4.345,2.3,7.574,4.055,12.086,5.172,6.557,1.62,11.394,4.937,18.1,5.82a31.71,31.71,0,0,1,15.9,6.747l.48-1.474c.492-1.173-.5-.335.726-1.285.3,3.854,6.389,14.711,8.11,19.124,2.9,7.439,7.451,9.171,7.786,16.041a10.321,10.321,0,0,0,.57,3.016l3.184-.1c-.391,4.658-1.452,1.821,1.385,6.032,2.86,4.234.827,2.2,4.546,3.016-.5,1.932.223,3.776.279,5.552.1,3.5-.95,1.184,1.731,5.049-.212.112-1.072.436-1.218.525-1.285.771-.737.1-1.642,1.24l1.933,1.609-2.279,1.754c1.944,1.8,1.229.29,1.083,3.586.145-.112.358-.5.436-.369.1.179.57-.458.838-.659.793-.6-.011-.29,1.285-.927.223,4.044-2.681.748-.737,6.054.9,2.469,2.692,4.144,3.675,5.931,1.921,3.507.592,13.672,7.786,10.176-.67,1.407-1.061,1.542-1.005,3.552l2.971-.391c-1.732,2.145-2.066.19-.369,4.055,1.083,2.48,1.921,2.86,3.865,4.155.827.547,4.513,2.178,6.758,4.245-3.195,8.746-.76,8.121-.737,8.154.391.536.693-.2,1.039,1.81.346,1.988-.57,2.692-1.005,3.887-.8,2.234-.391,4.557-1.106,6.847-.592,1.865-.033,4.546.089,6.9,4.368,2.1,7.294,4.088,9.763,8.556l1.15,1.776a7.445,7.445,0,0,0,2.525,1.151c.335,3.5-.391,2.692.827,5.909.626,1.664.491-.123.648,1.865.235,2.96-.413-.313-1.106,3.943a5.332,5.332,0,0,0,.76,4.479c1.519.369-.469.369,2.122-.793-.469,5.909,1.832,9.785,3.273,15.315l.212,2.815c.123,3.865.57,1.787-1.117,5.8-1.419,3.385,2.033,7.06,2.424,10.668.235,2.111-.458.726.6,2.837.782,1.553,2.9,2.9,4.122,3.686l8.356,10.321a17.984,17.984,0,0,1,2.446,4.7c.76,3.172.045,1.229,2.323,3.53,1.084,1.095.357-.179,1.508,2.167,1.072,2.223.424,1.017.76,2.4.056.19.123.737.179.916.838,2.77.838.648,1.977,3.474l-1.664,4.155c2.4,1.9,3.195,5.686,2.335,9.439-.034.123-.123.335-.145.458-.235,1.106-.212-.112-.179,1.218l.771,2.837.179.425c1.4,3.753-1.91,8.668-3.708,12.254-.168.324-.715,1.218-.749,1.3-.961,2.078-.692,4.211-.38,6.389-3.195,3.306-1.363,1.016-3.418,5.015-1.5,2.9-2.368,2.156-4.937,4.289a7.318,7.318,0,0,0,1.564,5.418l-2.726.882c1.6,3.474.3,1.4-1.139,4.915l-1.329,11.438c0,.022,1.754,2.525,1.821,2.569l2.927,1.24c2.9,1.966.659,2.346.637,2.871l1.262,3.429c.045.112.089.313.134.424l1.419,2.591a24.413,24.413,0,0,1,3.753,5.742,4.739,4.739,0,0,0,.927,1.218c.938.961,1.117.335,2.3,2.011.637.894,1.005,3.988,1.084,4.96.469,5.485-3.642,5.038-1.709,11.092,1.05,3.306.313,3.72,1.3,7.2,1.005,2.368,4.111,1.285,4.278,6.982.134,4.133,1.53,2.6-.525,6.244l6.5,4.479c.458,3.273-.883,4.222-1.184,6.624-.223,1.776-.212,3.5-2.58,4.423-1.117.436-2.792-.424-4.513,1.642-2.033,2.435.179,2-3.686,5.328,1.005,1.307,2.435,2.849,2.391,4.8-.067,3.854.034.693-.715,2.145-.916,1.81-3.552,1.162,1.933,6.066l-5.049,1.016c-.793,3.128-1.095,4.032,1.508,6.981-.089.167-.279.212-.324.492-.045.335-.525.8-.625.972-1.72,2.837-2.536,7.7-2.793,10.712-.268,3.094-1.62,3.5-1.742,5.876-.179,3.507,1.162,3.452,2.692,3.775-.134.123-.391.089-.436.313-.257,1.374.168-.38-.782.626l-2.96,6.3c-.346,4.133,2.234,1.173,2.089,4.8-.156,3.653-.8.737-.771,2.658l.056.235a2.206,2.206,0,0,0,.112.235c.368,1.005,1.754.469-1.251,3.362-.089.089-.3.246-.436.38,1.262,3.709,1.709,2.111.335,5.429-1.151,2.8-.927,3.753.447,5.865-3.429,1.72-1.966,4.837-11.9,8.3,2.055.771,1.966,1.128,2.915,3.094-6.892,9.383-2.145,5.943-4.423,9.908-2.111,3.675-5.473,5.071-6.01,10.087,2.58.983,1.028-2.681,2.893.86.29.547-.123,4.49,3.7,7.674,1.452,1.206,1.653-1.586,2.357,4.077l2.5-.168c-.67,2.983-2.513,2.223-1.407,5.641,1.653,5.083-.626,4.647-2.234,9,3.586,1.754,3.441-.4,3.262,5.418a10.747,10.747,0,0,0,1.452-.57c1.787-.536-.2-.726,1.307-.223.145,4.725.011.894-2.122,4.435.1.168.29.2.346.469l.592.927c1.028,2.312-1.553,3.061,2.837,5,2.346,1.039,1.4-1.095,2.4,1.687,0,0-.883-2.29-1.609.827,2.268,1.251,6.68.838,7.775,1.6,1.7,2.6-.2.637.894,2.513,8.534.436,6.2.726,15.784-2.8,4.815-1.765,6.725-.983,10.6-2.223l4.624-1.877c4.3-.748-.324.447,4.01-.011,2.815-.3.916-.614,4.256-1.005l7.987-1.519c.078-.078.223-.234.313-.313l13.371-2.982c.793-3.306,2.469-4.345,2.871-4.591l-3.251-1.754c-.179-4.312,1.218-4.814,1.608-7.92.5-4.021-1.91-3.206-3.217-6.345,2.245-3.217,4.613-4.613,6.255-6.881a8.505,8.505,0,0,0-1.508-2.737l-3.072-1.184c.067-.168.19-.592.257-.492l2.915-3.083c-1.877-2.614-3.172-1.675-3.776-4.256-.424-1.731-.19-1.128.212-2.346a12.254,12.254,0,0,1,1.921-3.195c.67-1.888-.268-2.089-.369-4.446,2.469-1.977,3.262-5.931,2.636-9.517,4.412-2.368,3.7-1.207,4.636-6.691.86-4.982,2.547-6.423,1.709-11.505l-.581-7.864c0-.011-.1-1.218-.1-1.34.022-.961-1.4.637.3-.894l1.609-.748c-3.351-2.212-2.681-4.915-5.574-7.115l-1.307-.916c4.066-5.686,1.251-5.06,7.886-10.333-.145-.134-.357-.536-.424-.4l-1.81-1.15c-.145.1-.346.123-.38.357l-2.692,3.5c-2.044-.771-2.781-1.765-3.519-3.82-1.586-4.479,2.335-.346-.357-5.328,1.474,1.117,1.4,1.318,3.854,1.262-1.72-3.027-2.167-4.189-2.424-6.915-.257-2.882,1.173-2.726-.581-6.535-.7-1.508-.167-1.028-.972-2.591.994-1.028-.614-.682,2.513-1.117-1.028-2.681-.514-4.077-1.653-6.535-1.251-2.714.112-4.8,1.966-6.524-4.423-4.736-.648-2.547-3.82-8.657.234.033,1.028.279,1.173.29,3.116.313,2.122.112,2.346-.994l.927-4.546-3.206-.871c1.72-3.407-.279-3.452.514-6.736.659-2.714,1.43-3.362.536-5.853-.078-.234-.357-.894-.447-1.117a7.954,7.954,0,0,0-1.519-2.781c-1.329-1.72-2.257-3.72-3.82-4.826l-3.027-1.821a37.224,37.224,0,0,1,.681-4.736c.715-2.77,1.463.078.212-3.932-1.363-4.356-.369-2.826.1-7.618.424-4.155-.391-6.233-.48-9.238l.078-1.91c.045-1.53.324-.436-.078-2.435-.6-2.893-1.039-1.6-2.256-4.111,1.53-1.072,1.921-1.62,3.63-2.77l-2.781-.927c.335-3.452-.626-5.228,1.218-7.819,2.457-3.44,2.48-4.111,1.5-6.635a4.271,4.271,0,0,1-.581-1.776,11.007,11.007,0,0,1,.123-1.731l2.636-10.131c-.045-1.005-.078-.6-.637-2.011l3.34-.916-3.385-1.139c1.6-2.916,3.642-1.452.089-3.407l6.065-8.623c-3.574-.76,2,.838-3.105.592,1.117-2.2,1.519-2.189-.168-3.642l1.251-1.5c-1.162-1.318-.57.078-1.206-1.765,2.915-.5,1.888.626,3.072-3.641-3.117-1.709.4.246-2.592.19l3.619-5.049.179-.369c1.285-2.614,1.095-2.078.022-5.116,6.926-.078.045,1.3,4.68.961a4.462,4.462,0,0,0,1.419-3.094c-.078-2.815-3.6-3.184-4.2-5.63-.2-.782.447-2.413-.123-5.228l.894.894c1.921,1.408,1.117-2.949,1.821-5.038-2.29-1.687,2.636,1.24-1.441-.5-1.8-.771.961.693-.961-.413-2.256-1.285-.067-1.486-3.608-2.77,2.089-1.676,1.575-3.049-.838-4.937l-1.352-.916a5.606,5.606,0,0,0,1.273-1.084l.078-.625c.179-3.91-.078-.57,1.005-4-3.53.034-1.72-.034-2.692-.815s-.022-.034-.949-1.206l-.592-.8a2.634,2.634,0,0,0-.313-.38c3.742-3.329.681-2.7,2.524-4.647l1.072-.525a1.6,1.6,0,0,0,.424-.112c-.112-.145-.368-.525-.4-.4s-.324-.313-.391-.391c-.089-.1-.547-.581-.637-.715-.9-1.508.76-2.681-1.139-3.664-.067-.034-.29-.089-.357-.112s-.279-.056-.335-.067l-.648-.056a14.748,14.748,0,0,1,3.184-2.368c-.726-1.072-.011-.168-.972-1.151l-3.552-4.837c1.743-.715.737.134,1.139-1.832,3.876.235,3.418,1.988,5.418-.871-1.273-1.441-4.155-2.5-5.864-3.083l.391-6.311c.637-5.842,4.647-6.4,5.641-8.534,1.586-3.385-.48.369.5-1.553l1.341-1.564c.112-.089.38-.212.48-.279s.346-.156.514-.257l-.983-3.385a19.356,19.356,0,0,0,2.737-1.162c3.139-1.653.882-.4,1.095-1.307.067-.3-1.095,1.072.614-1.575.011,0,.715-.949.894-1.229l3.049-4.77c1.586-3.105-.972-4.267,3.8-5.876-2.737-2.145-.179-3.82,1.43-4.725l4.044-4.513c1.24-1.676-.67-.1,1.731-1.888.491-.38,1.865-.994,2.3-1.273-1.017-4.133,1.843-3.139-2.781-4.479,1.731-1.4,1.262-.346,3.094-1.586a4.3,4.3,0,0,1-1.486-.447,3.075,3.075,0,0,1-1.184-.882c.927-2.156.748-5.049,1.854-7.976l-2.4.447c.838-2.525,2.714-4.4,3.742-6.9,1.966-4.759.5-3.776,4.714-6.568,4.569-3.016,4.133-1.977,3.932-5.585-.246-4.479,2.781-1.151,1.754-8.311,4.334-.045,8.009-2.994,10.154-6.68-1.843-3.105-1.776-.436-2.927-3.4l5.4-3.876c-1.206-3.664,2.245,2.938-.715-.9-1.2-1.553-.983-1.128.48-2.681,2.625-2.781.715.413,1.921-4.267.48-1.865.492-3.172,2.357-3.418l3.932-1.106c3.764-1.62,8.836-5.473,9.807-9.562l.346-2.223c0-.067-.056-.268-.056-.346s-.067-.268-.067-.335c-.011-.123-.179-.123,0-1.039.235-1.139,1.318.849.715-1.81-1.72-4.289-6.781-1.028-9.383-4.412l2.692-.458c.268-2.558-.313-3.094.9-4.971,1.474.815-.86-.1,1.162.514,1.53.469.167.871,1.575.168.715-4.915-2.078-6.289-1.91-11.249.078-.067.268-.179.3-.089l.949-.257c2.793-1.2-.324-2.86-1.72-4.6a19.564,19.564,0,0,0,6.345-5.708,9.2,9.2,0,0,0,.8-1.039c1.05-1.631,1.821-3.373,3.575-4.479l1.91-.949c2.983-1.519,3.318-2.368,6.948-1.329l1.072-3.7c.715,1.542.067,1.944,2.48.961a2.05,2.05,0,0,1,.268-.145l3.63-1.843c1.62-1.921.346-1.53,2.971-2.815-.469-1.966-.011.19,0,.212l1.173,1.642,1.676-3.675,4.044,1.05c1.888-3.128,10.422-13.371,16.018-8.076,3.385-5.317,2.011-1.262,5.7-3.318,2.536-1.72-.346-3.15,4.837-5.462,10.858-4.837,4.133-2.145,11.908-2.793,1.932-.168,3.6,1.4,4.814-.659,1.676-2.86.871-.626-1.017-2.714,1.128.357-.045.525,1.2-.011.078-.034.291-.123.369-.168l.7-.592c.112-.089.235-.29.335-.391a7.109,7.109,0,0,1,2.614-2.022l5.529-2.659,3.407,2.078,1.508-5.373,3.6,1.966c.212-.29.335-.737.4-.614l1.4-1.463c2.011-.994.022-1.173,2.122.581-.045-2.681-.592-2.212,1.24-3.05,1.541,2,.3,1.653,1.206,3.988,1.676-.8,1.553-1.888,2.592-3.586,2.6,1.218,1.731.346,3.82,2.335.011-.011,1.385-.782,1.43-.815.559-.279.894-.4,1.43-.681a15.965,15.965,0,0,0,1.43-.782l1.6-.994a3.852,3.852,0,0,1,.57-.369c1.218,2.29.693,2.067,3.552,2.9.335-2.368-.949.011-.045-1.81,1.017-2.067.011,2.547,1.542-2.3,1.162,1.53,1.519,2.759,3.831,2.335,3.429-.637,1.273-1.441,4.245-1.285,2.1.112,1.8-.547,4.58-.067,4.524.771,6.456,3.943,10.165,4.7,4.066.838,4.9,3.262,9.115,2.457l1.173,3.206c1.988-2.346.793-.525,3.764,1.028l4.613,4.814a2.942,2.942,0,0,1,2.983-.257l1.106.469c1.151-.168.011-.324,2.8.022a8.238,8.238,0,0,0,1.988.1l1.944.223.29.045.816.123.324.067c6,1.162,9.506-3.139,19.124-1.8.592.078,3.3.726,4.535.838,4.066.357,4.457-1.419,8.445-.938l.369.067,8.691-.737.223-.156c.045-.022.2-.145.257-.168,3.653-1.441,1.318-.559,4.5.7.693-1.843.011-1.5,1.932-1.865l4.167-.145c26.228.5,16.342,4.468,25.8,6.032-1.743-2.323-1.854-.4-3.105-3.262,3.34.771,1.318,1.34,4.937,1.34-3.016.9-1.5.849-2.145,1.944,7.093-1.486,14.611,4.189,17.839,3.195.894,2.893-1.608.6,4.7,3.519,3.943,1.821,2.48,1.363,7.339,1.463-.022,3.809,1.877,2.178,6.021,2.994l3.608.882c1.776.849-.871,1.084,4.01,1.564l-1.966,2.759c1.575-.134,3.887-.7,4.792-.424,1.072.335.168-.045,1.128,1.005.089.089.224.279.3.369l1.095,1.162c4.077-1.05,2.268-1.709,5.5-2.781a9.217,9.217,0,0,1,1.273,1.05c2.212,2.212.592,3.061,3.82,3.329,2.48.2,1.821.849,3.217.67a13.714,13.714,0,0,1,2.714-.592c-.949,1.229-.76,1.474.3,2.536l.391.335,4.6,4.781c3.988,1.419,2.759-.067,6.881,2.569l5.027,4.077c3.764,4.234,2.882,2.268,4.993,5.82,1.732,2.9-.8-1.039,1.877,1.865,2.3,2.513,1.229.357-.19,3.195,5.63-2.234,5.663,5.809,8.288,8.087,3.519,3.049,12.042,6.959,10.534,12.522l4.457,2.346c4.636,2.457,2.569,6.847,8.288,12.745a13.664,13.664,0,0,0,3.139,2.5c4.211,2.949.67,2.96,6.2,5.842a11.625,11.625,0,0,1,5.641,5.842c1.24,2.848,2.759,3.385,3.843,6.043,1.061,2.625,2.446,2.212,3.82,7.283.871,3.217,2.647,6.456,4.725,7.54-.078.19-.268.246-.3.559s-.223.413-.279.559-.2.38-.257.559l-.525,5.607c-.38,3.083-1.754,4.1-2.391,6.836.179.078.469-.056.581.179.413.882,1.653.436,2.6,1.005.19,2.815-.145,1.72.771,3.876,1.005.391.447-.29-.357.436l-.816.7c.358,3.954-.134,4.792-.748,7.953l-1.084,4.211c-1.229,3.5,1.653,4.468.5,5.529-1.117,1.039-.257-.1-1.865-.324-1.631-.235-.123-.547-1.273.045,1.005,1.921.9,1.575,3.049,2.8-1.485,1.374-.681.525-1.407,1.7-.078.123-.179.313-.246.436l-1.218,2.346c-.76,1.944-.123,3.977.078,5.931.1,1.061.514,5.183.458,5.864-.123,1.609-.2,1.173-.335,1.642-.045.168-.134.346-.19.514s-.134.346-.19.514l-.916,3.686c-.224,3.061.983,2.346-.425,5.7-2.938,7.015-2.536,12.03-2.067,19.425-.022.011-1.553.86-1.821,1.061l-1.943,1.687,5.015,3.239c4.044,2.089,3.251,1.609,6.378,6.155l3.072,8.657c-2.391,4.58-1.743,2.457-.369,7.652.581,2.156-1.284,4.725-3.116,6.166l1.866,3.72-1.754,2.145c-.022.637.882.994.235,4.524-3.016,16.476,3.5,5.876,2.469,22.441-.145,2.357.4,5.775,1.452,7.406-3.664,2.67-2.547,3.105-.849,6.468l-1.552,2.223c-.078.134-.2.313-.268.436l-.413,1.5c.011,1.363.514-.1.369.692-3.117,1.285-1.43,1.251-4.021,2.759l3.965.637c-.793,2.7-.346,2.134,6.468,5.652l-.5,1.061c-1.508,3.485.883,3.586-1.642,7.64,1.742,1.3,1.7.938,2.312,3.4-1.564,1.095-.614-.224-1.966,1.564.413,1.921.916,4.893,1.631,6.267-2.066.95-4.6,2.122-3.82,4.334,1.005,2.8-1.273,3.641-2.044,6.322-.492,1.743-.224,3.921-1.218,5.619l-2.826,4.278c-.592,1.664.246.279-1.028,2.357l-4.3,8.378a9.267,9.267,0,0,1-1.765,1.519c1.575.7,1.407.369,2.167,1.776a25.928,25.928,0,0,1-3.854,5.485c-2.011,1.731-3.128.123-2.212,5.652,1.3.737,1.8-.268,2.134-.168.1.715.246,2.189.4,2.815.949,3.854,3.988,5.607,4.725,9.774.5,2.837-1.206,4.088,2.1,6.1-1.061,1.2-2.044,2.67-3.072,3.787a19.335,19.335,0,0,0,4.2,2.536l-.458,8.579-2.256.737c-.246.034-2.424,0-2.849,0,1.519,4.167-1.039,3.552-3.117,8.188a6.2,6.2,0,0,1-1.452,2.212c1.486,1.229,1.91,1.095,3.485,1.966-.447,1.553-.48.994-.637,1.251-.324.547-.335-.1-.6.894,2.067.7,3.485,1.854,6.088,1.542.648,3.574.011-.346-.827,2.413a14.207,14.207,0,0,1,2.67.078c2.413.458,3.608,2.647,5.7,3.172,3.027.782,1.843-2.111,7.507,3.016-.458,1.441-2.078,1.072-1.2,3.228,1.139,2.759-2.312-2.737,1.15,1.095,1.62,1.8-1.519,1.017,1.933,4.3,2.055,1.955,1.508.335.592,3.15l3.463,1.273-1.4,4.021c-.313,1.586-1.4,2.849-1.921,4.658,3.094,3.787,1.486,2.558,2.223,5.25l1.452,2.636c-1.318.8-5.742,4.6-5.306,6.389.57,2.346-.8-.614.771,1.128.1.112.3.257.4.357l.882.726c-2.547-1.117-.022-1.318-3.306-.268.469,2.815-4.312,13.538-6.066,15.292-1.363,1.352.179.681-2.5,1.017,1.608,2.9,1.676,1.575.8,4.088-.067.19-.346.849-.413,1.039-.86,2.156-2.558.123-7.54,7.406-.994,1.441-1.329,1.5-2.145,2.748,1.352.648,2.279-.514,3.206-.235-6.736,5.619-2.692.559-6.043,6.334-1.932,3.317.335-1.7-.7,1.106a3.748,3.748,0,0,0,1.742.179c.123.022.335.022.469.034l1.564.313a2.7,2.7,0,0,1,.547.168c-1.541.916-.2.19-1.407.894l-4.759,3.619c.4,2.055,1.095,3.161,1.385,4.513.056.3.268,3.44.268,3.485-.045,1.329-.324,1.9.838,2.715,1.262.871,3.094.994,4.613,1.162l-2.547,1.854-.179.268-.179.246-.849,1.117c2.982.9,3.251.045,6.144-1.329,0,.011.4,1.731.4,1.921,0,2.033-2.357,1.675-.29,2.96,2.145,1.341,4.3.38,5.931.715.514,1.463-2.122,2.391,2.156,2.625,2.279.123,1.452-.782,4.937.8-5.328,3.966-5.63-2.569-7.964,3.541l8.635-.3c-1.285.313-4.044.3-4.323,2.435-.268,2.022,3.061.022,4.077-1.285,1.474,1.474.234-.078.815,1.865,1.508,5.038-1.408-1.083.335,1.6,1.341.033.8-.022,1.731-.357,4.457-1.642,6.635-3.954,11.874,1.419,2.793-1.519.346-1.642,4.1-2.033.145,6.222.3,2.022-2.011,5.641,1.441.525-.246.7,1.206.056l1.43-1.05.4,4.133c2.457-1.273.268-4.122,2.011-7.015,2.726-1.877,1.877.291,4.569.648,4.39.581.022-1.687,6.088-.938,2.6.324,4.569,1.039,7.171,1.15,3.105.145,6.244-.67,9.428-.771,3.128,3.91,2.871.547,9.249,3.016.67-1.441,1.072-2.223.793-3.809-.435-2.424-.112-.145-.558-1.441-.782-2.234.291-5.585.313-6.568.056-1.787,1.084-.223-.447-.86,4.747-.268,4.267-2.111,6.322-5.7,2.111-3.686,1.709.737,3.3-6.512.268-1.251.458-1.664.8-3.284,1.218-5.641-.19-1.184-.235-7.417-.033-3.351-.871-2.915-1.128-6.523l-1.542-10.2c-.994-3.161-2.692-3,1.229-5.1l.492-4,2.379-.871c-1.408-9.372,1.151-7.965-2.3-11.215l2.659-4.736a44.5,44.5,0,0,1-2.636-3.608c-.547-1.117.123-.972-.86-2.357-.078-.1-.224-.268-.313-.369l1.943-1.374c-.748-1.944-.827-2.368.536-4.457s1.452-4.859.179-8.132c.156-.123.38-.525.492-.38l2-7c.48-2.48-.156-2.011,1.408-3.407.8-.715.514-.335,1.34-.815l1.921-1.028c-.335-3.463-.648-2.323-1.218-4-1.095-3.251.67-2.849-2.357-11.963-1.262-3.832-1.575-5.038-.413-7.842.268-.659.682-1.162.145-2.044-1.329-2.2-.737.782-2.178-1.932,2.134-3.094,3.619-5.54,6.613-7.752a3.5,3.5,0,0,0,.514-.391l-4.367-.894,1.6-2.379c-2.5-1.318-.6.626-2.3-1.8,1.117-3.843-2.044,3.273.615-.916,1.676-2.659-1.061-2.58,1.8-9.115-2.5-.536-4.312-1.206-5.741-2.938l-1.665-2.323c1.8-1.575,1.519-.86,2.58-3.038-1.441-2.6-1.944-3.195-2.111-6.021,0-.011-.134-.737-.157-1.028-.078-.782.056-1.62-.022-3.463l-2.692-.19c.492-.994,1.084-1.709,1.329-2.156l2.8-7.719c-1.273-2.133-.514-1.564-2.625-2.5,2.234-5.864,1.385-.3,1.005-4.055,4.312-.559,1.675-.6,4.7-2.647-2.648-1.6-5.161-.715-5.619-4.334-.391-3.128.257.1.547-2.111.257-1.932-1.017-3.373-1.05-4.524-.167-4.669,1.284-1.005,2.435-4.7l-4.379-5.708a7.929,7.929,0,0,1-1.162-1.2c3.15-1.72,3.251-1.4,2.949-5.719-1.877-.525-.29,1.474-3.284-1.039,1.341-3.228,5.072-5.183,8.668-5.563-.022-2.759-.223-7.037-1.81-8.657,3.374-1.385,2.6-2.86,4.7-4.993,1.229-1.251,1.307-.782,1.932-2.994,1.866-6.535-.145-14.264,3.172-17.616l-1.754-1.687c3.06-.6,1.5.257,2.558-1.932-2.312-4.189-2.457-3.563.514-7.875-.726-.357-.558.045-2.346.76-.625-5.6-2.29-3.016-.29-8.534,1.765-4.859,4.278-5.261,4.446-10.5.1-2.714-.916-3.306-3.016-3.63a2.665,2.665,0,0,1-.48-.034l2.413-1.854c-3.183-1.407-2.055.9-2.915-1.385,2.7-.838,1.083.268,1.865-2.055l-2.346-1.709c.771-3.385,1.53-2.335.871-4.3l-.715-1.631c-1.921-2.122,2.435,1.083-.4-.257l-.592-.134a1.08,1.08,0,0,1-.346-.045c2.737-1.664,1.151-1.5,2.759-3.485l4.926-4.2c-.793-4.289-1.564-2.681-2.178-3.854-1.139-2.167-.972-4.714-1.374-6.825-.469-2.5.123-3.429-2.212-4.557,1.285-.659,1.754-.648,2.949-1.251-1.575-3.9.112-7.775,2.022-11.561,1.485-2.938.793-3.563,1.2-6.948.29-2.435.145-3.206,1.486-4.7.056-.067.257-.212.357-.335-2.111-1.4-.8-.022-2.391-1.955,1.944-1.687,3.653.179,4.759-3.206l-2.335-2.435c-1.106-1.888-.067-1.586-.748-3.954,2.279.715.335,1.2,3.239,1.084.737-4.77-2.145.3.145-3.854.625-1.106,2.245-1.832,3.273-2.3-.86-3.418-2.48-4.055-1.073-7.7.693-1.81,2.513-4.189,3.708-6.937l-2.725-.827c2.994-.67,2.066-1.631,2.279-4.68.581-8.422,2.323-3.273-.447-8.422l-2.446-2.8a2.5,2.5,0,0,1-.424-.067c2.178-3.541.983-3.3,2.279-6.78-2.357-.38-1.128.67-3.116-.994.871-2.737,3.485-3.049,5.652-4.658-3.273-2.457-6.736-.693,1.229-6.2.335-3.965.648-1.061,2.491-4.569l2.011-6.948,8.1-8.892c1.329-1.273-.313-.38,1.151-.882l1.888-.134c-.045-1.877.179-1.039.313-1.508.223-.815,1.027-3.675.134-5.641l5.775-2.536c.123-.078.291-.212.413-.279s.268-.223.4-.29c1.609-.994.268-.8,3.206-1.273,1.24,2.77-.76,2.58.916,2.189,2.044-3.82-.994-2.558,1.72-5.853l.525.458c1.642,1.072-.447.458,1.709.938,1.91-1.832,1.675-2.111,2.178-5.429.156.112.335.134.413.391.369,1.151,1.609,1.832,2.871,2.569l-.167-1.6c-.391-1.8-.279,1.3-.525-1.9,2.535,1.095,4.982-.782,6.389-2.893l4.68-3.563c.927-.614.782-.369,1.575-1.6l1.106.514.346.156.76.29a20.019,20.019,0,0,0,1.4-2.033c.022-.067.089-.268.1-.335.022-.045.034-.246.045-.279l-.034-.223c-.011-.078-.167-.179-.324-.346,2.971-.313,5.853,1.151,8.3,1.966a26.151,26.151,0,0,0-2.714-2.748c.067-.168.212-.57.257-.469l.547-3.53c3.9-.838,2.38-.413,4.647-2.625l3.53-5.5c.514-1.575.1.223.257-1.273l3.91-11.114c1.754-1.743,3.977-3.53,7.25-3.731,4.434-.279,5.261-2.145,11.394-2.826l-1.452-3.619c-.089-.134-.391-.536-.469-.67-.793-1.419-.8.3-.5-1.273,3.094-1.419,1.642,2.29,4.781-2.636h4.625c1.888-.257.871-1.206.145-3.385,3.34.469,5.406-2.659,8-4.446l4.535-2.7c2.111-1.564,3.7-1.754,6.724-1.463.079-.123.1-.525.123-.424l.6-1.463c1.408-1.709,5.217-.726,7.708-1.43,4.725-1.34,2.748-1.24,7.328-1.352,1.586-.033,2.268-.033,3.262-.033l5.552-.849c3.25-1.128,8.746-1.262,11.908-2.134l1.519-.48c1.318-.022.8-.156,2.346,1.218l.67-2.29,3.731.994c.145-2.96-1.094-3.105,6.4-3.217,3.195-.045,4.859.57,6.892.76,4.513.413,9.238-3.306,12.678.771.5.581.291.7,1.151,1.743,1.229-5.842,8.333-4.4,12.31-2.7,4.379,1.877,1.664-1.407,6.121-.2l2.759,1.419c.134.067.324.168.469.235l.491.212,5.865,2.647.547-2.357,1.653,2.592c.726-2.078-.4-.581,1.307-1.084,4.255-1.251,6.758,2.089,10.969,1.162l.425-.089c5.451-1.273.592-.67,4.256-2.424,4.1,2.5,2.212.938,7.171.1,3.854-.648,2.066-.056,4.2.391,3.564.748.581-.123,2.525-.748,2.547-.815,2.636,1.206,5.283.949l7.674-.123c4.446-.424,11.662,1.24,16.186.871,14.387-1.151,13.561,2.793,16.063.045,1.609,2.29-.682.86,1.944,1.865l6.925.793a1.223,1.223,0,0,0,.29-.067c2.971-.849-.871-1.05.9-.8,3.228,1.005,4.021-1.016,7.037,1.084,4.234,2.938-.715,3.239,5.663,3.742-.112,3.273-.056,3.362,2.324,4.736,3.53,2.044,2.491,1.017,4.278,1.128l-.167,1.329a18.574,18.574,0,0,1,.246,2.927l3.15-1.262c1.709,2.212-1.385.458,1.408,1.664l8.054,2.927c.19.089.726.413.9.5l.815.413c1.787.938,4.747,2.647,8.154,2.96,1.843.179,10.612-.614,3.843,3.284.815-.145,4.893-.693,5.752-.424,3.5,1.061,1.117,3.128.76,6.121,3.463-.637,1.709.089,3.664.134l.547.022c3.418.011,2.9-.48,5.172,2.547,2.457,3.3,1.519.693,4.066,3.016,1.307,1.206,2.2,3.53,3.128,4.691,1.72-.313,1.787-1.095,2.848-2.268.5,3.843,4.9,3.742,3.128,8.467-.726,1.921-.882,1.609-2.111,3.094l1.664,3.91c.637,3.206-1.285,2.4-.335,6.1.6,2.3,1.419,2.279,1.675,4.066.28,1.944-.525.961.033,4.155l2.927,6.691c1.81,2.178.693-.771.86,3.53,3.049.089,2.547-.458,4.658.871,1.463.916.424,2.29,2.77,1.285-.212,1.106-.838,1.43-.2,2.379a21.056,21.056,0,0,0,3.586-1.821c-1.017,2.938-1.687,2.457-.972,4.356l1.284,6.311c.458,2.793-.726.168,1.754,2.871-1.943,1.34-.826.1-2.234,1.866.938,1.542.022.8,2.926,1.139l-1.8,1.7c1.53,1.463.179-.112,1.474,2.055l1.508,2.927c1.508,2.279,3.63,2,5.887,2.536-.179,2.524-.726,2.681-1.418,4.691,2.6.815,1.24.2,4.222-.391-1.508,2.982-1.061.514-1.486,2.5l3.039,1.139c.134.078.324.168.458.246,2.267,1.285,2.111,2.536,4.915,3.318-1.452,3.507,1.106,1.653-1.318,3.34,1.687,1.151,2.3,1.151,3.262,3.183l.5,1.475c1.139,3.988-.782,1.084,1.91,3.161.279.212,1.206.961,1.463,1.229l.938,1.262.257.279,1.14.815c.089.056.324.168.469.268-2.636,1.474-1.4,1.966-.614,4.636.871,2.96.625-.268,1.028,2.346.279,1.709-.4,1.106-.346,3.7,2.96,1.743,2.837-1.24,2.29,2.167-.5,3.184-.313.715-2.871,2.982l.8,3.027c0,.156-.045.391-.056.536l-.19,1.05a8.929,8.929,0,0,0,4.144.916l-.492,1.7c3.005-.056,1.564-.447,3.24.76-1.888,2.413-4.915,3.374-6.859,5.9,1.877.681,1.955.514,3.273-1.285,1.687,2.3.369,3.764,7.239,8.9-.19,3.8-1.676,5.205-3.865,7.741l2.7.938c-1.988,2.089-.927.525-2.145,2.837-1.128,2.156.614-.089-1.005,1.8-1.073,1.251.212.235-1.664,1.273.391.637,1.407.7,2,2.413-.815,1.117-1.921,3.172-2.7,4.468.134.134.347.1.424.346.525,1.62,1.329.737,2.335,2.524-2.38.827-1.128.246-2.692,1.62l-2.234,2.848c-1.028,2.234.849,1.664-1.475,5.071l3.709,2.4-2.167,5.1c-.737,3.82,2.033,3.161-.424,8.9-.938,2.178-1.687-1.273-.48,2.591.491,1.575.726,1.05,2.413,2.223-3.161,1.609-2.781,7.16-1.095,10l1.039,1.262c.123.112.313.235.435.324l.883.492c1.318.894,1.061.436.547,1.787l-.614,1.24c4.379,1.028.134-.156,2.111,1.43l2,1.452c-2.256,4.714-.19,1.5-3.061,3.787,2.179,4.7-3.921,7.562,3.195,8.266l-1.8,1.084c-.134.089-.324.212-.447.3l-2.7,1.877c1.9.927-2.145-.793,1.262.335l2.156.827c-1.922,1.843-2.771,1.608-4.535,2.86,3.653.547,3.5-2.256,6.032.592.346.592-2.279,2.815.145,5.608l-3.921,3.764c-.7,1.664,1.084,4.323-.056,7.562-.916,2.614-.48-1.3-.8,2.078a14.309,14.309,0,0,0,.346,2.96c.022,2.111.257,1.419-1.128,2.636l1.341.9c1.061.838.156-.145.916.849-2.055.815-1.8.726-2.8,2.558.123.134.324.156.391.413.089.324.626.681.748.827.469.57.76,1.016,1.307,1.664l2.569,2.424c-.123,3.753-3.318,2.2.972,4.837l2.1,1.34c-.972,2.4-1.229,1.72-2.782,3.764,1.8,2.133,4.245,2.435,6.345,3.8-3.463,2.893-1.162,5.954-4.814,8.221-1.508.927.29-.1-1.575.5l-.894.279c-4.2,1.776-2.647,3.016-3.094,4.167-3.53.782-4.7.8-5.965,3.284-1.218,2.4-.134,3.708-1.061,5.161-.614.994-.38-.48-1.218,1.642l-1.385,3.15c2,1.631,1.922.9,2.044,2.994.089,1.5-.1.6.435,1.765,1.474,3.195,2.323,3.8,1.095,7.305,2.949.558,1.865-.268,3.229,1.664-1.084,2.368-.078.246-1.586,2.178l-.659.827-.3.4c-1.552,2.234-.492,3-.112,5.719-2.156-1.083-.938-1.083-1.844-1.039a1.08,1.08,0,0,0-.178.536c-.112,1.988-1.028,3.329-.815,5.25l-.625,7.853c.435,1.374-.425,2.368-.023,4.379.8,3.876-.86.581,1.888,3.519-1.731.681-4.312,1.765-4.211,3.653.1,1.977-.235-.894.927,1.932l-2.893,1.3c-.056.056-.156.223-.212.268l-.447.5a3,3,0,0,1-.3.223,14.6,14.6,0,0,1-5.842,1.474c.782,4.9-1.229,2.7,2.29,5.563-1.9,1.988-1.262-.4-1.4,2.335-.168,3.239.715-.022.827,2.737l-3.865,1.743c.123.134.335.112.4.335l1.542,1.553c4.524,5.976,2.245,9.752,2.837,13.561.38,2.491.86,5.708.29,7.875-.29,1.128-.436.123-.48,1.888l3.161,1.106-3.406,6.345c-1.352,3.742-.09,2.368-.112,2.949-.056,2.033.022-.6-1.531,2.86,3.809,1.553,1.854,3.887,3.217,7.127l.693.9a10.391,10.391,0,0,0,1.162.547c-1.5,1.385-1.4.883-3.34,1.407,1.285,2.5,2.446,3.385,5.272,3.463a22.457,22.457,0,0,0,.38,4.49c.134,1.8-1.005,1.474-1.608,4.111.994,1.028.8.492,1.541,1.162,1.955,1.742,2.871,5.217,3.206,7.473.558,3.7.424,1.028,2.379,3.653-1.888,2.513-1.72.838-2.714,4.088l3.731.547c-.771,2.837-1.486.938-1.8,3.742,1.531-1.363,2-2,4.2-1.519.927,2.346-.95,1.486.458,3.184.737.882.056-.156,1.05.86-7.171,4.077-4.758,1.251-10.813,3.262-.637,2.927,1.653-1.541.089,1.709-.726,1.486-2.692,2.312-3.91,3.15l-.29.2c-2.033,1.273-4.937,2.58-6.624,4.859-.994,1.329-.659,2.055-2.245,3.3-2.781,2.2-1.486.022-2.2,2.781l5.909,3.664c.782.67.994.693,2,1.553l1.676,2.424c.737,1.139-.5-.212.771.9l2.089,1.34a5.09,5.09,0,0,0,2.592.827c-1.519,4.166-.324,2.491,1.743,6.311l2.5,2.58.391.291c.112.089.268.246.38.324l1.508,1.151c2.067.961-.3-.469,1.8.268-.413,2.6.715-2.859.034,1.207-.234,1.363-1.329,2.212-2.189,3.172,5.44-1.2,1.407-2.055,7.964-.994-.011,2.268-1.62,3.273-.157,6.523.045.112.157.313.212.424l.771,1.273c-.782.916-1.2,1.285-1.977,2.234l4.357.156c-1.374,2.134-2.413,3.072-2.29,5.44,5.507,1.62,4.323,1.6,8.914,7.171-1.285,3.72-1.34,1.162-2.335,3.731,3.832,1.128.682-1.352,4.2.3,4.781,2.268,5.384-.022,9.026-.8,1.4-.3,4.144-.771,5.552-2.368,3.552-4.033,3.195-2.268,9.037-1.787,2.29.2,3.351.167,4.7-1.475.056-.067.156-.279.268-.4,2.961,2.212,5.116.045,8.724-.737,9.249-1.988,6.211-4.077,22.709-1.374l1.217.19c3.4.592,4.826,1.742,8.367,1.318,3.932-.48,5.585-2.2,9.294-2.256,3.262-.056,6.356.6,9.149-.078,4.5-1.106,6.177.726,11.192.089a41.41,41.41,0,0,1,4.982-.4c3.228.011,1.452.346,4,2.011,1.184-1.843,1.251-3.217,4.211-.168a11.31,11.31,0,0,0,1.62,1.9c1.7-.291,1.274-1.005,3.53-1.095,2.536-.112-.737.648,3.519.692,3.217.034,5.753-2.513,9.819-1.586l5.585.57c1.776.514,1.955.927,3.463,1.3,1.14.268,3.63.525,4.759.715,2,.324,6.278,1.81,7.283,1.81,1.128,0,1.3-.536,2.535-.57l12.656.5c3.642,1.106.737,1.519,5.987,1.575,4.77.045,3.787-.514,8.065-1.676l7.473-.849c1.217,0,5.239,1.553,7.395,1.977,3.184.626,5.831-.078,9.45.536,5.887.983,7.875-3.686,15.259-4.089,5.976-.324,6.8,1.519,11.819-.592.111-.056.312-.123.413-.168,2.324-.983,2.111-1.687,2.1-3.9-.034-12.466,3.742-.525-3.631-16.711-1.128-2.48,1.329-1.742.067-6.121-1.062-3.675-3.765-5.987-2.592-9.6,1.486-4.58,4.379-4.546,2.848-10.176-1.608-5.932,1.14-6.311,1.005-7.562-.045-.5-2.9-1.91-3.284-7.6l-3.362-1.821c1.1-1.832.961-2.837-.078-5.5-1.184-3-1.318-2.7-3.362-4.278.849-2,1.809-3.049.391-4.636l-4.948-2.826c.347-.57,5.082-4.781,1.262-9.405-1.564-1.888-.592.882-.447-.369.324-2.234,1.843-4.323.715-7.439-1.262-3.508-1.072.1-5.06,1.229-.659-1.206-.7-1.832-1.2-2.681-.022-.056-.949-1.419-.994-1.5-1.229-1.7-2.011-2.122-2.837-4.368-1.162-3.184.324-.547-1.586-1.8-.145-3.407-.1-3.15,1.709-5.1l-2.782-1.932.5-5.73c-1.91-.771.089.391-1.966-.212a3.015,3.015,0,0,1-2.4-1.6c-.067-.1-.156-.313-.212-.413l-.514-1.687c-1.787-4.814-1.262,2.245-.737-1.351-.581-4.949.044,0,.279-3.575.112-1.586,1.6-3.05,2.044-4.893l.112-.994c0-.145-.022-.346-.034-.514-.123-1.229-1.507-4.222-1.24-5.775,1.653-2.681,2.547-1.061,1.351-4.937-.648-2.1-.726.447-.626-2.7.112-4.077,2.536-5.261,4.558-7.451,2.189-2.368,1.352-2.212-1.005-2.748a9.153,9.153,0,0,0,3-4.211c1.151-3.5.078-2.513-1.6-3.172l2.033-4.144c.693-2.446.737-1.408-.413-3.921,2.312-1.218.626,1.106,2.335-1.106a5.048,5.048,0,0,0,1.084-1.653c2.871-5.373,3.4-3.541,6.87-8.087,2.145-2.826,2.972-6.624,4.937-9.506l-1.944-5.217c-5.529-.581-2.078-1.932-5.4-3.91,1.363-1.932,1.43-.994,2.078-3.463.4-1.575,0-.4,1.128-1.251l.927-1.24c1.385-3.306,2.569-8.7.291-11.762.882-.715.011.324,1.5-.815-2.134-1.374-3.005-2.234-1.955-5.138l.447-2.625-.022-.3-.045-.324c-.614-3.139.38-6.512-1.128-9.651-1.81-3.764-4.479-3.061-3.742-8.232.28-1.977.782-1.944,2.938-2.614-.525-3.452.112-.827-1.575-3.463,4.591-.95,3.564-1.564,3.6-2.234l-.167-.693c-.369-2.513.156-1.028.224-3.776.1-.034.279-.078.3.022h.581c.827-.268-.391,1.407.893-.726,2.156-3.575,2.491-2.927,2.882-3.184,1.184-.782-.19.346.581-.871.458-.7-.491.045.659-.938a9.071,9.071,0,0,1,1.854-.983c-1.508-3.172-2.122-.938-.826-3.429.893-1.709,1.206-.871,1.977-3.373-1.273-1.731-1.139-.838-2.524-2.77,2.368-1.541,2.67-3.284,4.446-5.753,5.708-7.875,6.981-3.239,5-13.952l-.067-.413c-.391-2.256-.514-3.083.391-5.406-1.005-.748-1.028.112-1.865-.927,2.994-.894,1.463.994,1.687-2.011.313-4.423-1.106.145-2.469-5.5,2.726,1.2,1.43,1.251,3.195-1.586-1.139-2.413-1.329-1.676-2.536-3.574-1.564-2.446.223-1.05-.949-4.4-.838-2.379-3.954-2.96-6.311-6.356.291-1.352.078-.6,1.6-1.6l1.05-.559c-3.139-.871-2.96-1.173-3.977-4.256,2.826,1.541,3.865.838,5.161-.179l-7-1.687c.011-5.607-2.916-5.753-3.787-9.618a3.008,3.008,0,0,1-.078-.436l.38-4.021c-2.3-.547-2.156-1.061-4.111-2.357l2.737-1.631-3.161-1.9c2.736-4.4,2.212-1.664,5.328-4.5-2.58-1.62-5.73-2.234-3.507-4.178,1.195-1.039.19,1.184,1.407-1.374l.1-1.218c-.089-1.731-1.005.514.648-2.614,1.519-2.871.29-4.513,4.435-7.708,1.619-1.251,1.642-.6,3.329-2.066-1.787-2.067-2.681-1.139-5.921-2.122l2.123-1.854c3.083-1.608.659-1.329,3.5-2.614,1.608-.726,1.608-.022,3.463-1.251l-4.278-2.268c3.887-3.686,1.732-2.837,2.458-5,6.367-3.049,4.245-3.485,7.16-8.367,1.363-2.279-.357-.034,2.491-1.541-.29-2.949-1.5-4.6-.569-6.68l1.865-1.955c-5.809-5.362-3.374-7.674-3-14.655a26.9,26.9,0,0,1,.949-5.451c-1.877-.324-.927.134-1.943-.737a3.83,3.83,0,0,1-1.374-3.619l-1.173-7.529c-.446-1.81-3.474-3.6-2.815-5.764l.458-1.083a3.157,3.157,0,0,0,.268-.581l-3.91-.156c.883-2.469-1.273-4.837.737-6.177l-3.518-.514c.089-.067-.157,1.139.86-.648,1.452-2.536.324,2.078.324-1.095-.011-3.642-.972.927-.481-2.457.413-2.837,1.542.871.112-4.49-.626-2.379.089-1.731-.023-3.764,0-.089-.033-.279-.045-.369l-.648-4.1c.1-1.921-.19-.748.893-1.24-.8-5.44.536-4.111,1.319-6.914.76-2.759-1.341-2.971-1.52-6.6,1.117-1.117,2.145-2.022,3.172-3.083-1.206-.447-.961.022-2.714-1.218.056-5.071.089-5.194,3.038-7.082-.525-2.435-.38-4.379-2.681-4.893a14.234,14.234,0,0,1,2.949-5.015c2.58-3.195.927-2.659,1.43-4.133,4-1.81,3.485-1.262,5.842-4.468l-5.228-1.865c1.24-4-1.318-1.977.257-7.663-2.6-.849-2.558-3.284-7.462-5.205l-14.644-10.656c-.771-.86-3.083-6.3-6.233-1.709-2.156-3.217,1.34-2.223-3.552-2.446a29.937,29.937,0,0,1-3.586-.268c-4.166-1.039.078.145-2.759-1.452l-7.283-5.328c-2.771-1.754-6.233-1.095-9.2-2.48-5.15-2.39-9.082-.134-14.611-4.513l-6.11-3.709c-3.374-1.62-4.714-1.374-12.131-5.116-3.854-1.944-9.674-1.877-13.851-2.379-2.983-.357-2.435-.614-5.708-1.05l-6.267-1.988c-6.792-2.435-12.89-2.8-17.884-4.58-4.625-1.642-.045-1.542-5.373-2.994-8.222-2.234-17.169-4.055-24.262-8.791-8.255-5.5-13.159-3.843-17.638-6.468-12.332-7.2-13.393.2-25.021-3.139-5.451-1.564-8.032-.436-10.087-.871-2.368-.5.212-.257-2.535-1.564-2.636,4.278-5.932.637-10.176.57-2.022-.034-7.551-1.709-10.1-1.542-5.742.369-7.149-2.134-10.88-1.9-4.948.313-8.378,1.251-11.215-1.631-2.2.916-.547-.8-1.8,1.865-1.5-4.234-.726-1.955-2.681-2.022-1.363-.056.815.916-2.011-.1-2.5-.9-1.631-1.731-3.608-2.815a10.292,10.292,0,0,1-1.877-.86c-1.9-1.206-1.419-1.9-3.452-2.949-4.144.592-5.261,2.536-9.964.827-1.977-.715-2.267-1.017-4.423-1.72-1.073-.357-1.642-.469-2.636-.815-1.374-.492-1.441-.648-2.569-.961-2.536-.67-4.982-.4-7.272-2.234l-.346-.3c-1.329-1.318-1.318-2.357-3.429-3.3-2.212-.983-2.167-1.352-2.357.346-.659-1.564-1.452-1.687-2.536-2.86l-3.306-3.876c-2.759-1.832-7.172-.469-10.668-1.43-2.849-.782-4.614-3.362-7.663-4.167-3.563-.938-8.322-.19-11.427-2.055l-.8-.648c-4.356-3.228-3.128-.927-8.087-6.021-3.485-3.575-8.266-3.7-12.734-5.429l-2.1-.57c-.927.011.435.257-.961.089-1.106-.134-2.681-1.072-4.3-1.508-2.592-.715-1.106.112-3.731-.369l-12.946-3.094c-1.787-.313.547.078-1.24-.089-3.943-.357-2.491-.693-3.7-1.173-2.234-.871-.726.436-3.787.29-3.027-.134-1.385-.681-5.116-.48l-4.1.045c-11.36.693-16.867-1.854-20.185-.927-.771.212-.76.458-1.743.536l-1.932-.29c-2.77-.246-7.719.29-10.523-.458-4.166-1.106.7.045-2.647-2.368-6.78,1.419-2.725,5.261-15.225,3.9-4.825-.525-8.177,1.3-12.287-.391-1.531-.637-2.055-1.229-3.7-1.9l-.547,1.8a1.051,1.051,0,0,1,0,.268c-8.043-2.435-9.327-5.63-19.548-4.781-2.837.246-2.211.961-5.4.614l-3.307-.123c-2.167.424-2.681-1.005-5.7-1.43-3.3-.469-2.726-.034-5.083-2.1l-3.374,2.256c-.268-2.3-.48-4.167-1.72-5.507-1.519-1.642-2.893-.38-2.714-3.753-7.775,1.318-5.954-2.335-10.813-4.111l.134,1.8-12.589-.659c-3.988.4-7.093.67-11.383-2.871-4.077-3.373-1.139-2.1-6.847-3.574-3.362-.871-2.256-1.564-4.692-2.011l-12.053-1.519-.436-.112-.424-.078c-4.423-1.072-1.262-2.011-7.1-1.754l-.447.011c-2.446.022-7.506-1.664-9.372-2.189-2.2-.626-3.564.346-6.569-2.335l-7.64-7.305a4.124,4.124,0,0,0-1.776-1.084l-5.373-.268c-.145.022-.357.045-.5.056l-2.078.369c-1.865.257-.011-1.34-3.519.536-2.949,1.575-8.378,6.546-14.466,2.614a25.714,25.714,0,0,0-3.675-2.178c1.5,2.167,2.011,2.379,3.641,4.971-8.579-2.58-5.373.123-13.047-3.161-1.4-.6-.3.156-1.653-1.106-7.875-7.283-9.439-2.524-13.259-4.993l-.19,2.714-8.769-1.843c-1.608-.3-5.406-2.536-7.551-1.966l-4.244.447c-2.413-.614-3.776-2.368-8.032-3.15-3.586-.659-5.786-2.3-9.092-3.139-3.485-.894-4.2.268-5.529-2.837-2.7,1.184-5.954,3.117-8.344,2.614-2.569-.536-7.573-2.457-9.584-3.977l-1.385,2.614c-5.1-1.53-1.229,3-7.786-.715-2.86-1.62-3.82-.514-7.54-.447a10.6,10.6,0,0,1-6.568-1.62c-2.714-1.419-1.743-.29-3.407-1.061-2.458-1.139-.525-1.385-3.083-2.3-1.921-.693-1.631-.056-3.708.436-.123.034-.324.1-.458.123l-14.376,1.084c-5.44.8-5.686,3.15-11.762.547l-14.935-1.3c-4.982.793-9.83-.268-12.79-2.67a20.39,20.39,0,0,0-10.523-4.893c-4.915-.57-2.167-1.932-6.624-3.72-4.669-1.877-7.484-.592-12.623-4.267l-2.29-.916-.525-5.172-3.083,1.262c-.123-.112-.3-.536-.346-.413-.547,1.586-.57-.715-.693-.849a6.96,6.96,0,0,0-.983-1.128c-1.53-1.285-.168-.525-2.815-1.307-4.245-1.251-5.976-1.743-8.691-5.339l-.29-.424c-2.223-2.67-3.452-.882-5.418-4.457-1.865.168-1.218.056-2.122,1.262-1.687-1.642-.849-1.72-3.731-2.457-2.089-.525-2.067-1.072-4.457-1.005L1144,24.877c-4.01.793-4.088.916-8.154.246-3.072-.514-1.653.357-4.2.559-1.3.112-3.34-.335-4.58-.29-2.457.1-2.323.659-5.328.782-1.8.078-3.362-.268-5.083-.145-5.049.369-.458,1.162-4.178.782-3.217-.324-9.707.5-10.254.357-2.893-.771-3.217-4.692-7.171-5.205-5.619.011,1.776,1.441-4.625,1.273a18.247,18.247,0,0,1-2.714-.469c-4.289-.536-4.7-.48-8.456-2.134-4.96-2.189-2.3-.5-1.743-2.312.7-2.323-.547-.793-2.189-.436-4.245.9-7.272-1.017-11.249-1.843-3.7-.76-2.536-.2-4.524-2.39l-4.926.737c-.57-1.072-.022-1.843-.167-2.256-10.009.894-3.642-1.273-11.394-.949.011-3.831.033.2,1.664-3.407-3.854.335-5.049,3.764-14.2-3.6l-1.731-.871c-5.116-.268-8.646-3.262-14.767-3.139-3.965.078-2.379-1.072-7.406,1.743-6.791,3.809-3.083,2.938-11.047,6.356-4.312,1.854-5.641,5.574-10.578,7.06l-6.345,4.245c-2.536,1.564-5.73,1.061-8.6,1.307-7.607.626-10.7.748-17.772-.212-9.573-1.307-12.232,3.351-17.537,5.429-3.854,1.5-6.613,1.128-9.539,1.72-1.854.369-2.77,2.145-5.082,2.212-4.167.123-.022,2.48-13.483,4.647-1.877.3-2.1.838-3.977,1.5-2.1.737-1.642.112-3.541,1.028-7.06,3.418-11.684,2.5-18.565.491-2.055-.6-1.687-.112-3.82-.268-11.751-.894-17.962,4.234-26.641,2.547l-6.49-.648c-1.921-.67-1.028,1.128-4.479.849-2.971-.235.391-.983-4.323-.179-3.094.525-7.249-.223-8.724-.1-.492.045,1.251.268-1.363.168-.447-.011-1.854-.3-2.156-.324-1.218-.123-.737-.324-2.033.078-.134.045-.313.156-.447.2l-.927.525-.48.279c-9.964,5.172-.871,3.195-17.783,7.138-3.206.748-6.412,1.955-9.852,2.379a28.916,28.916,0,0,0-5.161.76c-2.815.715-1.642.279-4.066-.424" transform="translate(0 -0.005)" fill="#04609d" fill-rule="evenodd"/>
      </g>
    </g>
  </g>
</svg>
